<?xml version="1.0" encoding="utf-8"?>
<!-- Generator: Adobe Illustrator 27.5.0, SVG Export Plug-In . SVG Version: 6.00 Build 0)  -->
<svg version="1.1" xmlns="http://www.w3.org/2000/svg" xmlns:xlink="http://www.w3.org/1999/xlink" x="0px" y="0px"
	 viewBox="0 0 500 500" style="enable-background:new 0 0 500 500;" xml:space="preserve">
<g id="BACKGROUND">
	<rect style="fill:#87E3FB;" width="500" height="500"/>
</g>
<g id="OBJECTS">
	<g>
		<path style="fill:#50D1F1;" d="M395.54,411.616c0,15.35-2.5,30.12-7.12,43.92c-0.71,2.13-1.47,4.25-2.29,6.34H128.17
			c-0.82-2.09-1.58-4.21-2.29-6.34c-4.62-13.8-7.12-28.57-7.12-43.92c0-76.43,61.96-138.39,138.39-138.39
			S395.54,335.185,395.54,411.616z"/>
		<g>
			<g>
				<path style="fill:#1A50C7;" d="M283.806,436.215l10.974-25.053l11.585-26.426c2.457-5.595-0.094-12.112-5.694-14.554
					c-0.904-0.4-1.83-0.667-2.75-0.813c-4.837-0.743-9.762,1.811-11.819,6.502l-11.347,25.883l-11.201,25.592
					c-2.457,5.595,0.094,12.112,5.689,14.569c0.889,0.395,1.815,0.662,2.745,0.803C276.829,443.47,281.764,440.912,283.806,436.215z
					"/>
			</g>
		</g>
		<g>
			<g>
				<path style="fill:#F88895;" d="M250.365,366.448l-5.216-11.594c-0.546-1.213,0.02-2.701,1.264-3.324l0,0
					c1.244-0.623,2.695-0.144,3.24,1.069l5.216,11.594c0.546,1.213-0.02,2.701-1.264,3.324v0
					C252.362,368.139,250.911,367.661,250.365,366.448z"/>
				<path style="fill:#F88895;" d="M244.22,365.397l-4.549-10.111c-0.546-1.213,0.02-2.701,1.264-3.324l0,0
					c1.244-0.623,2.695-0.144,3.24,1.069l4.55,10.111c0.546,1.213-0.02,2.701-1.264,3.324l0,0
					C246.216,367.088,244.766,366.61,244.22,365.397z"/>
				<path style="fill:#F88895;" d="M240.792,370.345l-4.553-10.12c-0.546-1.213,0.02-2.701,1.264-3.324l0,0
					c1.244-0.623,2.695-0.144,3.24,1.069l4.553,10.12c0.546,1.213-0.02,2.701-1.264,3.324l0,0
					C242.789,372.037,241.338,371.558,240.792,370.345z"/>
				<path style="fill:#F88895;" d="M237.981,375.31l-4.47-9.935c-0.474-1.053,0.017-2.344,1.097-2.885l0,0
					c1.079-0.54,2.339-0.125,2.812,0.928l4.47,9.935c0.474,1.053-0.018,2.344-1.097,2.884l0,0
					C239.714,376.778,238.455,376.363,237.981,375.31z"/>
				<path style="fill:#F88895;" d="M244.105,384.062c5.415,2.447,12.052-0.106,14.824-5.701c2.772-5.595,0.629-12.115-4.787-14.562
					c-5.415-2.447-12.053,0.106-14.824,5.701C236.547,375.095,238.69,381.615,244.105,384.062z"/>
				<path style="fill:#F88895;" d="M259.561,359.465c1.391-0.11,2.544,0.955,2.575,2.38l0.192,8.714
					c0.009,0.402-0.08,0.785-0.233,1.137c-0.459,1.939-2.105,3.476-4.117,3.633c-2.404,0.189-4.396-1.655-4.448-4.118
					c-0.048-2.254,1.551-4.227,3.664-4.693l-0.094-4.273C257.068,360.82,258.17,359.576,259.561,359.465z"/>
				
					<line style="fill:none;stroke:#342D3A;stroke-linecap:round;stroke-linejoin:round;stroke-miterlimit:10;" x1="249.415" y1="364.335" x2="244.871" y2="353.78"/>
				
					<line style="fill:none;stroke:#342D3A;stroke-linecap:round;stroke-linejoin:round;stroke-miterlimit:10;" x1="244.986" y1="367.485" x2="240.443" y2="356.93"/>
				
					<line style="fill:none;stroke:#342D3A;stroke-linecap:round;stroke-linejoin:round;stroke-miterlimit:10;" x1="242.025" y1="373.208" x2="237.481" y2="362.653"/>
			</g>
			<g>
				<path style="fill:#1A50C7;" d="M259.475,438.498l-9.174-26.379l-9.263-26.707c-0.087-0.236-0.155-0.477-0.223-0.718l20.712-7.55
					c0.14,0.327,0.272,0.665,0.395,1.006l9.466,27.255l8.973,25.841c1.691,4.829-0.183,10.059-4.246,12.8
					c-0.779,0.526-1.642,0.959-2.564,1.272C267.777,447.318,261.474,444.272,259.475,438.498z"/>
			</g>
			<line style="fill:none;" x1="240.816" y1="384.694" x2="261.527" y2="377.145"/>
		</g>
		<g>
			<path style="fill:none;stroke:#342D3A;stroke-linecap:round;stroke-linejoin:round;stroke-miterlimit:10;" d="M261.922,378.15
				l9.466,27.255l8.973,25.841c1.513,4.321,0.172,8.964-3.039,11.857"/>
		</g>
		<g>
			<path style="fill:#F88895;" d="M278.194,442.876c-2.019-0.56-4.09,0.205-5.293,1.77l-4.318-1.199
				c-1.827-0.507-3.719,0.563-4.226,2.39c-0.507,1.827,0.563,3.719,2.39,4.226l8.313,2.307c0.053,0.015,0.106,0.015,0.159,0.027
				c0.101,0.035,0.2,0.072,0.304,0.101c2.657,0.737,5.41-0.819,6.147-3.476C282.408,446.366,280.851,443.614,278.194,442.876z"/>
			<path style="fill:none;stroke:#342D3A;stroke-linecap:round;stroke-linejoin:round;stroke-miterlimit:10;" d="M280.685,444.479
				c-0.627-0.749-1.479-1.322-2.491-1.603c-2.019-0.56-4.09,0.205-5.293,1.77l-4.318-1.199c-1.827-0.507-3.719,0.563-4.226,2.39"/>
		</g>
		<g>
			<path style="fill:#D7D8DB;" d="M146.678,409.674h82.789c6.242,0,11.065-5.482,10.27-11.673l-7.341-57.176
				c-0.663-5.166-5.061-9.035-10.27-9.035h-82.788c-6.242,0-11.065,5.482-10.27,11.673l7.341,57.176
				C137.072,405.805,141.47,409.674,146.678,409.674z"/>
			<path style="fill:#EDF1F7;" d="M143.678,412.674h82.789c6.242,0,11.065-5.482,10.27-11.673l-7.341-57.176
				c-0.663-5.166-5.061-9.035-10.27-9.035h-82.788c-6.242,0-11.065,5.482-10.27,11.673l7.341,57.176
				C134.072,408.805,138.47,412.674,143.678,412.674z"/>
			<circle style="fill:#D7D8DB;" cx="178.828" cy="366.138" r="6.732"/>
			<polygon style="fill:#D7D8DB;" points="157.206,451.072 186.405,451.072 196.405,393.515 167.206,393.515 			"/>
			<polygon style="fill:#C2C3C6;" points="196.405,393.515 201.134,412.399 193.124,412.399 			"/>
			
				<rect x="138.509" y="450.555" transform="matrix(-1 -1.224647e-16 1.224647e-16 -1 345.064 905.9523)" style="fill:#EDF1F7;" width="68.046" height="4.843"/>
		</g>
		
			<ellipse transform="matrix(0.233 -0.9725 0.9725 0.233 -255.0833 347.7324)" style="fill:#50D1F1;" cx="92.893" cy="335.569" rx="32.168" ry="32.168"/>
		<g>
			<path style="fill:#1A50C7;" d="M285.175,459.636h67.647l2.772-71.249c0.432-11.101-7.471-20.366-17.373-20.366h-38.445
				c-9.902,0-17.805,9.265-17.373,20.366L285.175,459.636z"/>
			
				<line style="fill:none;stroke:#342D3A;stroke-linecap:round;stroke-linejoin:round;stroke-miterlimit:10;" x1="282.717" y1="396.446" x2="284.049" y2="430.702"/>
			<path style="fill:#F88895;" d="M298.261,368.105c3.54,6.89,10.72,11.6,19,11.6c8.31,0,15.51-4.75,19.04-11.68h-10.57v-11.15
				c0-1.03-0.17-2.01-0.49-2.93c-2.18,2.39-5.12,4.06-8.42,4.62c-0.82,0.15-1.66,0.22-2.52,0.22c-0.14,0-0.28,0-0.42-0.01
				c-0.39,0.03-0.78,0.05-1.18,0.05c-0.44,0-0.88-0.02-1.31-0.06c-0.01,0-0.01,0-0.02,0h-0.04c-1.33-0.07-2.61-0.3-3.84-0.67v9.93
				h0.1l-0.1,0.1v-0.1h-7.73C299.251,368.025,298.751,368.045,298.261,368.105z"/>
			<path style="fill:#DD6F7F;" d="M302.111,336.315c2.102,2.786,2.126,6.313,0.053,7.877c-2.073,1.564-5.458,0.573-7.56-2.213
				c-2.102-2.786-2.126-6.313-0.053-7.877C296.624,332.538,300.009,333.529,302.111,336.315z"/>
			<g>
				<path style="fill:#342D3A;" d="M298.354,324.481c0.017-2.309,0.438-4.515,1.18-6.567c2.68-7.302,9.623-12.519,17.746-12.519
					c10.449,0,18.926,8.602,18.926,19.205c0,5.644-2.824,11.556-6.633,15.062c-0.236,0.218-0.305,3.947-0.305,3.947
					c0,8.38-6.695,15.173-14.953,15.173c-8.815,0-15.962-7.252-15.962-16.197v-16.929c0-0.072,0.027-0.136,0.041-0.204
					c-0.013-0.284-0.041-0.563-0.041-0.852V324.481z"/>
				<path style="fill:#F88895;" d="M296.208,324.979c0.017-2.275,0.438-4.449,1.18-6.472c2.68-7.196,9.623-12.337,17.746-12.337
					c10.449,0,18.926,8.477,18.926,18.926c0,5.562-2.824,11.388-6.633,14.843c-0.236,0.215-0.305,3.889-0.305,3.889
					c0,8.258-6.695,14.953-14.953,14.953c-8.815,0-15.962-7.146-15.962-15.962v-16.683c0-0.071,0.027-0.134,0.041-0.201
					c-0.013-0.28-0.041-0.554-0.041-0.839V324.979z"/>
				<path style="fill:#F88895;" d="M315.514,379.104h1.069c5.06,0,9.161-4.102,9.161-9.161v-18.899c0-5.06-4.102-9.161-9.161-9.161
					l0,0c-5.06,0-9.161,4.102-9.161,9.161v19.968C307.422,375.481,311.045,379.104,315.514,379.104z"/>
				<path style="fill:#342D3A;" d="M307.506,357.944v10.179l9.775-10.011c-1.433,0.455-2.983,0.708-4.567,0.708
					C310.893,358.821,309.141,358.517,307.506,357.944z"/>
				<path style="fill:#342D3A;" d="M296.208,321.746c2.889,0.83,5.986,0.173,8.91-0.623c3.045-0.813,6.159-1.799,9.274-1.401
					c6.246,0.796,10.796,8.028,8.806,13.997c-0.346,1.021-0.83,1.99-0.934,3.062c-0.121,1.055,0.277,2.284,1.246,2.716
					c1.107,0.502,2.405-0.225,3.149-1.176c0.744-0.952,1.142-2.128,1.869-3.097c1.021-1.367,2.682-2.042,4.377-2.059
					c1.194-2.63,1.903-5.519,1.903-8.339c0-10.727-8.703-19.43-19.43-19.43c-8.339,0-15.468,5.277-18.219,12.665
					C296.727,319.237,296.399,320.465,296.208,321.746z"/>
			</g>
			<path style="fill:#F88895;" d="M326.492,336.019c-2.266,3.004-2.452,6.685-0.414,8.222c2.038,1.537,5.526,0.348,7.792-2.656
				c2.266-3.004,2.452-6.685,0.414-8.222C332.247,331.826,328.758,333.015,326.492,336.019z"/>
			
				<line style="fill:none;stroke:#342D3A;stroke-linecap:round;stroke-linejoin:round;stroke-miterlimit:10;" x1="332.752" y1="336.854" x2="328.002" y2="340.979"/>
			<path style="fill:none;stroke:#342D3A;stroke-linecap:round;stroke-linejoin:round;stroke-miterlimit:10;" d="M309.422,335.221
				c1.072-0.963,2.384-1.462,3.684-1.4c1.3,0.062,2.58,0.684,3.596,1.747"/>
			<path style="fill:#342D3A;" d="M311.525,335.229c0-0.849,0.688-1.537,1.536-1.537c0.849,0,1.537,0.688,1.537,1.537
				c0,0.848-0.688,1.536-1.537,1.536C312.213,336.765,311.525,336.077,311.525,335.229z"/>
			<path style="fill:none;stroke:#342D3A;stroke-linecap:round;stroke-linejoin:round;stroke-miterlimit:10;" d="M295.738,335.221
				c1.072-0.963,2.384-1.462,3.684-1.4c1.3,0.062,2.58,0.684,3.596,1.747"/>
			<path style="fill:#342D3A;" d="M297.841,335.229c0-0.849,0.688-1.537,1.536-1.537c0.849,0,1.537,0.688,1.537,1.537
				c0,0.848-0.688,1.536-1.537,1.536C298.529,336.765,297.841,336.077,297.841,335.229z"/>
			<polyline style="fill:none;stroke:#342D3A;stroke-linecap:round;stroke-linejoin:round;stroke-miterlimit:10;" points="
				306.377,337.854 301.605,342.596 305.627,345.909 			"/>
			<g>
				<path style="fill:#342D3A;" d="M318.713,330.93c-0.861,0.513-1.682,0.754-2.49,0.896c-0.807,0.141-1.602,0.192-2.38,0.126
					c-0.779-0.056-1.543-0.221-2.293-0.481c-0.75-0.26-1.487-0.616-2.184-1.243l-0.409-0.368c-0.26-0.233-0.281-0.634-0.048-0.893
					c0.172-0.191,0.433-0.253,0.663-0.18c0.753,0.24,1.509,0.459,2.269,0.649c0.759,0.197,1.524,0.355,2.286,0.534
					c0.767,0.145,1.531,0.308,2.3,0.436c0.768,0.134,1.54,0.24,2.315,0.325c0.047,0.005,0.082,0.048,0.077,0.095
					c-0.003,0.028-0.019,0.051-0.041,0.065L318.713,330.93z"/>
			</g>
			<path style="fill:#342D3A;" d="M294.498,330.732c0.541-0.734,1.113-1.195,1.696-1.558c0.583-0.361,1.177-0.633,1.783-0.787
				c0.605-0.164,1.223-0.22,1.852-0.181c0.629,0.04,1.268,0.175,1.938,0.581l0.393,0.238c0.25,0.151,0.355,0.529,0.235,0.844
				c-0.088,0.231-0.274,0.364-0.465,0.358c-0.626-0.02-1.25-0.018-1.871,0.013c-0.621,0.024-1.238,0.086-1.858,0.128
				c-0.616,0.075-1.233,0.133-1.847,0.225c-0.614,0.087-1.225,0.201-1.834,0.336c-0.037,0.008-0.073-0.023-0.079-0.07
				c-0.004-0.028,0.003-0.054,0.017-0.074L294.498,330.732z"/>
			
				<line style="fill:none;stroke:#342D3A;stroke-linecap:round;stroke-linejoin:round;stroke-miterlimit:10;" x1="305.502" y1="353.354" x2="305.502" y2="355.229"/>
			<path style="fill:none;stroke:#342D3A;stroke-linecap:round;stroke-linejoin:round;stroke-miterlimit:10;" d="M309.502,348.797
				c-1.626,1.116-3.76,1.454-5.651,0.896"/>
			<g>
				<path style="fill:none;stroke:#FEFEFE;stroke-linecap:round;stroke-linejoin:round;stroke-miterlimit:10;" d="M309.885,341.882
					h6.858c1.75,0,3.168-1.418,3.168-3.168v-6.625h-13.194v6.625C306.717,340.463,308.135,341.882,309.885,341.882z"/>
				<path style="fill:none;stroke:#FEFEFE;stroke-linecap:round;stroke-linejoin:round;stroke-miterlimit:10;" d="M296.21,341.882
					h5.061c1.75,0,3.168-1.418,3.168-3.168v-6.625h-11.396v6.625C293.042,340.463,294.46,341.882,296.21,341.882z"/>
				
					<line style="fill:none;stroke:#FEFEFE;stroke-linecap:round;stroke-linejoin:round;stroke-miterlimit:10;" x1="307.506" y1="332.089" x2="301.605" y2="332.089"/>
				
					<line style="fill:none;stroke:#FEFEFE;stroke-linecap:round;stroke-linejoin:round;stroke-miterlimit:10;" x1="319.911" y1="332.089" x2="330.377" y2="332.089"/>
			</g>
			<path style="fill:#184089;" d="M318.572,304.472c5.409-0.524,11.297,0.76,14.967,4.552c2.771,2.863,3.98,6.834,4.134,10.712
				c0.154,3.878-0.654,7.727-1.458,11.533c-6.701-9.826-17.349-17.181-29.287-20.23c-0.987-0.252-3.773-0.466-3.02-1.927
				c0.554-1.076,3.29-1.633,4.39-2.042C311.603,305.84,315.026,304.816,318.572,304.472z"/>
			<path style="fill:#1A50C7;" d="M299.108,312.225c-0.676,0.607-0.115,1.732,0.777,1.562c7.2-1.368,15.355,0.193,22.439,4.923
				c5.719,3.823,9.79,9.088,11.928,14.758c0.323,0.856,1.577,0.75,1.743-0.15c0.243-1.318,0.373-2.649,0.373-3.966
				c0-0.549-0.02-1.088-0.059-1.617c-0.008-0.107-0.033-0.211-0.075-0.31c-2.227-5.299-6.151-10.183-11.54-13.787
				c-6.072-4.064-12.936-5.788-19.322-5.322c-0.115,0.008-0.227,0.036-0.332,0.082C302.864,309.352,300.862,310.649,299.108,312.225
				z"/>
			<path style="fill:#FFDD4D;" d="M323.652,319.749c1.75,1.19,3.34,2.52,4.77,3.96l3.55-3.8c-1.45-1.63-3.1-3.15-4.94-4.5
				c-0.33,1.27-1.03,2.45-1.99,3.35C324.622,319.149,324.152,319.489,323.652,319.749z"/>
		</g>
		<rect x="83.43" y="455.536" style="fill:#322D38;" width="347.44" height="6.34"/>
		<g>
			<polyline style="fill:none;stroke:#342D3A;stroke-miterlimit:10;" points="403.974,433.359 403.974,443.555 391.527,455.536 			
				"/>
			<polyline style="fill:none;stroke:#342D3A;stroke-miterlimit:10;" points="403.527,433.359 403.527,443.555 415.974,455.536 			
				"/>
			<g>
				<path style="fill:#342D3A;" d="M418.397,434.873H389.55c-2.835,0-5.133-2.298-5.133-5.133v-13.315
					c0-2.835,2.298-5.133,5.133-5.133h28.848c2.835,0,5.132,2.298,5.132,5.133v13.315
					C423.53,432.575,421.232,434.873,418.397,434.873z"/>
				
					<ellipse transform="matrix(0.2424 -0.9702 0.9702 0.2424 -102.9354 720.812)" style="fill:#EDF1F7;" cx="410.066" cy="426.315" rx="10.706" ry="10.706"/>
				<circle style="fill:#342D3A;" cx="410.066" cy="426.315" r="8.558"/>
				<path style="fill:none;stroke:#EDF1F7;stroke-miterlimit:10;" d="M403.022,426.315c0-3.89,3.154-7.044,7.044-7.044
					c3.89,0,7.044,3.154,7.044,7.044c0,3.89-3.154,7.044-7.044,7.044C406.176,433.359,403.022,430.206,403.022,426.315z"/>
				<path style="fill:#D7D8DB;" d="M389.718,426.315c0-1.451,1.177-2.628,2.628-2.628c1.451,0,2.628,1.177,2.628,2.628
					c0,1.452-1.177,2.628-2.628,2.628C390.895,428.943,389.718,427.767,389.718,426.315z"/>
				<path style="fill:#F1317B;" d="M390.718,419.116c0-0.899,0.729-1.628,1.628-1.628c0.899,0,1.628,0.729,1.628,1.628
					s-0.729,1.628-1.628,1.628C391.447,420.744,390.718,420.015,390.718,419.116z"/>
				<rect x="406.569" y="407.305" style="fill:#342D3A;" width="10.541" height="4.5"/>
				<rect x="408.93" y="408.313" style="fill:#EDF1F7;" width="5.818" height="2.484"/>
				<rect x="402.36" y="390.055" style="fill:#342D3A;" width="17.51" height="12.774"/>
				<rect x="405.12" y="392.069" style="fill:#EDF1F7;" width="11.99" height="8.747"/>
				<line style="fill:none;stroke:#342D3A;stroke-miterlimit:10;" x1="411.115" y1="402.829" x2="411.115" y2="407.305"/>
				<path style="fill:#342D3A;" d="M394.631,411.674h-4.183c-0.484,0-0.877-0.393-0.877-0.877l0,0c0-0.484,0.393-0.877,0.877-0.877
					h4.183c0.484,0,0.877,0.393,0.877,0.877l0,0C395.508,411.281,395.116,411.674,394.631,411.674z"/>
			</g>
		</g>
		<g>
			<circle style="fill:#50D1F1;" cx="419.078" cy="302.046" r="39.462"/>
			<g>
				<g>
					<path style="fill:#EDF1F7;" d="M431.155,267.594l-48.93,6.39l4.47,34.28l48.94-6.39L431.155,267.594z M390.815,304.494
						l-1.57-12.08c2.08-1.33,4.47-2.14,6.92-1.97c6.18,0.42,10.83,6.68,17.02,6.92c0.08,0.01,0.17,0.01,0.25,0.01
						c3.35,0.05,6.48-1.7,9.17-3.71c2.23-1.66,4.33-3.55,6.69-4.98l1.39,10.6L390.815,304.494z"/>
					<path style="fill:#CEA932;" d="M430.685,299.284l-39.87,5.21l-1.57-12.08c2.08-1.33,4.47-2.14,6.92-1.97
						c6.18,0.42,10.83,6.68,17.02,6.92c0.08,0.01,0.17,0.01,0.25,0.01c3.35,0.05,6.48-1.7,9.17-3.71c2.23-1.66,4.33-3.55,6.69-4.98
						L430.685,299.284z"/>
					<path style="fill:#F6CF44;" d="M429.295,288.684c-2.36,1.43-4.46,3.32-6.69,4.98c-2.69,2.01-5.82,3.76-9.17,3.71
						c-0.08,0-0.17,0-0.25-0.01c-6.19-0.24-10.84-6.5-17.02-6.92c-2.45-0.17-4.84,0.64-6.92,1.97l-2.07-15.85l39.86-5.2
						L429.295,288.684z"/>
				</g>
				<path style="fill:none;stroke:#342D3A;stroke-linecap:round;stroke-linejoin:round;stroke-miterlimit:10;" d="M389.245,292.414
					c2.08-1.33,4.47-2.14,6.92-1.97c6.18,0.42,10.83,6.68,17.02,6.92c0.08,0.01,0.17,0.01,0.25,0.01c3.35,0.05,6.48-1.7,9.17-3.71
					c2.23-1.66,4.33-3.55,6.69-4.98"/>
				<circle style="fill:#CEA932;" cx="411.735" cy="284.369" r="5.56"/>
				
					<circle style="fill:none;stroke:#342D3A;stroke-linecap:round;stroke-linejoin:round;stroke-miterlimit:10;" cx="411.735" cy="284.369" r="5.56"/>
			</g>
			<g>
				<g>
					<path style="fill:#EDF1F7;" d="M455.433,296.088l-48.402-9.603l-6.734,33.908l48.411,9.606L455.433,296.088z M405.407,318.139
						l2.378-11.947c2.396-0.594,4.92-0.597,7.186,0.348c5.721,2.375,8.123,9.794,13.911,12.002c0.072,0.035,0.158,0.064,0.234,0.09
						c3.158,1.119,6.683,0.463,9.875-0.581c2.644-0.859,5.238-1.978,7.932-2.578l-2.075,10.488L405.407,318.139z"/>
					<path style="fill:#2B5899;" d="M444.848,325.961l-39.441-7.822l2.378-11.947c2.396-0.594,4.92-0.597,7.186,0.348
						c5.721,2.375,8.123,9.794,13.911,12.002c0.072,0.035,0.158,0.064,0.234,0.09c3.158,1.119,6.683,0.463,9.875-0.581
						c2.644-0.859,5.238-1.978,7.932-2.578L444.848,325.961z"/>
					<path style="fill:#3065C4;" d="M446.923,315.474c-2.693,0.6-5.288,1.718-7.932,2.578c-3.192,1.043-6.717,1.7-9.875,0.581
						c-0.076-0.026-0.161-0.054-0.234-0.09c-5.788-2.208-8.19-9.627-13.911-12.002c-2.267-0.945-4.79-0.942-7.186-0.348
						l3.111-15.679l39.428,7.828L446.923,315.474z"/>
				</g>
				<path style="fill:none;stroke:#342D3A;stroke-linecap:round;stroke-linejoin:round;stroke-miterlimit:10;" d="M407.785,306.192
					c2.396-0.594,4.92-0.597,7.186,0.348c5.721,2.375,8.123,9.794,13.911,12.002c0.072,0.035,0.158,0.064,0.234,0.09
					c3.158,1.119,6.683,0.463,9.875-0.581c2.644-0.859,5.238-1.978,7.932-2.578"/>
				<circle style="fill:#2B5899;" cx="431.667" cy="305.767" r="5.56"/>
				
					<circle style="fill:none;stroke:#342D3A;stroke-linecap:round;stroke-linejoin:round;stroke-miterlimit:10;" cx="431.667" cy="305.767" r="5.56"/>
			</g>
		</g>
		<g>
			
				<line style="fill:none;stroke:#342D3A;stroke-linecap:round;stroke-linejoin:round;stroke-miterlimit:10;" x1="239.823" y1="409.674" x2="239.823" y2="449.055"/>
			<path style="fill:none;stroke:#342D3A;stroke-linecap:round;stroke-linejoin:round;stroke-miterlimit:10;" d="M234.661,406.75
				c0-6.53,5.162-11.823,5.162-11.823s5.161,5.293,5.161,11.823c0,6.53-5.161,11.823-5.161,11.823S234.661,413.28,234.661,406.75z"
				/>
			<path style="fill:none;stroke:#342D3A;stroke-linecap:round;stroke-linejoin:round;stroke-miterlimit:10;" d="M243.535,417.541
				c3.638-3.638,9.464-3.712,9.464-3.712s-0.073,5.826-3.712,9.464c-3.639,3.639-9.464,3.712-9.464,3.712
				S239.896,421.18,243.535,417.541z"/>
			<path style="fill:none;stroke:#342D3A;stroke-linecap:round;stroke-linejoin:round;stroke-miterlimit:10;" d="M236.338,417.541
				c-3.639-3.638-9.464-3.712-9.464-3.712s0.074,5.826,3.712,9.464c3.638,3.639,9.464,3.712,9.464,3.712
				S239.977,421.18,236.338,417.541z"/>
			<g>
				<rect x="229.05" y="433.943" style="fill:#F6CF44;" width="21.545" height="21.545"/>
				<rect x="226.589" y="430.702" style="fill:#CEA932;" width="26.468" height="6.483"/>
			</g>
		</g>
		<g>
			<rect x="71.052" y="319.763" style="fill:#F67DBE;" width="44" height="31.63"/>
			<polygon style="fill:#F1317B;" points="92.893,343.162 70.734,319.745 115.052,319.745 			"/>
			
				<line style="fill:none;stroke:#342D3A;stroke-linecap:round;stroke-linejoin:round;stroke-miterlimit:10;" x1="99.585" y1="343.162" x2="111.052" y2="343.162"/>
		</g>
		<g>
			<g>
				<rect x="94.42" y="442.062" style="fill:#F67DBF;" width="70.905" height="13.054"/>
				<rect x="94.42" y="445.233" style="fill:#FEFEFE;" width="70.905" height="7.133"/>
				<line style="fill:none;stroke:#D7D8DB;stroke-miterlimit:10;" x1="94.42" y1="448.59" x2="120.316" y2="448.59"/>
				<line style="fill:none;stroke:#D7D8DB;stroke-miterlimit:10;" x1="139.43" y1="448.59" x2="165.326" y2="448.59"/>
			</g>
			<g>
				<rect x="99.42" y="417.253" style="fill:#F6CF44;" width="70.905" height="13.054"/>
				<rect x="99.42" y="420.423" style="fill:#FEFEFE;" width="70.905" height="7.133"/>
				<line style="fill:none;stroke:#D7D8DB;stroke-miterlimit:10;" x1="99.42" y1="423.78" x2="125.316" y2="423.78"/>
				<line style="fill:none;stroke:#D7D8DB;stroke-miterlimit:10;" x1="144.43" y1="423.78" x2="170.326" y2="423.78"/>
			</g>
			<rect x="87.638" y="430.308" style="fill:#1A50C7;" width="77.688" height="11.755"/>
			<g>
				<path style="fill:#FEFEFE;" d="M117.08,432.383c1.195,0,1.781,0.663,1.781,1.88v3.845c0,1.217-0.586,1.879-1.781,1.879h-1.89
					v-7.604H117.08z M116.385,438.901h0.674c0.38,0,0.608-0.195,0.608-0.739v-3.954c0-0.543-0.228-0.739-0.608-0.739h-0.674V438.901
					z"/>
				<path style="fill:#FEFEFE;" d="M122.46,435.587v1.086h-1.641v2.227h2.064v1.086h-3.259v-7.604h3.259v1.087h-2.064v2.118H122.46z
					"/>
				<path style="fill:#FEFEFE;" d="M125.232,432.296c1.162,0,1.759,0.695,1.759,1.912v0.239h-1.13v-0.315
					c0-0.543-0.217-0.75-0.597-0.75c-0.38,0-0.598,0.206-0.598,0.75c0,1.564,2.336,1.858,2.336,4.03
					c0,1.217-0.609,1.912-1.781,1.912c-1.174,0-1.782-0.695-1.782-1.912v-0.467h1.13v0.543c0,0.544,0.239,0.739,0.619,0.739
					c0.38,0,0.619-0.195,0.619-0.739c0-1.564-2.336-1.858-2.336-4.03C123.472,432.991,124.07,432.296,125.232,432.296z"/>
				<path style="fill:#FEFEFE;" d="M128.884,432.383v7.604h-1.195v-7.604H128.884z"/>
				<path style="fill:#FEFEFE;" d="M133.22,435.75v2.411c0,1.217-0.609,1.912-1.781,1.912c-1.174,0-1.781-0.695-1.781-1.912v-3.954
					c0-1.217,0.608-1.912,1.781-1.912c1.173,0,1.781,0.695,1.781,1.912v0.739h-1.13v-0.815c0-0.543-0.239-0.75-0.619-0.75
					c-0.38,0-0.619,0.206-0.619,0.75v4.106c0,0.544,0.239,0.739,0.619,0.739c0.38,0,0.619-0.195,0.619-0.739v-1.401h-0.543v-1.086
					H133.22z"/>
				<path style="fill:#FEFEFE;" d="M135.058,439.987h-1.076v-7.604h1.499l1.228,4.552v-4.552h1.064v7.604h-1.228l-1.488-5.508
					V439.987z"/>
			</g>
			<rect x="141.023" y="433.469" style="fill:#FEFEFE;" width="24.303" height="1.712"/>
			<rect x="87.638" y="433.469" style="fill:#FEFEFE;" width="24.303" height="1.712"/>
		</g>
		<g>
			<circle style="fill:#87E3FB;" cx="259.723" cy="312.103" r="28.661"/>
			<g>
				
					<rect x="263.23" y="273.117" transform="matrix(0.8792 0.4765 -0.4765 0.8792 174.1466 -92.2574)" style="fill:#F6CF44;" width="11.506" height="48.257"/>
				<path style="fill:#F67DBF;" d="M285.031,279.708l-10.115-5.483l1.983-3.658c1.236-2.281,4.088-3.128,6.369-1.892l1.855,1.005
					c2.281,1.236,3.128,4.088,1.891,6.369L285.031,279.708z"/>
				<polygon style="fill:#F88895;" points="263.196,320.81 257.972,324.023 257.452,324.34 252.585,321.703 252.567,321.094 
					252.397,314.957 				"/>
				<polygon style="fill:#342D3A;" points="257.446,324.337 252.726,327.239 252.58,321.7 				"/>
				<g>
					
						<line style="fill:none;stroke:#342D3A;stroke-linecap:round;stroke-linejoin:round;stroke-miterlimit:10;" x1="269.195" y1="296.208" x2="257.471" y2="317.839"/>
					
						<line style="fill:none;stroke:#342D3A;stroke-linecap:round;stroke-linejoin:round;stroke-miterlimit:10;" x1="281.197" y1="281.43" x2="260.556" y2="319.512"/>
					
						<line style="fill:none;stroke:#342D3A;stroke-linecap:round;stroke-linejoin:round;stroke-miterlimit:10;" x1="275.567" y1="278.378" x2="254.926" y2="316.46"/>
				</g>
			</g>
		</g>
		<g>
			
				<ellipse transform="matrix(0.6369 -0.771 0.771 0.6369 -156.0404 241.9568)" style="fill:#50D1F1;" cx="178.828" cy="286.622" rx="27.242" ry="27.242"/>
			<g>
				<path style="fill:none;stroke:#000000;" d="M182.893,302.376l-0.854-5.717h-6.077l-0.856,5.717h-4.546l5.041-31.508h7.248
					l5.041,31.508H182.893z M181.363,292.386l-2.386-15.935l-2.384,15.935H181.363z"/>
			</g>
		</g>
		<path style="fill:#342D3A;" d="M333.18,381.824l-0.613,55.652l8.271-8.832l-0.659-4.028l-6.862-41.707
			C333.265,382.548,333.212,382.188,333.18,381.824z"/>
		<g>
			<g>
				<path style="fill:#1A50C7;" d="M360.476,436.514l-2.517-27.235l-2.647-28.732c-0.557-6.085-5.942-10.555-12.025-9.982
					c-0.984,0.087-1.924,0.302-2.8,0.619c-4.593,1.69-7.667,6.308-7.197,11.409l2.592,28.142l2.579,27.816
					c0.557,6.086,5.942,10.555,12.028,9.998c0.969-0.084,1.909-0.299,2.791-0.625C357.88,446.239,360.962,441.613,360.476,436.514z"
					/>
			</g>
		</g>
		<path style="fill:#F88895;" d="M300.155,435.707l-11.068,2.063c-2.03-1.596-4.707-2.35-7.445-1.84
			c-5.046,0.941-8.374,5.793-7.433,10.839c0.94,5.046,5.793,8.374,10.839,7.433c2.738-0.51,4.963-2.178,6.282-4.399l11.069-2.063
			L300.155,435.707z"/>
		<path style="fill:#EDF1F7;" d="M286.36,455.536h-26.637v0c0-5.975,4.844-10.82,10.82-10.82h4.998
			C281.516,444.716,286.36,449.56,286.36,455.536L286.36,455.536z"/>
		<g>
			<path style="fill:#F88895;" d="M283.315,438.766l0.013,0.182c0.113,1.605-1.097,2.997-2.701,3.11l-9.301,0.654
				c-1.605,0.113-2.997-1.097-3.11-2.701l-0.013-0.182c-0.113-1.605,1.097-2.997,2.701-3.11l9.301-0.654
				C281.81,435.952,283.203,437.161,283.315,438.766z"/>
			<path style="fill:#F88895;" d="M260.133,447.18l-0.108-0.147c-0.951-1.297-0.671-3.12,0.627-4.072l7.706-5.649
				c1.297-0.951,3.12-0.671,4.072,0.627l0.108,0.147c0.951,1.297,0.671,3.12-0.627,4.072l-7.706,5.649
				C262.908,448.758,261.085,448.478,260.133,447.18z"/>
		</g>
		<g>
			<path style="fill:#F88895;" d="M285.228,440.828L285.228,440.828c0.175,1.65-1.021,3.129-2.671,3.304l-7.023,0.744
				c-1.65,0.175-3.129-1.021-3.303-2.671l0,0c-0.175-1.65,1.021-3.129,2.671-3.303l7.023-0.744
				C283.574,437.983,285.053,439.178,285.228,440.828z"/>
			<path style="fill:#F88895;" d="M264.08,449.162L264.08,449.162c-0.981-1.338-0.691-3.218,0.646-4.199l7.559-5.542
				c1.338-0.981,3.218-0.691,4.199,0.646v0c0.981,1.338,0.692,3.218-0.646,4.199l-7.559,5.542
				C266.941,450.789,265.061,450.5,264.08,449.162z"/>
		</g>
		<path style="fill:none;stroke:#342D3A;stroke-linecap:round;stroke-linejoin:round;stroke-miterlimit:10;" d="M280.102,438.35
			l-5.201,0.551c-0.053,0.006-0.101,0.024-0.153,0.032c-0.826-0.194-1.725-0.052-2.462,0.488l-7.559,5.542
			c-1.338,0.981-1.627,2.861-0.646,4.199c0.245,0.335,0.547,0.603,0.882,0.803"/>
		<g>
			<g>
				<path style="fill:#F88895;" d="M291.249,442.844L291.249,442.844c0.175,1.65-1.021,3.129-2.671,3.303l-7.023,0.744
					c-1.65,0.175-3.129-1.021-3.304-2.671l0,0c-0.175-1.65,1.021-3.129,2.671-3.303l7.023-0.744
					C289.596,439.998,291.075,441.194,291.249,442.844z"/>
				<path style="fill:#F88895;" d="M270.102,451.178L270.102,451.178c-0.981-1.338-0.691-3.218,0.646-4.199l7.559-5.542
					c1.338-0.981,3.218-0.691,4.199,0.646l0,0c0.981,1.338,0.691,3.218-0.647,4.199l-7.559,5.542
					C272.963,452.805,271.083,452.516,270.102,451.178z"/>
			</g>
			<path style="fill:none;stroke:#342D3A;stroke-linecap:round;stroke-linejoin:round;stroke-miterlimit:10;" d="M284.751,440.511
				l-3.828,0.405c-0.053,0.006-0.101,0.024-0.153,0.032c-0.825-0.194-1.725-0.052-2.462,0.488l-7.559,5.542
				c-1.338,0.981-1.627,2.861-0.646,4.199c0.245,0.335,0.547,0.603,0.882,0.803"/>
		</g>
		<g>
			<g>
				<path style="fill:#F88895;" d="M277.819,451.767L277.819,451.767c-0.79-1.077-0.557-2.591,0.52-3.381l6.086-4.462
					c1.077-0.79,2.591-0.557,3.381,0.52l0,0c0.79,1.077,0.557,2.591-0.521,3.381l-6.086,4.462
					C280.122,453.077,278.609,452.844,277.819,451.767z"/>
			</g>
			<path style="fill:none;stroke:#342D3A;stroke-linecap:round;stroke-linejoin:round;stroke-miterlimit:10;" d="M289.614,443.178
				l-3.082,0.326c-0.043,0.004-0.081,0.019-0.123,0.026c-0.665-0.156-1.389-0.042-1.982,0.393l-6.086,4.462
				c-1.077,0.79-1.31,2.303-0.521,3.381c0.197,0.269,0.44,0.486,0.71,0.647"/>
		</g>
		<g>
			<g>
				<path style="fill:#1A50C7;" d="M350.46,448.375l-27.79,2.78l-28.13,2.79c-0.25,0.03-0.5,0.04-0.75,0.05l-2.52-21.9
					c0.35-0.06,0.71-0.11,1.07-0.15l28.71-2.86l27.22-2.71c5.09-0.52,9.74,2.52,11.46,7.11c0.33,0.88,0.55,1.82,0.64,2.79
					C360.97,442.355,356.54,447.775,350.46,448.375z"/>
			</g>
			<line style="fill:none;" x1="293.79" y1="453.995" x2="291.27" y2="432.095"/>
		</g>
		<g>
			<path style="fill:none;stroke:#342D3A;stroke-linecap:round;stroke-linejoin:round;stroke-miterlimit:10;" d="M292.34,431.945
				l28.71-2.86l27.22-2.71c4.555-0.465,8.758,1.92,10.823,5.716"/>
		</g>
	</g>
	<g>
		<path style="fill:#50D1F1;" d="M395.54,191.195c0,15.35-2.5,30.12-7.12,43.92c-0.71,2.13-1.47,4.25-2.29,6.34H128.17
			c-0.82-2.09-1.58-4.21-2.29-6.34c-4.62-13.8-7.12-28.57-7.12-43.92c0-76.43,61.96-138.39,138.39-138.39
			S395.54,114.765,395.54,191.195z"/>
		<g>
			
				<rect x="231.275" y="166.799" transform="matrix(0.9988 0.0488 -0.0488 0.9988 8.6676 -11.382)" style="fill:#F88895;" width="12.305" height="10.03"/>
			<path style="fill:#F88895;" d="M229.071,166.158c1.564-1.482,1.63-3.951,0.148-5.514c-1.482-1.564-3.951-1.63-5.514-0.148
				c-1.564,1.482-1.63,3.951-0.148,5.514C225.038,167.573,227.507,167.64,229.071,166.158z"/>
			<path style="fill:#F88895;" d="M235.118,172.253c5.884,0.95,11.424-3.049,12.374-8.933c0.95-5.884-3.049-11.424-8.933-12.374
				c-5.884-0.95-11.424,3.049-12.375,8.933C225.234,165.762,229.234,171.302,235.118,172.253z"/>
			<g>
				<path style="fill:#1A50C7;" d="M237.264,172.141l1.896,0.053c5.789,0.162,10.613-4.4,10.775-10.188l0.346-12.377l-22.859-0.639
					l-0.346,12.377C226.914,167.156,231.475,171.98,237.264,172.141z"/>
				<path style="fill:none;stroke:#1A50C7;stroke-miterlimit:10;" d="M237.368,160.706c0.137-4.891-3.718-8.968-8.609-9.105
					c-4.891-0.137-8.968,3.718-9.105,8.609c-0.137,4.891,3.718,8.968,8.609,9.105C233.155,169.452,237.232,165.598,237.368,160.706z
					"/>
			</g>
			<g>
				<path style="fill:#F88895;" d="M236.852,154.84L236.852,154.84c-0.267-1.511-1.709-2.52-3.22-2.253l-7.106,1.256
					c-1.511,0.267-2.52,1.709-2.253,3.22l0,0c0.267,1.512,1.709,2.52,3.22,2.253l7.106-1.256
					C236.111,157.794,237.119,156.352,236.852,154.84z"/>
				<g>
					<path style="fill:#F88895;" d="M224.322,166.275L224.322,166.275c1.471,0.437,3.018-0.402,3.455-1.873l2.062-6.943
						c0.437-1.471-0.402-3.018-1.873-3.455l0,0c-1.471-0.437-3.018,0.402-3.455,1.873l-2.062,6.943
						C222.012,164.291,222.85,165.838,224.322,166.275z"/>
				</g>
			</g>
			<path style="fill:#F88895;" d="M238.79,169.66L238.79,169.66c-0.206,1.276,0.661,2.477,1.937,2.684l5.723,0.924
				c0.791,0.128,1.536-0.41,1.664-1.201l0.284-1.756c0.128-0.791-0.41-1.536-1.201-1.664l-5.723-0.924
				C240.198,167.516,238.996,168.384,238.79,169.66z"/>
			<path style="fill:#F88895;" d="M236.376,164.462L236.376,164.462c-0.206,1.276,0.661,2.478,1.937,2.684l8.894,1.437
				c0.791,0.128,1.536-0.41,1.664-1.201l0.284-1.756c0.128-0.791-0.41-1.536-1.201-1.664l-8.894-1.437
				C237.783,162.319,236.582,163.186,236.376,164.462z"/>
			<path style="fill:#F88895;" d="M237.132,159.777L237.132,159.777c-0.206,1.276,0.661,2.478,1.937,2.684l8.894,1.437
				c0.791,0.128,1.536-0.41,1.664-1.201l0.284-1.756c0.128-0.791-0.41-1.536-1.201-1.664l-8.894-1.436
				C238.54,157.634,237.339,158.502,237.132,159.777z"/>
			<path style="fill:#F88895;" d="M237.889,155.092L237.889,155.092c-0.206,1.276,0.661,2.478,1.937,2.684l8.894,1.436
				c0.791,0.128,1.536-0.41,1.664-1.201l0.284-1.756c0.128-0.791-0.41-1.536-1.201-1.664l-8.894-1.436
				C239.297,152.949,238.095,153.816,237.889,155.092z"/>
			<path style="fill:none;stroke:#342D3A;stroke-linecap:round;stroke-linejoin:round;stroke-miterlimit:10;" d="M247.316,168.666
				l-6.035-0.975c-1.17-0.189-2.271,0.606-2.46,1.776l-0.062,0.385c-0.189,1.17,0.606,2.271,1.776,2.46l6.035,0.975"/>
			<path style="fill:none;stroke:#342D3A;stroke-linecap:round;stroke-linejoin:round;stroke-miterlimit:10;" d="M248.073,163.981
				l-9.206-1.487c-1.17-0.189-2.271,0.606-2.46,1.776l-0.062,0.385c-0.189,1.17,0.606,2.271,1.776,2.46l9.206,1.487"/>
			<path style="fill:none;stroke:#342D3A;stroke-linecap:round;stroke-linejoin:round;stroke-miterlimit:10;" d="M248.83,159.296
				l-9.206-1.487c-1.17-0.189-2.271,0.606-2.46,1.776l-0.062,0.385c-0.189,1.17,0.606,2.271,1.776,2.46l9.206,1.487"/>
			<path style="fill:none;stroke:#342D3A;stroke-linecap:round;stroke-linejoin:round;stroke-miterlimit:10;" d="M249.586,154.611
				l-9.206-1.487c-1.17-0.189-2.271,0.606-2.46,1.776l-0.062,0.385c-0.189,1.17,0.606,2.271,1.776,2.46l9.206,1.487"/>
			<path style="fill:none;stroke:#342D3A;stroke-linecap:round;stroke-linejoin:round;stroke-miterlimit:10;" d="M227.777,164.402
				l1.61-5.42l5.212-0.921c1.512-0.267,2.52-1.709,2.253-3.22"/>
		</g>
		<g>
			<g>
				<path style="fill:#FEFEFE;" d="M221.478,224.269l-11.281-24.917l-11.909-26.282c-2.525-5.564-0.055-12.112,5.515-14.623
					c0.899-0.411,1.822-0.689,2.74-0.847c4.828-0.802,9.784,1.691,11.898,6.357l11.665,25.741l11.515,25.452
					c2.526,5.565,0.055,12.112-5.51,14.638c-0.884,0.406-1.807,0.684-2.735,0.837C228.544,231.438,223.577,228.941,221.478,224.269z
					"/>
			</g>
		</g>
		<g>
			<path style="fill:#FEFEFE;" d="M215.773,221.259c-0.213-2.402-0.194-4.823,0.046-7.215l4.12-40.411
				c0.397-10.255-6.901-18.81-16.057-18.81h-35.514c-9.146,0-16.454,8.555-16.048,18.81l6.245,32.881
				c0.952,5.007,1.072,10.135,0.37,15.17c-0.203,1.543-0.499,3.077-0.868,4.601l-3.187,13.174h62.501l-1.57-17.775L215.773,221.259z
				"/>
			<line style="fill:none;" x1="216.244" y1="221.684" x2="215.81" y2="221.684"/>
			<path style="fill:#DD6F7F;" d="M206.017,125.208c-2.102,2.786-2.126,6.313-0.053,7.877c2.073,1.564,5.458,0.573,7.56-2.213
				c2.102-2.786,2.126-6.313,0.053-7.877C211.504,121.43,208.12,122.421,206.017,125.208z"/>
			<g>
				<path style="fill:#342D3A;" d="M209.774,113.373c-0.017-2.309-0.438-4.515-1.18-6.567c-2.68-7.302-9.623-12.519-17.747-12.519
					c-10.449,0-18.926,8.602-18.926,19.205c0,5.644,2.824,11.556,6.633,15.062c0.236,0.218,0.305,3.947,0.305,3.947
					c0,8.38,6.695,15.174,14.953,15.174c8.815,0,15.962-7.252,15.962-16.197v-16.929c0-0.072-0.027-0.136-0.041-0.204
					c0.013-0.284,0.041-0.563,0.041-0.852V113.373z"/>
				<path style="fill:#F88895;" d="M211.917,113.987c0,0.29-0.03,0.56-0.04,0.84c0.02,0.07,0.04,0.13,0.04,0.2v16.69
					c0,2.31-0.49,4.51-1.38,6.49c-2.48,5.58-8.07,9.47-14.58,9.47c-8.26,0-14.95-6.7-14.95-14.96c0,0-0.07-3.67-0.31-3.88
					c-3.81-3.46-6.63-9.29-6.63-14.85c0-10.45,8.48-18.92,18.93-18.92c8.12,0,15.06,5.14,17.74,12.33c0.74,2.03,1.17,4.2,1.18,6.47
					V113.987z"/>
				<path style="fill:#F88895;" d="M192.614,167.996h-1.069c-5.06,0-9.161-4.102-9.161-9.161v-19.648
					c0-5.06,4.102-9.161,9.161-9.161h0c5.06,0,9.161,4.102,9.161,9.161v20.718C200.707,164.373,197.084,167.996,192.614,167.996z"/>
				<path style="fill:#342D3A;" d="M200.622,146.837v10.179l-9.775-10.011c1.433,0.455,2.983,0.708,4.567,0.708
					C197.235,147.713,198.988,147.41,200.622,146.837z"/>
				<path style="fill:#342D3A;" d="M210.517,106.397c-0.29,0.44-0.61,0.85-0.97,1.23c-4.761,4.979-12.443,3.681-18.095,6.905
					c-2.592,1.479-4.608,3.748-6.259,6.2c-1.764,2.62-0.832,4.823-0.373,7.966c0.333,2.276-3.475,3.693-4.953,0.99
					c-2.83-5.27-6.69-9.81-6.69-16.07c0-10.67,8.66-19.33,19.34-19.33c6.9,0,12.28,3.5,15.98,8.75c0.69,0.98,1.33,2.02,1.9,3.11
					C210.437,106.227,210.487,106.317,210.517,106.397z"/>
				<path style="fill:#DD6F7F;" d="M211.917,130.687v1.03c0,2.31-0.49,4.51-1.38,6.49c-1.02-0.79-1.67-2.02-1.67-3.41
					C208.867,132.857,210.147,131.217,211.917,130.687z"/>
				<path style="fill:#342D3A;" d="M212.007,112.717c-0.29-0.39-0.59-0.78-0.89-1.15c-2.08-2.55-4.44-4.92-5.9-7.87
					c-0.78-1.59-1.25-3.42-1.21-5.18c1.84,1.3,3.45,2.92,4.72,4.78c0.88,1.27,1.6,2.64,2.14,4.1c0.49,1.34,0.84,2.74,1.03,4.19
					C211.946,111.957,211.976,112.337,212.007,112.717z"/>
			</g>
			<path style="fill:#F88895;" d="M181.637,124.911c2.266,3.004,2.451,6.685,0.414,8.222c-2.037,1.537-5.526,0.348-7.792-2.656
				c-2.266-3.004-2.451-6.685-0.414-8.222C175.882,120.719,179.37,121.908,181.637,124.911z"/>
			
				<line style="fill:none;stroke:#342D3A;stroke-linecap:round;stroke-linejoin:round;stroke-miterlimit:10;" x1="175.376" y1="125.746" x2="180.126" y2="129.871"/>
			<path style="fill:#342D3A;" d="M196.604,124.121c0-0.849-0.688-1.537-1.536-1.537c-0.849,0-1.537,0.688-1.537,1.537
				c0,0.849,0.688,1.536,1.537,1.536C195.916,125.658,196.604,124.97,196.604,124.121z"/>
			<path style="fill:#342D3A;" d="M210.287,124.121c0-0.849-0.688-1.537-1.537-1.537c-0.849,0-1.537,0.688-1.537,1.537
				c0,0.849,0.688,1.536,1.537,1.536C209.599,125.658,210.287,124.97,210.287,124.121z"/>
			<path style="fill:none;stroke:#342D3A;stroke-linecap:round;stroke-linejoin:round;stroke-miterlimit:10;" d="M201.751,126.746
				l2.305,2.291c1.321,1.313,1.22,3.479-0.217,4.663l-1.338,1.102"/>
			<path style="fill:#342D3A;" d="M190.771,120.625c0.525-0.564,1.08-0.919,1.645-1.198c0.566-0.278,1.141-0.487,1.73-0.605
				c0.587-0.126,1.187-0.169,1.796-0.139c0.61,0.031,1.23,0.135,1.88,0.447l0.381,0.183c0.242,0.116,0.344,0.407,0.228,0.649
				c-0.085,0.178-0.265,0.28-0.451,0.276c-0.608-0.015-1.213-0.014-1.815,0.01c-0.603,0.018-1.201,0.066-1.802,0.098
				c-0.597,0.058-1.196,0.102-1.792,0.173c-0.596,0.067-1.189,0.154-1.779,0.258c-0.036,0.006-0.071-0.018-0.077-0.054
				c-0.004-0.021,0.003-0.042,0.016-0.057L190.771,120.625z"/>
			<path style="fill:#342D3A;" d="M212.114,120.71c-0.416-0.564-0.856-0.919-1.304-1.198c-0.449-0.278-0.905-0.486-1.371-0.605
				c-0.466-0.126-0.941-0.169-1.424-0.139c-0.483,0.031-0.975,0.135-1.49,0.447l-0.302,0.183c-0.192,0.116-0.273,0.407-0.181,0.649
				c0.068,0.178,0.21,0.28,0.357,0.276c0.482-0.015,0.961-0.014,1.439,0.01c0.478,0.018,0.952,0.066,1.429,0.098
				c0.473,0.058,0.948,0.102,1.42,0.173c0.472,0.067,0.942,0.154,1.41,0.259c0.029,0.006,0.056-0.018,0.061-0.054
				c0.003-0.021-0.002-0.042-0.013-0.057L212.114,120.71z"/>
			<path style="fill:none;stroke:#342D3A;stroke-linecap:round;stroke-linejoin:round;stroke-miterlimit:10;" d="M198.626,137.689
				c1.626,1.115,3.76,1.454,5.651,0.896"/>
			<path style="fill:none;stroke:#342D3A;stroke-linecap:round;stroke-linejoin:round;stroke-miterlimit:10;" d="M190.487,122.709
				l0.94,1.752c1.016-1.063,2.296-1.685,3.596-1.747c1.3-0.062,2.611,0.437,3.684,1.4"/>
			<path style="fill:none;stroke:#342D3A;stroke-linecap:round;stroke-linejoin:round;stroke-miterlimit:10;" d="M213.175,121.885
				l-0.785,2.229c-1.072-0.963-2.384-1.462-3.684-1.4c-1.3,0.062-2.58,0.684-3.596,1.747"/>
			<path style="fill:#DD6F7F;" d="M184.821,134.802c0-2.38,1.929-4.309,4.309-4.309c2.38,0,4.309,1.929,4.309,4.309
				c0,2.38-1.929,4.309-4.309,4.309C186.75,139.111,184.821,137.182,184.821,134.802z"/>
			<circle style="fill:#342D3A;" cx="170.154" cy="98.781" r="16"/>
			<g>
				<g>
					<line style="fill:none;stroke:#F8D145;stroke-miterlimit:10;" x1="189.032" y1="120.981" x2="177.751" y2="120.981"/>
					<circle style="fill:none;stroke:#F8D145;stroke-miterlimit:10;" cx="194.984" cy="124.204" r="6.767"/>
					<path style="fill:none;stroke:#F8D145;stroke-miterlimit:10;" d="M202.919,124.204c0-3.737,2.759-6.767,6.162-6.767
						c3.403,0,6.162,3.03,6.162,6.767c0,3.737-2.759,6.767-6.162,6.767C205.678,130.971,202.919,127.941,202.919,124.204z"/>
				</g>
				<line style="fill:none;stroke:#F8D145;stroke-miterlimit:10;" x1="200.866" y1="120.863" x2="203.662" y2="120.863"/>
			</g>
		</g>
		<rect x="83.43" y="235.115" style="fill:#322D38;" width="347.44" height="6.34"/>
		<g>
			<path style="fill:#D7D8DB;" d="M349.126,189.254h-82.788c-6.242,0-11.065-5.482-10.27-11.673l7.341-57.176
				c0.663-5.166,5.061-9.035,10.27-9.035h82.789c6.242,0,11.065,5.482,10.27,11.673l-7.341,57.176
				C358.732,185.384,354.335,189.254,349.126,189.254z"/>
			<path style="fill:#EDF1F7;" d="M352.126,192.254h-82.788c-6.242,0-11.065-5.482-10.27-11.673l7.341-57.176
				c0.663-5.166,5.061-9.035,10.27-9.035h82.789c6.242,0,11.065,5.482,10.27,11.673l-7.341,57.176
				C361.732,188.384,357.335,192.254,352.126,192.254z"/>
			<circle style="fill:#D7D8DB;" cx="316.976" cy="145.717" r="6.732"/>
			<polygon style="fill:#D7D8DB;" points="338.598,230.651 309.399,230.651 299.399,173.094 328.598,173.094 			"/>
			<polygon style="fill:#C2C3C6;" points="299.399,173.094 294.671,191.978 302.68,191.978 			"/>
			<rect x="289.25" y="230.134" style="fill:#EDF1F7;" width="68.046" height="4.843"/>
		</g>
		<g>
			<g>
				<path style="fill:#FEFEFE;" d="M124.068,204.505l16.065-22.136l16.94-23.358c3.585-4.949,10.496-6.044,15.436-2.447
					c0.802,0.577,1.501,1.242,2.092,1.961c3.087,3.798,3.374,9.338,0.367,13.485l-16.592,22.878l-16.415,22.604
					c-3.585,4.949-10.497,6.044-15.446,2.459c-0.79-0.567-1.489-1.232-2.081-1.962C121.337,214.193,121.049,208.642,124.068,204.505
					z"/>
			</g>
		</g>
		<path style="fill:#F88895;" d="M187.915,204.356c-1.828-2.022-4.949-2.18-6.971-0.352c-2.022,1.828-2.18,4.949-0.352,6.971
			c1.828,2.022,4.949,2.18,6.971,0.352C189.585,209.499,189.743,206.378,187.915,204.356z"/>
		<path style="fill:#F88895;" d="M185.872,208.052l8.073,0.407c1.387,0.07,2.569-0.998,2.639-2.385l0,0
			c0.07-1.387-0.998-2.569-2.385-2.639l-8.072-0.407c-1.387-0.07-2.569,0.998-2.639,2.385l0,0
			C183.417,206.8,184.485,207.982,185.872,208.052z"/>
		
			<rect x="172.972" y="209.906" transform="matrix(0.3094 0.9509 -0.9509 0.3094 336.2759 -41.1774)" style="fill:#34322A;" width="47.033" height="2.058"/>
		<path style="fill:#F88895;" d="M179.74,225.875c-3.744-1.228-6.045-5.757-5.943-9.499c0.154-5.659,4.867-10.122,10.526-9.967
			c0.194,0.005,0.383,0.029,0.573,0.044l0.001-0.029l16.618,0.453c1.354,0.037,2.421,1.164,2.385,2.518l-0.004,0.161
			c-0.037,1.354-1.165,2.422-2.518,2.385l-0.681-0.019c1.354,0.037,2.421,1.164,2.385,2.518l-0.004,0.161
			c-0.037,1.354-1.164,2.421-2.518,2.384l-1.671-0.046c1.354,0.037,2.422,1.165,2.385,2.519l-0.004,0.161
			c-0.037,1.354-1.165,2.421-2.518,2.384l-2.292-0.063c1.354,0.037,2.421,1.164,2.385,2.518l-0.004,0.161
			c-0.037,1.354-1.164,2.422-2.518,2.385c-5.81-0.158-6.891,0.161-12.667-0.471c-1.026-0.112-2.048-0.261-3.064-0.446
			C180.297,226.038,180.015,225.965,179.74,225.875z"/>
		<g>
			
				<line style="fill:none;stroke:#342D3A;stroke-linecap:round;stroke-linejoin:round;stroke-miterlimit:10;" x1="197.74" y1="211.979" x2="201.541" y2="212.083"/>
			
				<line style="fill:none;stroke:#342D3A;stroke-linecap:round;stroke-linejoin:round;stroke-miterlimit:10;" x1="196.259" y1="216.989" x2="200.344" y2="217.1"/>
			
				<line style="fill:none;stroke:#342D3A;stroke-linecap:round;stroke-linejoin:round;stroke-miterlimit:10;" x1="194.227" y1="221.87" x2="198.749" y2="221.994"/>
		</g>
		<path style="fill:#3C393F;" d="M231.232,235.329h-48.916c-1.221,0-2.211-0.99-2.211-2.211l0,0c0-1.221,0.99-2.211,2.211-2.211
			h48.916c1.221,0,2.211,0.99,2.211,2.211l0,0C233.442,234.34,232.453,235.329,231.232,235.329z"/>
		<path style="fill:none;stroke:#342D3A;stroke-linecap:round;stroke-linejoin:round;stroke-miterlimit:10;" d="M184.323,206.409
			c0.194,0.005,0.383,0.029,0.573,0.044l0.001-0.029l16.618,0.453"/>
		<path style="fill:#342D3A;" d="M175.454,171.405l-17.01,34.04l-1.59-8.35l1.6-2.21l16.59-22.87
			C175.184,171.815,175.324,171.615,175.454,171.405z"/>
		<g>
			<g>
				<path style="fill:#FEFEFE;" d="M123.126,210.507L123.126,210.507c0.399-6.097,5.665-10.716,11.762-10.316l45.217-0.024
					l-2.028,28.139l-45.237-6.133"/>
			</g>
		</g>
		<g>
			<g>
				<path style="fill:#FEFEFE;" d="M229.701,230.238L229.701,230.238c-6.032-0.971-10.135-6.648-9.164-12.68l4.231-45.019
					l27.823,4.667l-10.363,44.459"/>
			</g>
		</g>
		<g>
			<g>
				
					<line style="fill:none;stroke:#342D3A;stroke-linecap:round;stroke-linejoin:round;stroke-miterlimit:10;" x1="178.077" y1="228.305" x2="158.222" y2="225.613"/>
				<path style="fill:none;stroke:#342D3A;stroke-linecap:round;stroke-linejoin:round;stroke-miterlimit:10;" d="M123.126,210.507
					L123.126,210.507c0.399-6.097,5.665-10.716,11.762-10.316l18.545-0.01"/>
			</g>
		</g>
		
			<line style="fill:none;stroke:#342D3A;stroke-linecap:round;stroke-linejoin:round;stroke-miterlimit:10;" x1="216.051" y1="211.773" x2="218.449" y2="188.254"/>
		<g>
			<g>
				
					<line style="fill:none;stroke:#342D3A;stroke-linecap:round;stroke-linejoin:round;stroke-miterlimit:10;" x1="221.541" y1="206.878" x2="224.768" y2="172.539"/>
				<path style="fill:none;stroke:#342D3A;stroke-linecap:round;stroke-linejoin:round;stroke-miterlimit:10;" d="M229.701,230.238
					L229.701,230.238c-6.032-0.971-10.135-6.648-9.164-12.68l1.004-10.68"/>
			</g>
		</g>
		<g>
			<g>
				<path style="fill:none;stroke:#342D3A;stroke-linecap:round;stroke-linejoin:round;stroke-miterlimit:10;" d="M238.506,134.802
					c0,0.924-2,0.924-2,1.849c0,0.923,2,0.923,2,1.846c0,0.925-2,0.925-2,1.851c0,0.927,2,0.927,2,1.854c0,0.927-2,0.927-2,1.854"/>
			</g>
			<g>
				<path style="fill:none;stroke:#342D3A;stroke-linecap:round;stroke-linejoin:round;stroke-miterlimit:10;" d="M242.024,134.802
					c0,0.924-2,0.924-2,1.849c0,0.923,2,0.923,2,1.846c0,0.925-2,0.925-2,1.851c0,0.927,2,0.927,2,1.854c0,0.927-2,0.927-2,1.854"/>
			</g>
		</g>
		<g>
			
				<ellipse transform="matrix(0.9919 -0.1269 0.1269 0.9919 -8.8542 53.216)" style="fill:#50D1F1;" cx="413.248" cy="96.102" rx="40.326" ry="40.326"/>
			<g>
				<g>
					<polyline style="fill:#EDF1F7;" points="434.749,81.583 415.439,126.41 400.745,120.08 423.33,67.647 438.025,73.977 
						434.749,81.583 					"/>
					<g>
						
							<rect x="406.081" y="113.635" transform="matrix(-0.9184 -0.3956 0.3956 -0.9184 741.5413 387.2858)" style="fill:#F1317B;" width="9.245" height="7.096"/>
						
							<rect x="420.058" y="81.187" transform="matrix(-0.9184 -0.3956 0.3956 -0.9184 781.1917 330.567)" style="fill:#F67DBE;" width="9.245" height="7.096"/>
						
							<rect x="416.564" y="89.299" transform="matrix(-0.9184 -0.3956 0.3956 -0.9184 771.2787 344.7472)" style="fill:#F662B6;" width="9.245" height="7.096"/>
						
							<rect x="413.069" y="97.411" transform="matrix(-0.9184 -0.3956 0.3956 -0.9184 761.3658 358.9273)" style="fill:#EF4BB0;" width="9.245" height="7.096"/>
						
							<rect x="409.575" y="105.523" transform="matrix(-0.9184 -0.3956 0.3956 -0.9184 751.4528 373.1075)" style="fill:#E83497;" width="9.245" height="7.096"/>
					</g>
				</g>
				<g>
					
						<rect x="404.956" y="65.714" transform="matrix(-0.8466 -0.5323 0.5323 -0.8466 712.3804 393.8636)" style="fill:#EDF1F7;" width="16" height="57.09"/>
					<g>
						
							<rect x="396.653" y="109.289" transform="matrix(-0.8466 -0.5323 0.5323 -0.8466 680.9224 421.9518)" style="fill:#1A50C7;" width="9.245" height="7.096"/>
						
							<rect x="415.459" y="79.379" transform="matrix(-0.8466 -0.5323 0.5323 -0.8466 731.5703 376.7292)" style="fill:#7C9FC1;" width="9.245" height="7.096"/>
						
							<rect x="410.757" y="86.857" transform="matrix(-0.8466 -0.5323 0.5323 -0.8466 718.9058 388.0374)" style="fill:#5884BA;" width="9.245" height="7.096"/>
						
							<rect x="406.056" y="94.334" transform="matrix(-0.8466 -0.5323 0.5323 -0.8466 706.244 399.3428)" style="fill:#4778BF;" width="9.245" height="7.096"/>
						
							<rect x="401.354" y="101.812" transform="matrix(-0.8466 -0.5323 0.5323 -0.8466 693.5822 410.6482)" style="fill:#3065C4;" width="9.245" height="7.096"/>
					</g>
				</g>
				<g>
					
						<rect x="398.961" y="58.233" transform="matrix(-0.6578 -0.7532 0.7532 -0.6578 609.2874 450.388)" style="fill:#EDF1F7;" width="16" height="57.09"/>
					<g>
						
							<rect x="385.809" y="97.665" transform="matrix(-0.6578 -0.7532 0.7532 -0.6578 571.0101 461.869)" style="fill:#FFC200;" width="9.245" height="7.096"/>
						
							<rect x="412.421" y="74.425" transform="matrix(-0.6578 -0.7532 0.7532 -0.6578 632.6342 443.3855)" style="fill:#FFE8BB;" width="9.245" height="7.097"/>
						
							<rect x="405.768" y="80.235" transform="matrix(-0.6578 -0.7532 0.7532 -0.6578 617.2288 448.006)" style="fill:#FFE19F;" width="9.245" height="7.097"/>
						
							<rect x="399.115" y="86.045" transform="matrix(-0.6578 -0.7532 0.7532 -0.6578 601.8234 452.6266)" style="fill:#FFD05C;" width="9.245" height="7.097"/>
						
							<rect x="392.462" y="91.855" transform="matrix(-0.6578 -0.7532 0.7532 -0.6578 586.4181 457.2471)" style="fill:#FFC82E;" width="9.245" height="7.097"/>
					</g>
				</g>
				<path style="fill:#D7D8DB;" d="M426.475,73.138c-0.437,1.015-1.614,1.483-2.628,1.046c-1.014-0.437-1.483-1.614-1.046-2.628
					c0.437-1.015,1.614-1.483,2.628-1.046C426.444,70.947,426.912,72.124,426.475,73.138z"/>
				<path style="fill:none;stroke:#342D3A;stroke-linecap:round;stroke-linejoin:round;stroke-miterlimit:10;" d="M424.364,71.491
					c-0.201-1.946,0.078-3.97,0.907-5.895c2.589-6.011,9.561-8.785,15.572-6.196c6.011,2.589,8.785,9.561,6.196,15.572
					c-2.097,4.867-7.067,7.612-12.074,7.106"/>
			</g>
		</g>
		<g>
			<g>
				<rect x="351.964" y="222.061" style="fill:#F67DBF;" width="70.906" height="13.054"/>
				<rect x="351.964" y="225.231" style="fill:#FEFEFE;" width="70.906" height="7.133"/>
				<line style="fill:none;stroke:#D7D8DB;stroke-miterlimit:10;" x1="351.964" y1="228.588" x2="377.86" y2="228.588"/>
				<line style="fill:none;stroke:#D7D8DB;stroke-miterlimit:10;" x1="396.974" y1="228.588" x2="422.87" y2="228.588"/>
			</g>
			<g>
				<rect x="356.964" y="197.251" style="fill:#1A50C7;" width="70.906" height="13.054"/>
				<rect x="356.964" y="200.422" style="fill:#FEFEFE;" width="70.906" height="7.133"/>
				<line style="fill:none;stroke:#D7D8DB;stroke-miterlimit:10;" x1="356.964" y1="203.779" x2="382.86" y2="203.779"/>
				<line style="fill:none;stroke:#D7D8DB;stroke-miterlimit:10;" x1="401.974" y1="203.779" x2="427.87" y2="203.779"/>
			</g>
			<rect x="345.182" y="210.306" style="fill:#F6CF44;" width="77.688" height="11.755"/>
			<g>
				<path style="fill:#FEFEFE;" d="M374.624,212.381c1.195,0,1.781,0.663,1.781,1.88v3.846c0,1.217-0.586,1.879-1.781,1.879h-1.89
					v-7.604H374.624z M373.929,218.899h0.674c0.38,0,0.608-0.195,0.608-0.739v-3.954c0-0.543-0.228-0.739-0.608-0.739h-0.674
					V218.899z"/>
				<path style="fill:#FEFEFE;" d="M380.004,215.585v1.086h-1.641v2.227h2.064v1.086h-3.259v-7.604h3.259v1.087h-2.064v2.118
					H380.004z"/>
				<path style="fill:#FEFEFE;" d="M382.776,212.294c1.162,0,1.759,0.695,1.759,1.912v0.239h-1.13v-0.315
					c0-0.543-0.217-0.75-0.597-0.75c-0.38,0-0.598,0.206-0.598,0.75c0,1.564,2.336,1.858,2.336,4.03
					c0,1.217-0.609,1.912-1.781,1.912c-1.174,0-1.782-0.695-1.782-1.912v-0.467h1.13v0.543c0,0.544,0.239,0.739,0.619,0.739
					c0.38,0,0.619-0.195,0.619-0.739c0-1.564-2.336-1.858-2.336-4.03C381.016,212.989,381.614,212.294,382.776,212.294z"/>
				<path style="fill:#FEFEFE;" d="M386.428,212.381v7.604h-1.195v-7.604H386.428z"/>
				<path style="fill:#FEFEFE;" d="M390.764,215.749v2.411c0,1.217-0.609,1.912-1.781,1.912c-1.174,0-1.781-0.695-1.781-1.912
					v-3.954c0-1.217,0.608-1.912,1.781-1.912c1.173,0,1.781,0.695,1.781,1.912v0.739h-1.129v-0.815c0-0.543-0.239-0.75-0.619-0.75
					c-0.38,0-0.619,0.206-0.619,0.75v4.106c0,0.544,0.239,0.739,0.619,0.739c0.38,0,0.619-0.195,0.619-0.739v-1.401h-0.543v-1.086
					H390.764z"/>
				<path style="fill:#FEFEFE;" d="M392.602,219.985h-1.076v-7.604h1.499l1.228,4.552v-4.552h1.064v7.604h-1.228l-1.488-5.507
					V219.985z"/>
			</g>
			<rect x="398.567" y="213.467" style="fill:#FEFEFE;" width="24.303" height="1.712"/>
			<rect x="345.182" y="213.467" style="fill:#FEFEFE;" width="24.303" height="1.712"/>
		</g>
		<g>
			
				<ellipse transform="matrix(0.9324 -0.3616 0.3616 0.9324 -27.748 36.4119)" style="fill:#50D1F1;" cx="83.43" cy="92.357" rx="28.962" ry="28.962"/>
			<g>
				<g>
					<circle style="fill:#F6CF44;" cx="83.824" cy="85.161" r="15.131"/>
					<rect x="78.551" y="90.508" style="fill:#F6CF44;" width="10.545" height="17.865"/>
					
						<line style="fill:none;stroke:#342D3A;stroke-linecap:round;stroke-linejoin:round;stroke-miterlimit:10;" x1="83.824" y1="87.158" x2="83.824" y2="108.374"/>
					
						<line style="fill:none;stroke:#342D3A;stroke-linecap:round;stroke-linejoin:round;stroke-miterlimit:10;" x1="78.438" y1="110.832" x2="89.209" y2="110.832"/>
					
						<line style="fill:none;stroke:#342D3A;stroke-linecap:round;stroke-linejoin:round;stroke-miterlimit:10;" x1="78.438" y1="112.973" x2="89.209" y2="112.973"/>
					
						<line style="fill:none;stroke:#342D3A;stroke-linecap:round;stroke-linejoin:round;stroke-miterlimit:10;" x1="80.192" y1="115.113" x2="87.455" y2="115.113"/>
				</g>
				<path style="fill:none;stroke:#342D3A;stroke-linecap:round;stroke-linejoin:round;stroke-miterlimit:10;" d="M77.957,88.893
					c2.086-1.68,2.506-5.072,0.893-7.21c-1.159,0.562-0.936,2.479,0.149,3.174c1.085,0.694,2.521,0.462,3.718-0.013
					c0.837-0.332,1.698-0.846,1.988-1.698c0.29-0.852-0.391-2.005-1.274-1.833c0.185,2.544,3.085,4.5,5.513,3.72
					c0.823-0.264,1.617-0.876,1.752-1.73c0.135-0.854-0.727-1.802-1.537-1.5c-0.724,0.27-0.886,1.204-0.934,1.975
					c-0.076,1.206-0.135,2.489,0.455,3.543c0.59,1.055,2.091,1.689,3.048,0.952"/>
			</g>
		</g>
		<g>
			
				<line style="fill:none;stroke:#342D3A;stroke-linecap:round;stroke-linejoin:round;stroke-miterlimit:10;" x1="388.983" y1="151.693" x2="388.983" y2="191.074"/>
			<path style="fill:none;stroke:#342D3A;stroke-linecap:round;stroke-linejoin:round;stroke-miterlimit:10;" d="M383.821,148.77
				c0-6.53,5.162-11.823,5.162-11.823s5.161,5.293,5.161,11.823s-5.161,11.823-5.161,11.823S383.821,155.299,383.821,148.77z"/>
			<path style="fill:none;stroke:#342D3A;stroke-linecap:round;stroke-linejoin:round;stroke-miterlimit:10;" d="M392.695,159.561
				c3.638-3.639,9.464-3.712,9.464-3.712s-0.073,5.826-3.712,9.464c-3.638,3.639-9.464,3.712-9.464,3.712
				S389.056,163.199,392.695,159.561z"/>
			<path style="fill:none;stroke:#342D3A;stroke-linecap:round;stroke-linejoin:round;stroke-miterlimit:10;" d="M385.498,159.561
				c-3.638-3.639-9.464-3.712-9.464-3.712s0.073,5.826,3.712,9.464c3.638,3.639,9.464,3.712,9.464,3.712
				S389.137,163.199,385.498,159.561z"/>
			<g>
				<rect x="378.21" y="175.963" style="fill:#F1317B;" width="21.545" height="21.545"/>
				<rect x="375.749" y="172.721" style="fill:#F67DBE;" width="26.468" height="6.483"/>
			</g>
		</g>
		<g>
			<circle style="fill:#87E3FB;" cx="246.411" cy="72.876" r="30.268"/>
			<g>
				<g>
					
						<rect x="229.638" y="54.932" style="fill:none;stroke:#342D3A;stroke-linecap:round;stroke-linejoin:round;stroke-miterlimit:10;" width="33.546" height="33.546"/>
					<g>
						<rect x="260.823" y="52.571" style="fill:#FFDD4D;" width="4.722" height="4.722"/>
						<rect x="227.277" y="52.571" style="fill:#FFDD4D;" width="4.722" height="4.722"/>
					</g>
					<g>
						<rect x="260.823" y="86.117" style="fill:#FFDD4D;" width="4.722" height="4.722"/>
						<rect x="227.277" y="86.117" style="fill:#FFDD4D;" width="4.722" height="4.722"/>
					</g>
				</g>
				<polygon style="fill:#EDF1F7;" points="248.883,82.231 243.938,82.231 237.852,74.96 237.852,68.124 246.411,55.952 
					254.97,68.124 254.97,74.706 				"/>
				
					<line style="fill:none;stroke:#342D3A;stroke-linecap:round;stroke-linejoin:round;stroke-miterlimit:10;" x1="246.411" y1="57.293" x2="246.411" y2="75.135"/>
				<path style="fill:#342D3A;" d="M244.47,75.135c0-1.072,0.869-1.941,1.941-1.941c1.072,0,1.941,0.869,1.941,1.941
					c0,1.072-0.869,1.941-1.941,1.941C245.339,77.076,244.47,76.207,244.47,75.135z"/>
				<rect x="237.195" y="79.382" style="fill:#1A50C7;" width="18.432" height="5.699"/>
			</g>
		</g>
		<g>
			
				<ellipse transform="matrix(0.7071 -0.7071 0.7071 0.7071 -109.0333 110.4381)" style="fill:#50D1F1;" cx="78.794" cy="186.834" rx="33.333" ry="33.333"/>
			<polygon style="fill:#F67DBE;" points="91.317,192.386 91.317,211.936 52.787,211.936 52.787,173.406 75.547,173.406 
				75.547,192.386 			"/>
			<polygon style="fill:#1A50C7;" points="104.327,163.606 104.327,192.386 91.317,192.386 91.317,173.406 75.547,173.406 
				75.547,163.606 			"/>
			<rect x="75.547" y="173.406" style="fill:#FFC200;" width="15.77" height="18.98"/>
		</g>
	</g>
</g>
</svg>
