<?xml version="1.0" encoding="utf-8"?>
<!-- Generator: Adobe Illustrator 27.5.0, SVG Export Plug-In . SVG Version: 6.00 Build 0)  -->
<svg version="1.1" xmlns="http://www.w3.org/2000/svg" xmlns:xlink="http://www.w3.org/1999/xlink" x="0px" y="0px"
	 viewBox="0 0 500 500" style="enable-background:new 0 0 500 500;" xml:space="preserve">
<g id="BACKGROUND">
</g>
<g id="OBJECTS">
	<g>
		<g>
			<rect x="21.108" y="176.908" style="fill:#EFCF75;" width="134" height="94"/>
			<circle style="fill:#97129B;" cx="48.108" cy="200.908" r="19"/>
			<circle style="fill:#97129B;" cx="48.108" cy="247.908" r="19"/>
			<path style="fill:#97129B;" d="M139.931,266.215c-2.379-2.307-2.437-6.105-0.13-8.484s6.105-2.437,8.484-0.13
				c2.379,2.307,2.437,6.105,0.131,8.484C146.108,268.463,142.31,268.522,139.931,266.215z"/>
			
				<line style="fill:none;stroke:#FFFFFF;stroke-width:1.9842;stroke-linecap:round;stroke-miterlimit:10;" x1="141.28" y1="261.951" x2="146.936" y2="261.864"/>
			
				<line style="fill:none;stroke:#FFFFFF;stroke-width:1.9842;stroke-linecap:round;stroke-miterlimit:10;" x1="144.151" y1="264.736" x2="144.064" y2="259.079"/>
			<circle style="fill:#65CEE0;" cx="47.608" cy="193.408" r="8"/>
			<path style="fill:#65CEE0;" d="M38.901,212.615c0-4.809,3.898-8.707,8.707-8.707s8.707,3.898,8.707,8.707
				C56.315,217.423,38.901,217.423,38.901,212.615z"/>
			<circle style="fill:#65CEE0;" cx="47.608" cy="240.408" r="8"/>
			<path style="fill:#65CEE0;" d="M38.901,259.615c0-4.809,3.898-8.707,8.707-8.707s8.707,3.898,8.707,8.707
				S38.901,264.423,38.901,259.615z"/>
			
				<line style="fill:none;stroke:#FFFFFF;stroke-width:2.8347;stroke-linecap:round;stroke-miterlimit:10;" x1="72.108" y1="190.908" x2="119.108" y2="190.908"/>
			
				<line style="fill:none;stroke:#FFFFFF;stroke-width:2.8347;stroke-linecap:round;stroke-miterlimit:10;" x1="72.108" y1="196.908" x2="119.108" y2="196.908"/>
			
				<line style="fill:none;stroke:#FFFFFF;stroke-width:2.8347;stroke-linecap:round;stroke-miterlimit:10;" x1="72.108" y1="202.908" x2="98.108" y2="202.908"/>
			
				<line style="fill:none;stroke:#FFFFFF;stroke-width:2.8347;stroke-linecap:round;stroke-miterlimit:10;" x1="72.108" y1="242.908" x2="119.108" y2="242.908"/>
			
				<line style="fill:none;stroke:#FFFFFF;stroke-width:2.8347;stroke-linecap:round;stroke-miterlimit:10;" x1="72.108" y1="248.908" x2="119.108" y2="248.908"/>
			
				<line style="fill:none;stroke:#FFFFFF;stroke-width:2.8347;stroke-linecap:round;stroke-miterlimit:10;" x1="72.108" y1="254.908" x2="98.108" y2="254.908"/>
			<rect x="142.108" y="182.908" style="fill:#FFFFFF;" width="6" height="6"/>
			<polyline style="fill:none;stroke:#97129B;stroke-width:5.6693;stroke-linecap:round;stroke-miterlimit:10;" points="
				133.108,258.642 129.467,263.173 125.826,258.642 			"/>
			<g>
				<path style="fill:#97129B;" d="M139.931,217.215c-2.379-2.307-2.437-6.105-0.13-8.484c2.307-2.379,6.105-2.437,8.484-0.131
					c2.379,2.307,2.437,6.105,0.131,8.484C146.108,219.463,142.31,219.522,139.931,217.215z"/>
				
					<line style="fill:none;stroke:#FFFFFF;stroke-width:1.9842;stroke-linecap:round;stroke-miterlimit:10;" x1="141.28" y1="212.951" x2="146.936" y2="212.864"/>
				
					<line style="fill:none;stroke:#FFFFFF;stroke-width:1.9842;stroke-linecap:round;stroke-miterlimit:10;" x1="144.151" y1="215.736" x2="144.064" y2="210.079"/>
				<polyline style="fill:none;stroke:#97129B;stroke-width:5.6693;stroke-linecap:round;stroke-miterlimit:10;" points="
					133.108,209.642 129.467,214.173 125.826,209.642 				"/>
			</g>
			
				<line style="fill:none;stroke:#97129B;stroke-width:2.8347;stroke-linecap:round;stroke-miterlimit:10;" x1="28.608" y1="223.408" x2="144.608" y2="223.408"/>
		</g>
		<g>
			<rect x="238.608" y="82.408" style="fill:#EFCF75;" width="155" height="112"/>
			<rect x="257.608" y="155.408" style="fill:#FFFFFF;" width="53" height="39.5"/>
			<rect x="257.608" y="92.408" style="fill:#FFFFFF;" width="53" height="53"/>
			<rect x="322.608" y="92.408" style="fill:#FFFFFF;" width="53" height="53"/>
			<polygon style="fill:#29ABE2;" points="272.108,108.908 295.108,107.908 297.608,135.408 285.608,135.408 284.108,119.908 
				282.108,136.908 270.108,134.908 			"/>
			<path style="fill:#97129B;" d="M341.608,108.408l-11,8l2,8l6-2l-1,9h23l-2-11l5,3l4-5l-11-10h-5c0,0,1,3-4,4c-2,0-2-4-2-4
				H341.608z"/>
			<ellipse style="fill:#F7931E;" cx="285.108" cy="175.658" rx="18.296" ry="5.75"/>
			<path style="fill:#EFCF75;" d="M279.608,175.408c0,0-3-9,4-11s8,11,8,11S284.608,179.408,279.608,175.408z"/>
			<rect x="322.608" y="155.408" style="fill:#FFFFFF;" width="53" height="39.5"/>
			<ellipse style="fill:#29ABE2;" cx="349.46" cy="175.658" rx="17.648" ry="5.75"/>
			<g>
				<rect x="385.108" y="82.908" style="fill:#29ABE2;" width="9" height="104"/>
				<rect x="385.108" y="81.908" style="fill:#65CEE0;" width="9" height="8"/>
				<polyline style="fill:none;stroke:#FFFFFF;stroke-width:2.8347;stroke-linecap:round;stroke-miterlimit:10;" points="
					387.108,87.908 389.608,85.408 392.108,87.908 				"/>
				<g>
					
						<rect x="385.108" y="186.908" transform="matrix(-1 -1.224647e-16 1.224647e-16 -1 779.2154 381.8151)" style="fill:#65CEE0;" width="9" height="8"/>
					<polyline style="fill:none;stroke:#FFFFFF;stroke-width:2.8347;stroke-linecap:round;stroke-miterlimit:10;" points="
						392.108,188.908 389.608,191.408 387.108,188.908 					"/>
				</g>
			</g>
			<path style="fill:#EFCF75;" d="M377.925,202.541H254.291c-3.415,0-6.183,2.768-6.183,6.183l0,0c0,3.415,2.768,6.183,6.183,6.183
				h123.634c3.415,0,6.183-2.768,6.183-6.183l0,0C384.108,205.31,381.339,202.541,377.925,202.541z"/>
			
				<line style="fill:none;stroke:#FFFFFF;stroke-width:2.8347;stroke-linecap:round;stroke-miterlimit:10;" x1="257.608" y1="89.408" x2="304.608" y2="89.408"/>
			
				<line style="fill:none;stroke:#FFFFFF;stroke-width:2.8347;stroke-linecap:round;stroke-miterlimit:10;" x1="325.608" y1="89.408" x2="372.608" y2="89.408"/>
			
				<line style="fill:none;stroke:#FFFFFF;stroke-width:2.8347;stroke-linecap:round;stroke-miterlimit:10;" x1="259.608" y1="151.408" x2="306.608" y2="151.408"/>
			<path style="fill:#97129B;" d="M347.108,161.908c0,0,1-4,13-2c8,1,8,16,8,16s1,5-10,5
				C356.108,179.908,347.108,166.908,347.108,161.908z"/>
			<path style="fill:#EFCF75;" d="M340.108,171.908c0,0,3-10,10-12s8,21,8,21S345.108,175.908,340.108,171.908z"/>
		</g>
		<g>
			<rect x="396.108" y="172.908" style="fill:#97129B;" width="91.5" height="72"/>
			<polygon style="fill:#FFFFFF;" points="465.457,234.36 465.457,242.095 472.489,238.579 			"/>
			<polygon style="fill:#FFFFFF;" points="470.38,234.36 470.38,242.095 477.412,238.579 			"/>
			<rect x="456.316" y="233.657" style="fill:#FFFFFF;" width="2.11" height="7.735"/>
			<rect x="452.097" y="233.657" style="fill:#FFFFFF;" width="2.109" height="7.735"/>
			
				<polyline style="fill:none;stroke:#EFCF75;stroke-width:1.9933;stroke-linecap:round;stroke-linejoin:round;stroke-miterlimit:10;" points="
				406.39,196.388 420.454,206.233 442.956,202.717 456.316,215.374 463.348,225.922 478.115,204.826 483.037,190.059 			"/>
			<path style="fill:#F7931E;" d="M419.048,206.233c0-0.777,0.63-1.406,1.406-1.406s1.406,0.63,1.406,1.406s-0.63,1.406-1.406,1.406
				S419.048,207.009,419.048,206.233z"/>
			<path style="fill:#F7931E;" d="M441.549,202.717c0-0.777,0.63-1.406,1.406-1.406c0.777,0,1.406,0.63,1.406,1.406
				s-0.63,1.406-1.406,1.406C442.179,204.123,441.549,203.493,441.549,202.717z"/>
			<path style="fill:#F7931E;" d="M454.207,214.671c0-0.777,0.63-1.406,1.406-1.406c0.777,0,1.406,0.63,1.406,1.406
				c0,0.777-0.63,1.406-1.406,1.406C454.836,216.077,454.207,215.448,454.207,214.671z"/>
			<path style="fill:#F7931E;" d="M461.942,225.922c0-0.777,0.63-1.406,1.406-1.406s1.406,0.63,1.406,1.406s-0.63,1.406-1.406,1.406
				S461.942,226.698,461.942,225.922z"/>
			<path style="fill:#F7931E;" d="M476.708,204.826c0-0.777,0.63-1.406,1.406-1.406s1.406,0.63,1.406,1.406s-0.63,1.406-1.406,1.406
				S476.708,205.603,476.708,204.826z"/>
			<path style="fill:#F7931E;" d="M481.631,190.059c0-0.777,0.63-1.406,1.406-1.406s1.406,0.63,1.406,1.406
				c0,0.777-0.63,1.406-1.406,1.406S481.631,190.836,481.631,190.059z"/>
			<g>
				<g>
					<circle style="fill:#65CEE0;" cx="405.722" cy="235.48" r="6.625"/>
					
						<line style="fill:none;stroke:#FFFFFF;stroke-width:2.1909;stroke-linecap:round;stroke-miterlimit:10;" x1="403.514" y1="233.272" x2="407.931" y2="237.689"/>
				</g>
				
					<line style="fill:none;stroke:#FFFFFF;stroke-width:2.1909;stroke-linecap:round;stroke-miterlimit:10;" x1="403.514" y1="237.689" x2="407.931" y2="233.272"/>
			</g>
		</g>
		<g>
			<rect x="28.108" y="67.346" style="fill:#97129B;" width="157" height="25.808"/>
			<rect x="54.991" y="56.592" style="fill:#65CEE0;" width="103.233" height="47.315"/>
			<path style="fill:#F7931E;" d="M69.626,88.315H57.734c-1.467,0-2.657-1.189-2.657-2.657V73.766c0-1.467,1.189-2.657,2.657-2.657
				h11.892c1.467,0,2.657,1.189,2.657,2.657v11.892C72.282,87.126,71.093,88.315,69.626,88.315z"/>
			<g>
				<path style="fill:#F7931E;" d="M143.59,71.11h11.892c1.467,0,2.657,1.189,2.657,2.657v11.892c0,1.467-1.189,2.657-2.657,2.657
					H143.59c-1.467,0-2.657-1.189-2.657-2.657V73.766C140.933,72.299,142.122,71.11,143.59,71.11z"/>
				<path style="fill:#EFCF75;" d="M125.23,67.884h16.351c2.018,0,3.653,1.635,3.653,3.653v16.352c0,2.017-1.635,3.653-3.653,3.653
					H125.23c-2.018,0-3.653-1.636-3.653-3.653V71.537C121.577,69.519,123.212,67.884,125.23,67.884z"/>
			</g>
			<polyline style="fill:none;stroke:#FFFFFF;stroke-width:5.5249;stroke-linecap:round;stroke-miterlimit:10;" points="
				171.111,74.302 175.984,79.175 171.111,84.047 			"/>
			<polyline style="fill:none;stroke:#FFFFFF;stroke-width:5.5249;stroke-linecap:round;stroke-miterlimit:10;" points="
				42.642,84.047 37.769,79.175 42.642,74.302 			"/>
			<path style="fill:#EFCF75;" d="M87.985,91.541H71.634c-2.017,0-3.653-1.636-3.653-3.653V71.537c0-2.018,1.636-3.653,3.653-3.653
				h16.352c2.018,0,3.653,1.635,3.653,3.653v16.352C91.638,89.906,90.003,91.541,87.985,91.541z"/>
			<path style="fill:#FFFFFF;" d="M119.243,97.455H93.972c-3.118,0-5.646-2.528-5.646-5.646V66.539c0-3.118,2.528-5.646,5.646-5.646
				h25.271c3.118,0,5.646,2.528,5.646,5.646V91.81C124.888,94.928,122.361,97.455,119.243,97.455z"/>
		</g>
		<g>
			<polygon style="fill:#65CEE0;" points="369.379,209.247 367.071,225.408 387.848,209.247 458.262,208.093 458.262,131.908 
				364.762,134.216 363.608,209.247 			"/>
			<path style="fill:#97129B;" d="M438.061,149.222h-55.407c-2.231,0-4.04-1.809-4.04-4.04l0,0c0-2.231,1.809-4.04,4.04-4.04h55.407
				c2.231,0,4.04,1.809,4.04,4.04l0,0C442.101,147.414,440.293,149.222,438.061,149.222z"/>
			<path style="fill:#97129B;" d="M438.639,177.503h-55.407c-2.231,0-4.04-1.809-4.04-4.04l0,0c0-2.231,1.809-4.04,4.04-4.04h55.407
				c2.231,0,4.04,1.809,4.04,4.04l0,0C442.679,175.694,440.87,177.503,438.639,177.503z"/>
			<path style="fill:#97129B;" d="M438.639,191.355h-55.407c-2.231,0-4.04-1.809-4.04-4.04l0,0c0-2.231,1.809-4.04,4.04-4.04h55.407
				c2.231,0,4.04,1.809,4.04,4.04l0,0C442.679,189.546,440.87,191.355,438.639,191.355z"/>
			<path style="fill:#29ABE2;" d="M448.259,162.497h-44.636c-2.018,0-3.654-1.636-3.654-3.654v-0.771
				c0-2.018,1.636-3.654,3.654-3.654h44.636c2.018,0,3.655,1.636,3.655,3.654v0.771
				C451.913,160.861,450.277,162.497,448.259,162.497z"/>
			<path style="fill:#FFFFFF;" d="M440.947,204.053h-70.414c-2.231,0-4.04-1.809-4.04-4.04l0,0c0-2.231,1.809-4.04,4.04-4.04h70.414
				c2.231,0,4.04,1.809,4.04,4.04l0,0C444.987,202.244,443.178,204.053,440.947,204.053z"/>
			<rect x="367.648" y="169.423" style="fill:#FFFFFF;" width="9.235" height="9.235"/>
			<rect x="367.648" y="183.275" style="fill:#FFFFFF;" width="9.235" height="9.235"/>
			<rect x="367.071" y="139.988" style="fill:#FFFFFF;" width="9.234" height="9.235"/>
			<path style="fill:#97129B;" d="M447.296,199.435c0-2.55,2.067-4.617,4.617-4.617c2.55,0,4.617,2.067,4.617,4.617
				c0,2.55-2.067,4.617-4.617,4.617C449.363,204.053,447.296,201.985,447.296,199.435z"/>
			<polygon style="fill:#FFFFFF;" points="448.45,199.435 454.222,197.127 451.913,202.898 450.759,200.59 			"/>
		</g>
		<g>
			<polygon style="fill:#EFCF75;" points="307.108,240.908 315.108,238.908 310.108,249.908 314.108,250.908 317.108,239.908 
				323.108,245.908 323.108,221.908 			"/>
		</g>
		<g>
			<polygon style="fill:#65CEE0;" points="159.108,172.241 137.852,172.241 53.108,172.241 53.108,107.095 159.108,107.095 			"/>
			<polygon style="fill:#65CEE0;" points="159.108,189.908 155.519,172.241 134.264,172.241 			"/>
			
				<ellipse transform="matrix(0.1556 -0.9878 0.9878 0.1556 -50.0052 224.1501)" style="fill:#97129B;" cx="106.108" cy="141.324" rx="22.083" ry="22.083"/>
			<polygon style="fill:#FFFFFF;" points="116.158,141.378 98.946,131.441 98.946,151.316 			"/>
			<g>
				<g>
					<circle style="fill:#97129B;" cx="149.722" cy="116.48" r="6.625"/>
					
						<line style="fill:none;stroke:#FFFFFF;stroke-width:2.1909;stroke-linecap:round;stroke-miterlimit:10;" x1="147.514" y1="114.272" x2="151.931" y2="118.689"/>
				</g>
				
					<line style="fill:none;stroke:#FFFFFF;stroke-width:2.1909;stroke-linecap:round;stroke-miterlimit:10;" x1="147.514" y1="118.689" x2="151.931" y2="114.272"/>
			</g>
			
				<line style="fill:none;stroke:#FFFFFF;stroke-width:2.8347;stroke-linecap:round;stroke-miterlimit:10;" x1="58.608" y1="112.408" x2="105.608" y2="112.408"/>
		</g>
		<line style="fill:#29ABE2;stroke:#0071BC;stroke-miterlimit:10;" x1="30.108" y1="278.408" x2="105.108" y2="278.408"/>
		<g>
			<circle style="fill:#97129B;" cx="32.608" cy="297.408" r="11.5"/>
			<circle style="fill:#65CEE0;" cx="61.608" cy="297.408" r="11.5"/>
			<circle style="fill:#F7931E;" cx="90.608" cy="297.408" r="11.5"/>
		</g>
		<g>
			<circle style="fill:#97129B;" cx="420.108" cy="103.908" r="21"/>
			<g>
				<polygon style="fill:#FFFFFF;" points="411.997,97.111 429.108,97.111 427.478,109.333 413.626,109.333 				"/>
				<path style="fill:#FFFFFF;" d="M413.626,111.778c0-0.9,0.73-1.63,1.63-1.63c0.9,0,1.63,0.73,1.63,1.63
					c0,0.9-0.73,1.63-1.63,1.63C414.356,113.408,413.626,112.678,413.626,111.778z"/>
				<path style="fill:#FFFFFF;" d="M423.404,111.778c0-0.9,0.73-1.63,1.63-1.63c0.9,0,1.63,0.73,1.63,1.63
					c0,0.9-0.73,1.63-1.63,1.63C424.134,113.408,423.404,112.678,423.404,111.778z"/>
				<path style="fill:#FFFFFF;" d="M410.367,95.482c0,0.9-0.73,1.63-1.63,1.63c-0.9,0-1.63-0.73-1.63-1.63s0.73-1.63,1.63-1.63
					C409.637,93.852,410.367,94.582,410.367,95.482z"/>
				<polygon style="fill:#FFFFFF;" points="409.145,95.889 412.466,100.634 413.219,97.519 409.96,94.414 				"/>
			</g>
			<polygon style="fill:#97129B;" points="403.908,117.271 402.108,127.908 414.108,122.908 			"/>
		</g>
		<g>
			<rect x="385.108" y="222.908" style="fill:#97129B;" width="6" height="21"/>
			<rect x="377.108" y="228.908" style="fill:#65CEE0;" width="5" height="15"/>
			<rect x="369.108" y="225.908" style="fill:#EFCF75;" width="5" height="18"/>
		</g>
		<g>
			<path style="fill:#97129B;" d="M383.931,73.215c-2.379-2.307-2.437-6.105-0.13-8.484c2.307-2.379,6.105-2.437,8.484-0.131
				c2.379,2.307,2.437,6.105,0.131,8.484C390.108,75.463,386.31,75.522,383.931,73.215z"/>
			
				<line style="fill:none;stroke:#FFFFFF;stroke-width:1.9842;stroke-linecap:round;stroke-miterlimit:10;" x1="385.28" y1="68.951" x2="390.936" y2="68.864"/>
			
				<line style="fill:none;stroke:#FFFFFF;stroke-width:1.9842;stroke-linecap:round;stroke-miterlimit:10;" x1="388.151" y1="71.736" x2="388.064" y2="66.079"/>
			<polyline style="fill:none;stroke:#97129B;stroke-width:5.6693;stroke-linecap:round;stroke-miterlimit:10;" points="
				377.108,65.642 373.467,70.173 369.826,65.642 			"/>
		</g>
		<g>
			<circle style="fill:#F7931E;" cx="228.108" cy="84.908" r="21"/>
			
				<polyline style="fill:none;stroke:#FFFFFF;stroke-width:2.8347;stroke-linecap:round;stroke-linejoin:round;stroke-miterlimit:10;" points="
				236.108,87.908 228.108,84.908 233.108,72.908 			"/>
		</g>
	</g>
	<g>
		<polygon style="fill:#F7931E;" points="378.608,378.408 265.608,388.408 245.608,374.408 358.608,364.408 		"/>
		<ellipse style="fill:#EFCF75;" cx="263.608" cy="389.908" rx="2" ry="4.5"/>
		<path style="fill:#EFCF75;" d="M378.608,383.408l-115,11l2-6l113-10C378.608,378.408,378.608,379.408,378.608,383.408z"/>
	</g>
	<line style="fill:#29ABE2;stroke:#0071BC;stroke-miterlimit:10;" x1="25.108" y1="355.908" x2="236.108" y2="355.908"/>
	<line style="fill:#29ABE2;stroke:#0071BC;stroke-miterlimit:10;" x1="266.108" y1="219.408" x2="358.108" y2="219.408"/>
	<g>
		<polygon style="fill:#29ABE2;" points="348.608,441.408 235.608,450.408 182.608,412.408 299.608,412.408 		"/>
		<g>
			<path style="fill:#F7931E;" d="M220.608,415.408c0,0,10,24,33,25s37-3,35-12s-12-26-25-29S218.608,401.408,220.608,415.408z"/>
			<path style="fill:none;stroke:#EFCF75;stroke-miterlimit:10;" d="M288.608,428.408c-2-9-12-26-25-29
				c-8.745-2.018-26.077-0.41-35.884,5.117c0.155,4.383,3.111,10.09,10.059,17.383c0,0,6.825,12.5,21.825,12.5
				C270.653,434.408,288.608,428.408,288.608,428.408z"/>
			<path style="fill:none;stroke:#EFCF75;stroke-miterlimit:10;" d="M277.292,431.648c0,0-7.685-17.241-20.685-28.241"/>
		</g>
	</g>
	<g>
		<g>
			<path style="fill:#29ABE2;" d="M137.608,232.408c0,0,15-14,51-12s50.5,47.5,50.5,47.5l-24,62v26l-124.5,0.5
				c0,0,21.904-24.088,21.5-43.5C111.108,264.908,128.608,241.408,137.608,232.408z"/>
			<path style="fill:#E8BD97;" d="M222.379,223.908l-6.772,13.5l10.5,9.5c0,0,3,19-24,13c-27-6-26.5-39.5-26.5-39.5h13.75
				l13.576-11.888C202.934,208.52,216.151,221.408,222.379,223.908z"/>
			<g>
				<path style="fill:none;stroke:#641268;stroke-miterlimit:10;" d="M185.608,220.408c0,0-3,43,11,58
					c1,1,21.73-23.315,21.365-39.657"/>
				<circle style="fill:#EFCF75;" cx="196.608" cy="283.408" r="5"/>
			</g>
		</g>
		<g>
			<path style="fill:#29ABE2;" d="M321.465,360.777c0,0-71.595-1.446-84.942-3.141c-7.595-5.685,3.892-29.476,14.958-31.069
				c13.463-1.937,67.236,5.688,67.236,5.688S315.01,356.735,321.465,360.777z"/>
			<path style="fill:#29ABE2;" d="M238.608,267.408l35.5,89.5l-38-1c0,0-14.5-38.5-15.5-49.5S238.608,267.408,238.608,267.408z"/>
			<g>
				<path style="fill:#E8BD97;" d="M319.108,331.908l29,6c0,0,21,15,24,26c-1,0-15-1-27-17c3,4,23.25,12.5,21,22
					c-5.5,3-24.5-13.5-24.5-13.5s29,18,21.5,18.5s-29-16-29-16h-13C321.108,357.908,308.108,342.908,319.108,331.908z"/>
				<path style="fill:#E8BD97;" d="M315.108,346.908c0,0,8.111,23.235,14.056,23.118c5.944-0.118,2.167-13.618,2.167-13.618
					L315.108,346.908z"/>
			</g>
			<path style="fill:none;stroke:#0071BC;stroke-linecap:round;stroke-miterlimit:10;" d="M238.608,343.408
				c0,0,6.051-14.181,22.526-17.09"/>
			<path style="fill:none;stroke:#0071BC;stroke-linecap:round;stroke-miterlimit:10;" d="M234.608,334.408c0,0,14-12.31,25.5-8.155
				"/>
		</g>
		<path style="fill:#97129B;" d="M238.608,221.408c0,0,24,21,25,35c1,14-33,43-29,50c0,0-19.383-15.727-11-30c18.5-31.5-8-39-8-39
			l7-17L238.608,221.408z"/>
		<path style="fill:#CC9281;" d="M204.108,209.908c0,0,5,12,17.728,14c-0.543,0-5.154,10.892-5.154,10.892
			S204.108,221.908,204.108,209.908z"/>
		<path style="fill:none;stroke:#0071BC;stroke-miterlimit:10;" d="M226.608,297.695c0,0-3.224,5.626-7.612,22.169"/>
		<g>
			<path style="fill:#E8BD97;" d="M189.608,156.408c0,0-4,78,55,69c24-5,24-42,18-67S214.608,143.408,189.608,156.408z"/>
			<path style="fill:#97129B;" d="M217.608,164.408c0,0,14.5,32.5-22.5,51.5c-2,3-5.5,4.5-5.5,4.5h-12c0,0-4-27,8-44
				C187.608,175.408,213.608,160.408,217.608,164.408z"/>
			<path style="fill:#E8BD97;" d="M202.608,185.408c0,0-13-4-13,6s8,11,13,10C203.608,202.408,202.608,185.408,202.608,185.408z"/>
			<g>
				<circle style="fill:#641268;" cx="234.608" cy="186.408" r="2"/>
				<circle style="fill:#641268;" cx="257.108" cy="186.908" r="2"/>
				<path style="fill:none;stroke:#641268;stroke-linecap:round;stroke-miterlimit:10;" d="M249.108,184.908c0,0-2,7,4,10s3,10-4,9"
					/>
				<path style="fill:none;stroke:#641268;stroke-linecap:round;stroke-miterlimit:10;" d="M236.608,206.408c0,0,0,5,10,4"/>
				<path style="fill:none;stroke:#641268;stroke-linecap:round;stroke-miterlimit:10;" d="M231.608,177.408c0,0,0-4,5-5"/>
				<path style="fill:none;stroke:#641268;stroke-linecap:round;stroke-miterlimit:10;" d="M256.608,177.408c0,0,4,0,5,4"/>
			</g>
			<path style="fill:#97129B;" d="M239.608,158.408c0,0,12.605,11,26.302,25c-0.605,0,0.031,7,0.031,7s11.667-16,6.667-28
				s-11-14-11-14L239.608,158.408z"/>
			<path style="fill:#29ABE2;" d="M181.72,183.408c0,0,32.54-25.876,86.214-29.438c0.348,0.876-15.326-31.562-51.326-36.562
				c-2,0-14-1-14-1s-7-4-14-4s-24,22-20,27s11,8,11,8S174.832,163.408,181.72,183.408z"/>
			<path style="fill:#29ABE2;" d="M177.108,118.908c0,0-7-6-8-2C168.623,118.848,174.108,119.908,177.108,118.908z"/>
			<path style="fill:#29ABE2;" d="M176.954,117.271c0,0-0.897-9.176-4.388-6.982C170.873,111.353,174.097,115.915,176.954,117.271z"
				/>
			<path style="fill:#29ABE2;" d="M177.906,117.529c0,0,5.45-7.436,1.385-8.129C177.32,109.064,176.681,114.614,177.906,117.529z"/>
			<path style="fill:none;stroke:#641268;stroke-linecap:round;stroke-miterlimit:10;" d="M192.108,190.908c0,0,5-3,8,1"/>
			<path style="fill:none;stroke:#641268;stroke-linecap:round;stroke-miterlimit:10;" d="M197.608,196.408c0,0-3-2,0-6"/>
			
				<line style="fill:none;stroke:#641268;stroke-width:0.7143;stroke-miterlimit:10;" x1="198.608" y1="199.408" x2="198.608" y2="208.408"/>
			<circle style="fill:#EFCF75;" cx="198.608" cy="210.408" r="3"/>
			<path style="fill:none;stroke:#0071BC;stroke-miterlimit:10;" d="M190.608,178.408c0,0,6-25-3-35c0-1-17.78-12-17.78-12"/>
			<path style="fill:none;stroke:#0071BC;stroke-miterlimit:10;" d="M174.526,123.977c0,0,17.082,5.431,27.082,16.431
				s8.095,27.387,8.095,27.387"/>
			<path style="fill:none;stroke:#0071BC;stroke-miterlimit:10;" d="M180.477,117.271c0,0,39.131,2.718,49.131,43.427"/>
			<path style="fill:none;stroke:#0071BC;stroke-miterlimit:10;" d="M185.137,113.61c0,0,70.47,11.797,69.97,41.297"/>
			<path style="fill:#97129B;" d="M223.551,162.574c0,0,6.557,33.333-8.443,43.333c0,0,3.72-22.667,1.36-40.833
				C216.747,164.741,223.551,162.574,223.551,162.574z"/>
		</g>
		<g>
			<path style="fill:#E8BD97;" d="M208.729,409.063c0,0,0.879,8.345,11.879,9.345s12,0,12,0s12,9,17,8s-10-14-10-14s15,12,22,14
				c1,0,4,0,2-4s-13-19-13-19h15c0,0,4,12,12,12c4,1-5-20-5-20l-21-2c0,0-21.5-0.5-27.5-5.5
				C220.108,386.908,208.729,409.063,208.729,409.063z"/>
			<path style="fill:#29ABE2;stroke:#0071BC;stroke-miterlimit:10;" d="M134.608,235.408c0,0,18.053-8.984,25.084,7.974
				c7.031,16.958,12.042,101.153,12.042,101.153s-23.733,5.554-30.126,16.873C142.481,362.519,105.608,253.408,134.608,235.408z"/>
			<path style="fill:#29ABE2;" d="M209.608,412.408c0,0-58-42-68-51c-3-9,20-22,30-17c12.165,6.083,52,43,52,43
				S206.608,405.408,209.608,412.408z"/>
			<path style="fill:none;stroke:#0071BC;stroke-linecap:round;stroke-miterlimit:10;" d="M146.936,350.933
				c0,0,11.595-13.711,27.134-5.118"/>
			<path style="fill:none;stroke:#0071BC;stroke-linecap:round;stroke-miterlimit:10;" d="M145.608,337.408
				c0,0,20.253-4.746,26.126,7.127"/>
		</g>
	</g>
	<g>
		<polygon style="fill:#F7931E;" points="406.193,397.181 360.608,403.408 406.608,425.408 447.193,419.181 		"/>
		<polygon style="fill:#F7931E;" points="471.108,364.946 322.608,377.408 322.608,252.792 471.108,243.446 		"/>
		<polygon style="fill:#F7931E;" points="381.608,328.408 417.839,326.225 447.839,419.225 406.608,425.408 		"/>
		<path style="fill:#EFCF75;" d="M321.608,252.408c0,0,25,46,0,125"/>
		<path style="fill:#F7931E;" d="M470.608,365.408c25-79,0-122,0-122l-10.039,0.639l6.289,121.361H470.608z"/>
		
			<ellipse transform="matrix(0.9968 -0.0797 0.0797 0.9968 -21.6795 32.9845)" style="fill:#EFCF75;" cx="402.108" cy="287.908" rx="18.5" ry="14.5"/>
		<polygon style="fill:none;stroke:#EFCF75;stroke-miterlimit:10;" points="447.608,346.408 453.608,345.408 453.608,361.408 
			447.608,362.408 		"/>
		<polygon style="fill:none;stroke:#EFCF75;stroke-miterlimit:10;" points="456.608,345.324 462.108,344.408 462.108,359.991 
			456.608,360.908 		"/>
		<polygon style="fill:none;stroke:#EFCF75;stroke-miterlimit:10;" points="381.608,328.408 417.839,326.225 447.839,419.225 
			406.608,425.408 		"/>
	</g>
</g>
</svg>
