<?xml version="1.0" encoding="utf-8"?>
<!-- Generator: Adobe Illustrator 27.5.0, SVG Export Plug-In . SVG Version: 6.00 Build 0)  -->
<svg version="1.1" xmlns="http://www.w3.org/2000/svg" xmlns:xlink="http://www.w3.org/1999/xlink" x="0px" y="0px"
	 viewBox="0 0 500 500" style="enable-background:new 0 0 500 500;" xml:space="preserve">
<g id="BACKGROUND">
	<rect y="0" style="fill:#FDFFFF;" width="500" height="500"/>
</g>
<g id="OBJECTS">
	<g>
		<ellipse style="fill:#E3EEFF;" cx="296.249" cy="460.775" rx="173.298" ry="18.05"/>
		<g>
			<g>
				<path style="fill:#B2B0F7;" d="M154.011,426.104c-0.509,1.242-1.351,2.334-2.409,3.201h-13.947
					c-0.692-0.367-1.359-0.767-1.992-1.184c-0.217-0.133-0.425-0.275-0.634-0.417c-1.025-0.709-2.001-1.467-2.934-2.293
					c-3.034-2.651-5.577-5.877-7.445-9.445c-0.759-1.434-1.409-2.934-1.926-4.477c-0.192-0.55-0.358-1.109-0.517-1.676
					c-0.784-2.859-1.125-5.836-0.909-8.803c0.092-1.301,0.292-2.593,0.6-3.86c0.2-0.834,0.458-1.651,0.734-2.459
					c0.208-0.6,0.417-1.2,0.617-1.809c0.475-1.484,0.875-3.009,0.809-4.593c-0.058-1.351-0.467-2.659-1.084-3.86
					c-2.593-5.044-7.97-7.695-11.438-12.013c-0.083-0.092-0.158-0.175-0.225-0.267c-1.2-1.559-2.101-3.318-2.484-5.21
					c0.008-0.008,0.008-0.017,0-0.017c-0.142-0.7-0.208-1.417-0.192-2.151c0.067-2.376,0.95-4.618,2.067-6.678
					c2.384-4.36,6.069-8.161,7.42-13.03c0.65-2.384,0.492-4.81-0.359-7.119c-0.859-2.343-2.251-4.46-3.576-6.552
					c-1.3-2.076-2.593-4.168-3.376-6.494c-0.867-2.559-0.884-5.244-0.025-7.811c0.967-2.834,2.759-5.319,4.702-7.57
					c1.634-1.901,3.418-3.668,5.369-5.219v-0.008c0.042-0.042,0.092-0.075,0.133-0.108c0.008,0,0.008,0,0.008,0
					c0.567-0.458,1.15-0.892,1.742-1.309c3.893-2.709,8.462-4.518,13.18-4.785c0.408-0.033,0.817-0.042,1.225-0.042
					c0.842,0,1.684,0.05,2.526,0.15c3.068,0.384,5.994,1.517,8.428,3.31c1.942,1.434,3.576,3.285,4.727,5.502
					c1.276,2.468,1.834,5.252,1.501,8.003c-0.409,3.326-1.876,6.419-3.635,9.229c-2.726,4.352-6.302,8.428-8.078,13.28
					c-0.408,1.117-0.725,2.284-0.909,3.501c-0.442,2.843,0.017,5.686,1.551,8.153c1.701,2.726,4.293,4.743,6.661,6.878
					c2.009,1.809,3.943,3.843,5.11,6.319c1.234,2.601,1.284,5.41,0.133,8.053c-1.192,2.718-3.176,5.019-4.869,7.436
					c-1.626,2.318-3.168,4.76-4.235,7.395c-1.017,2.509-1.609,5.235-1.242,7.953c0.408,3.034,1.951,5.719,3.768,8.136
					c3.351,4.452,7.995,8.637,8.862,14.447C158.021,419.768,156.37,423.161,154.011,426.104z"/>
				<path style="fill:#837AF9;" d="M154.127,418.434c-0.217,3.927-1.709,7.77-4.127,10.871h-1.817
					c-0.025-0.117-0.042-0.242-0.05-0.367c-0.075-0.584-0.092-1.167-0.058-1.759c-0.05-0.25-0.108-0.509-0.183-0.75
					c-1.917-6.327-7.878-9.27-13.03-12.922c-3.276-2.309-6.227-4.919-7.603-8.87c-0.342-0.992-0.525-1.992-0.584-3.009
					c-0.083-1.592,0.142-3.201,0.542-4.777c0.709-2.809,1.751-5.527,2.459-8.345c0.367-1.459,0.675-2.926,0.942-4.41
					c0.242-1.375,0.45-2.793,0.208-4.185c-0.308-1.851-1.476-3.326-2.918-4.468c-2.809-2.251-6.394-3.46-8.878-6.136
					c-1.442-1.559-2.243-3.543-2.251-5.669c-0.008-2.643,0.975-5.194,2.101-7.536c1.292-2.693,2.743-5.31,4.127-7.953
					c1.317-2.526,2.834-5.127,3.151-8.003c0.517-4.743-3.326-7.695-6.469-10.529c-1.517-1.367-3.001-2.834-3.993-4.627
					c-1.175-2.134-1.634-4.577-1.509-6.994c0.25-5.277,3.218-9.879,6.669-13.697v-0.008c0.042-0.042,0.092-0.075,0.133-0.108
					c0.008,0,0.008,0,0.008,0c0.358-0.158,0.817,0.3,0.5,0.642c-0.867,0.967-1.701,1.959-2.459,3.001
					c-3.068,4.193-5.127,9.62-3.46,14.797c1.367,4.26,5.277,6.578,8.22,9.654c1.342,1.392,2.509,2.993,2.984,4.902
					c0.642,2.559-0.067,5.144-1.109,7.503c-0.45,1.025-0.95,2.034-1.467,3.034c-0.859,1.676-1.776,3.318-2.643,4.977
					c-1.284,2.459-2.684,4.919-3.451,7.611c-0.7,2.468-0.784,5.152,0.684,7.37c0.992,1.501,2.476,2.593,3.976,3.535
					c2.859,1.801,6.444,3.285,8.128,6.402c1.159,2.151,0.909,4.56,0.492,6.878c-0.392,2.184-0.909,4.343-1.526,6.469
					c-0.2,0.709-0.417,1.417-0.642,2.117c-0.875,2.701-1.876,5.494-1.742,8.378c0.033,0.642,0.125,1.276,0.267,1.892
					c0.442,1.784,1.342,3.435,2.493,4.894c0.85,1.075,1.809,2.026,2.834,2.893c2.976,2.543,6.519,4.427,9.57,6.869
					c2.376,1.901,4.552,4.368,5.677,7.203c0.4-2.242,1.05-4.477,0.609-6.761c-0.475-2.451-2.042-4.543-3.768-6.269
					c-3.318-3.326-7.77-5.694-10.129-9.896c-1.892-3.385-1.576-6.978-0.542-10.446c0.492-1.676,1.15-3.318,1.809-4.902
					c1.884-4.518,4.093-10.371,0.85-14.822c-2.526-3.451-7.011-4.81-9.445-8.353c-3.001-4.377-1.25-9.929,1.025-14.18
					c2.443-4.552,6.686-9.954,4.385-15.364c-0.892-2.117-2.509-3.835-4.002-5.544c-1.517-1.742-2.951-3.543-3.801-5.719
					c-1.817-4.643-1.1-10.012,1.134-14.381c2.184-4.252,5.652-7.661,9.47-10.479c0.192-0.142,0.383-0.283,0.575-0.417
					c0.317-0.225,0.659,0.075,0.65,0.375c0,0.117-0.05,0.225-0.175,0.308c-0.992,0.717-1.967,1.459-2.901,2.251
					c-3.851,3.268-7.194,7.453-8.42,12.446c-0.617,2.484-0.725,5.119-0.158,7.62c0.534,2.401,1.742,4.443,3.293,6.319
					c1.434,1.734,3.051,3.343,4.243,5.26c1.234,1.976,1.801,4.16,1.501,6.478c-0.242,1.876-0.892,3.618-1.717,5.285
					c-1.576,3.201-3.776,6.177-4.969,9.504c-0.884,2.459-1.284,5.269-0.434,7.786c0.717,2.134,2.318,3.676,4.077,5.002
					c1.659,1.25,3.468,2.343,4.985,3.785c1.609,1.542,2.693,3.451,3.035,5.669c0.8,5.235-2.042,10.087-3.751,14.822
					c-0.95,2.634-1.659,5.485-1.117,8.287c0.483,2.476,1.984,4.568,3.743,6.311c3.318,3.285,7.636,5.652,10.062,9.77
					c1.217,2.076,1.659,4.318,1.367,6.703c-0.225,1.834-0.784,3.693-0.892,5.552c0.125,0.6,0.192,1.225,0.2,1.851
					c0.534-0.659,1.042-1.334,1.484-2.068c2.218-3.701,3.293-8.253,2.418-12.521c-0.434-2.101-1.384-4.068-2.784-5.702
					c-1.459-1.701-3.31-3.018-5.035-4.435c-1.659-1.359-3.276-2.851-4.31-4.752c-1.1-2.009-1.451-4.293-1.226-6.569
					c0.5-5.094,3.468-9.279,6.144-13.463c1.401-2.176,2.634-4.568,2.693-7.211c0.042-2.334-0.717-4.677-2.142-6.519
					c-2.618-3.385-7.153-4.427-10.004-7.561c-3.401-3.743-2.359-9.028-0.45-13.222c0.142-0.308,0.283-0.617,0.434-0.925
					c1.034-2.151,2.209-4.243,3.009-6.494c0.934-2.643,1.367-5.477,1.284-8.278c-0.075-2.784-0.817-5.385-1.476-8.07
					c-0.6-2.426-0.917-4.877-0.308-7.328c1.142-4.635,4.652-8.27,8.036-11.429c0.175-0.158,0.392-0.142,0.55-0.042
					c0.208,0.117,0.308,0.375,0.092,0.575c-0.875,0.817-1.734,1.651-2.559,2.509c-3.401,3.576-6.211,7.903-5.51,13.038
					c0.375,2.684,1.367,5.244,1.767,7.928c0.392,2.651,0.325,5.385-0.183,8.02c-0.192,1-0.459,1.967-0.784,2.918
					c-0.534,1.584-1.217,3.11-1.976,4.618c-1.184,2.376-2.476,4.752-3.043,7.37c-0.525,2.434-0.458,5.11,0.95,7.253
					c1.167,1.767,3.001,2.934,4.785,4.01c1.767,1.059,3.618,2.084,5.102,3.543c1.559,1.542,2.601,3.543,3.035,5.686
					c0.475,2.334,0.125,4.685-0.825,6.853c-1.042,2.376-2.659,4.427-4.027,6.628c-2.509,4.043-4.919,9.279-3.36,14.105
					c1.442,4.468,5.919,6.628,9.062,9.737C152.969,410.239,154.352,414.224,154.127,418.434z"/>
			</g>
			<g>
				<path style="fill:#B2B0F7;" d="M142.006,429.305H81.95c-3.285-1.217-6.502-2.626-9.629-4.235
					c-7.194-3.718-13.88-8.495-19.407-14.364c-4.76-5.044-8.803-11.279-9.295-18.174c-0.175-2.401,0.2-4.827,1.459-6.711
					c0.642-0.967,1.517-1.792,2.668-2.401c3.335-1.759,7.344-1.209,10.921-0.192c8.245,2.343,15.948,6.386,23.184,10.938
					c3.143,1.976,6.219,4.06,9.254,6.186c4.11,2.876,8.17,5.827,12.28,8.703c7.303,5.11,14.831,9.829,22.884,13.705
					c1.926,0.925,3.868,1.809,5.827,2.651C135.353,426.821,138.663,428.113,142.006,429.305z"/>
				<path style="fill:#837AF9;" d="M118.939,429.305h-3.135c-5.244-1.501-10.396-3.293-15.448-5.352
					c-6.761-2.759-13.322-6.002-19.624-9.704c-6.277-3.685-12.296-7.82-17.982-12.363c-5.702-4.56-11.071-9.537-16.048-14.881
					c-0.233-0.25-0.092-0.609,0.133-0.725c0.125-0.067,0.275-0.058,0.408,0.083c0.617,0.667,1.234,1.326,1.867,1.976
					c5.01,5.194,10.404,10.012,16.115,14.431c5.744,4.443,11.821,8.47,18.149,12.038c6.286,3.551,12.822,6.653,19.549,9.27
					C108.16,426.12,113.512,427.871,118.939,429.305z"/>
			</g>
			<g>
				<path style="fill:#837AF9;" d="M148.475,429.305h-9.995c-0.942-0.384-1.884-0.775-2.818-1.184
					c-5.727-2.434-11.371-5.094-16.856-8.053c-8.02-4.343-15.731-9.345-22.717-15.239c-1.709-1.442-3.368-2.934-4.985-4.477
					c-4.935-4.71-9.42-9.895-13.255-15.548c-2.184-3.226-4.16-6.611-5.877-10.121c-2.201-4.51-3.968-9.237-5.177-14.114
					c-0.675-2.718-1.167-5.535-1.359-8.362c-0.333-4.96,0.258-9.962,2.409-14.489c0.667-1.401,1.509-2.726,2.534-3.835
					c1.709-1.851,3.918-3.101,6.653-3.135c4.277-0.05,7.92,2.551,10.871,5.394c0.425,0.408,0.842,0.825,1.259,1.242
					c6.219,6.311,11.163,13.797,15.448,21.508c1.467,2.643,2.868,5.327,4.218,8.028c0.008,0,0.008,0.008,0,0.017
					c0.925,1.817,1.817,3.643,2.709,5.477c1.626,3.376,3.226,6.761,4.86,10.129c0.35,0.734,0.709,1.467,1.067,2.201
					c1.651,3.36,3.36,6.678,5.169,9.945c1.292,2.343,2.643,4.66,4.043,6.936c0.358,0.575,0.717,1.15,1.075,1.717
					c1.451,2.293,2.968,4.543,4.568,6.753c0.25,0.35,0.5,0.692,0.759,1.034c0.584,0.8,1.175,1.592,1.784,2.376
					c4.11,5.402,8.57,10.529,13.272,15.431C148.242,429.063,148.358,429.188,148.475,429.305z"/>
				<path style="fill:#B2B0F7;" d="M145.924,429.305h-1.459c-6.244-4.352-12.213-9.104-17.865-14.206
					c-1.309-1.184-2.601-2.384-3.877-3.61c-0.175-0.167-0.35-0.333-0.525-0.5c-0.258-0.017-0.534-0.067-0.775-0.083l-1.451-0.125
					l-3.11-0.267c-2.001-0.167-4.01-0.342-6.011-0.517c-0.534-0.042-0.383-0.867,0.15-0.817c3.418,0.292,6.836,0.584,10.262,0.875
					c-3.66-3.576-7.186-7.294-10.546-11.154c-0.067,0.025-0.133,0.033-0.208,0.025c-5.652-0.884-11.221-2.234-16.665-4.01
					c-0.509-0.167-0.142-0.917,0.359-0.75c5.127,1.667,10.371,2.926,15.689,3.801c-0.083-0.092-0.167-0.183-0.25-0.275
					c-3.793-4.427-7.369-9.037-10.737-13.797c-0.067,0-0.133-0.008-0.2-0.033c-7.461-3.06-14.864-6.261-22.217-9.579
					c-0.167-0.075-0.233-0.208-0.233-0.35c0-0.275,0.267-0.55,0.592-0.408c7.019,3.176,14.097,6.236,21.225,9.17
					c-1-1.434-1.992-2.884-2.959-4.352c-4.235-6.461-8.061-13.188-11.471-20.116c-5.052-1.434-9.954-3.385-14.597-5.844
					c-0.158-0.083-0.225-0.225-0.225-0.358c0-0.283,0.267-0.559,0.584-0.392c4.377,2.318,8.978,4.185,13.73,5.577
					c-3.543-7.311-6.603-14.856-9.145-22.575c-0.025-0.083-0.025-0.158-0.017-0.225c0.092-0.358,0.659-0.492,0.8-0.067
					c0.308,0.942,0.625,1.876,0.95,2.809c2.359,6.786,5.119,13.43,8.262,19.899c0.575-5.31,1.15-10.612,1.726-15.914
					c0.025-0.233,0.192-0.333,0.367-0.333c0.242,0,0.492,0.183,0.458,0.484c-0.609,5.586-1.217,11.179-1.826,16.765
					c-0.008,0.083-0.058,0.158-0.125,0.225c0.192,0.384,0.375,0.767,0.567,1.15c3.635,7.219,7.753,14.205,12.288,20.9
					c0.383,0.567,0.792,1.117,1.175,1.676c0.659-6.344,1.184-12.705,1.559-19.074c0.033-0.534,0.85-0.384,0.817,0.15
					c-0.392,6.669-0.942,13.322-1.642,19.966c3.443,4.894,7.128,9.629,11.013,14.172c0.65-4.318,1.292-8.645,1.942-12.972
					c0.067-0.434,0.634-0.409,0.784-0.092c0.033,0.067,0.05,0.15,0.033,0.242l-2.042,13.664c0.4,0.459,0.792,0.934,1.192,1.384
					c3.176,3.585,6.502,7.044,9.937,10.371c0.092,0.092,0.183,0.175,0.275,0.267c0.075-0.108,0.067-0.267,0.083-0.417
					c0.058-0.442,0.117-0.884,0.167-1.326c0.1-0.884,0.192-1.767,0.275-2.651c0.158-1.809,0.258-3.618,0.317-5.427
					c0.017-0.534,0.842-0.609,0.825-0.075c-0.058,1.992-0.167,3.977-0.35,5.952c-0.092,0.992-0.2,1.984-0.325,2.968
					c-0.058,0.459-0.033,1.184-0.358,1.592c2.084,1.984,4.193,3.952,6.361,5.836C134.712,421.102,140.205,425.37,145.924,429.305z"
					/>
			</g>
		</g>
		<path style="fill:#E3EEFF;" d="M95.758,42.858c21.292-10.413,46.588-8.456,67.127,0.16c19.842,8.322,39.732,23.155,62.783,18.325
			c10.32-2.169,19.842-7.527,29.508-11.871c9.706-4.357,19.756-7.596,30.234-6.956c20.589,1.263,38.617,15.324,48.019,33.495
			c9.867,19.036,9.695,42.41,20.309,61.072c10.159,17.861,29.235,26.806,45.9,36.878c16.259,9.813,32.735,22.617,35.437,43.554
			c1.319,10.275-0.812,21.3-5.977,30.542c-5.611,10.054-14.472,16.58-23.52,23.02c-9.253,6.579-18.03,13.536-22.189,24.701
			c-4.13,11.109-4.016,23.165-5.826,34.674c-1.755,11.15-5.7,21.546-13.022,30.308c-7.085,8.498-16.385,15.018-26.443,18.886
			c-21.442,8.266-45.076,3.993-64.08-6.571c-9.824-5.468-18.645-13.008-29.355-16.8c-5.231-1.849-10.775-2.439-16.359-1.241
			c-5.297,1.136-10.28,3.553-15.315,5.625c-4.999,2.067-10.121,3.777-15.445,4.159c-5.114,0.362-10.143-0.265-14.988-1.689
			c-9.869-2.906-18.622-9.201-25.162-17.173c-14.536-17.749-17.61-41.782-20.058-64.537c-0.839-7.746-1.821-15.789-4.185-23.215
			c-2.662-3.152-5.826-5.872-9.534-8.077c-9.338-5.554-20.277-7.891-30.669-10.812c-10.261-2.876-20.715-6.311-28.96-13.304
			c-7.272-6.168-11.961-14.96-13.96-24.545c-1.982-9.47-1.189-19.771,2.459-29.006c1.998-5.055,4.928-9.612,8.416-13.736
			c4.161-4.925,8.906-9.322,12.866-14.434c3.407-4.39,5.957-9.298,6.759-14.813c0.614-4.203,0.262-8.417-0.482-12.494
			c-1.584-8.604-4.929-16.647-7.048-25.073c-2.164-8.614-3.079-17.738,0.265-26.473C77.238,55.047,86.225,47.518,95.758,42.858z"/>
	</g>
	<g>
		<g>
			<rect x="95.904" y="159.198" style="fill:#504F56;" width="1.757" height="27.345"/>
			<rect x="95.904" y="102.059" style="fill:#504F56;" width="1.757" height="50.361"/>
			<path style="fill:#DDDCE2;" d="M292.672,52.706v353.491c0,9.349-5.567,17.46-13.553,21.174c-2.975,1.401-6.316,2.179-9.81,2.179
				H121.023c-3.58,0-6.978-0.806-10.002-2.256c-7.89-3.763-13.361-11.816-13.361-21.097V52.706c0-5.673,2.035-10.875,5.433-14.926
				c0.019-0.019,0.029-0.038,0.048-0.077c0.067-0.067,0.125-0.144,0.192-0.221c0.106-0.115,0.163-0.163,0.163-0.163
				c4.281-4.886,10.549-7.976,17.527-7.976h148.286c6.748,0,12.843,2.899,17.124,7.516c0.01,0.019,0.029,0.029,0.038,0.048
				c0.01,0.019,0.029,0.038,0.048,0.058C290.339,41.121,292.672,46.659,292.672,52.706z"/>
			<circle style="fill:#E4DEF9;" cx="223.579" cy="43.844" r="1.024"/>
			<circle style="fill:#E4DEF9;" cx="221.29" cy="41.434" r="1.235"/>
			<path style="fill:#8365C4;" d="M222.585,38.432c2.249,0,4.067,1.818,4.067,4.067c0,2.239-1.818,4.057-4.067,4.057
				c-2.239,0-4.057-1.818-4.057-4.057C218.528,40.249,220.346,38.432,222.585,38.432z M224.604,43.844
				c0-0.572-0.462-1.024-1.024-1.024c-0.562,0-1.024,0.452-1.024,1.024c0,0.562,0.462,1.024,1.024,1.024
				C224.142,44.869,224.604,44.407,224.604,43.844z M222.525,41.434c0-0.683-0.552-1.235-1.235-1.235s-1.235,0.552-1.235,1.235
				s0.552,1.235,1.235,1.235S222.525,42.117,222.525,41.434z"/>
			<path style="fill:#FFF1C5;" d="M241.324,39.637c1.386,0,2.511,1.125,2.511,2.5c0,1.386-1.125,2.511-2.511,2.511
				s-2.5-1.125-2.5-2.511C238.823,40.761,239.938,39.637,241.324,39.637z"/>
			<path d="M286.932,400.39v10.184c0,9.051-7.4,16.461-16.452,16.461H118.882c-5.941,0-11.173-3.196-14.062-7.948
				c-1.517-2.486-2.39-5.394-2.39-8.514V400.39h1.776c0,4.521,3.705,8.226,8.226,8.226H277.41c4.521,0,8.226-3.705,8.226-8.226
				H286.932z"/>
			<path d="M243.834,42.137c0-1.376-1.125-2.5-2.511-2.5s-2.5,1.125-2.5,2.5c0,1.386,1.115,2.511,2.5,2.511
				S243.834,43.523,243.834,42.137z M226.652,42.499c0-2.249-1.818-4.067-4.067-4.067c-2.239,0-4.057,1.818-4.057,4.067
				c0,2.239,1.818,4.057,4.057,4.057C224.835,46.556,226.652,44.738,226.652,42.499z M284.35,41.313
				c-0.365-0.576-0.758-1.113-1.19-1.632c-1.075-1.296-2.332-2.428-3.743-3.35c0,0,0,0-0.01,0c-0.854-0.01-51.726-0.403-60.94,0
				c-9.301,0.403-10.28,2.659-12.104,4.751c-2.265,2.505-5.318,7.583-11.681,7.583v2.889h82.729c4.521,0,8.226,3.695,8.226,8.216
				V400.39h1.296V50.134C286.932,46.89,285.981,43.856,284.35,41.313z"/>
			<path style="fill:#232535;" d="M270.486,33.682c3.274,0,6.347,0.974,8.917,2.651c-0.854-0.01-51.717-0.402-60.936,0
				c-9.299,0.402-10.283,2.661-12.101,4.75c-2.27,2.5-5.322,7.582-11.689,7.582c-6.357,0-6.989-2.711-13.768-7.943
				c-6.768-5.232-12.452-4.328-12.452-4.328h-58.586c2.591-1.717,5.684-2.711,9.008-2.711H270.486z M198.333,42.107
				c0-2.079-1.677-3.756-3.756-3.756c-2.069,0-3.756,1.677-3.756,3.756c0,2.079,1.687,3.756,3.756,3.756
				C196.656,45.863,198.333,44.186,198.333,42.107z"/>
			<circle style="fill:#393B44;" cx="194.578" cy="42.107" r="3.756"/>
			<path style="fill:#B0E2E0;" d="M285.636,59.771V400.39c0,4.521-3.705,8.226-8.226,8.226H112.432
				c-4.521,0-8.226-3.705-8.226-8.226V59.771c0-4.521,3.705-8.216,8.226-8.216H277.41C281.931,51.554,285.636,55.25,285.636,59.771z
				"/>
			<path d="M194.681,48.665v2.889h-82.249c-4.521,0-8.226,3.695-8.226,8.216V400.39h-1.776V50.134c0-0.566,0.029-1.123,0.077-1.68
				c0.298-2.832,1.315-5.452,2.87-7.679c0.173-0.25,0.346-0.49,0.528-0.72c0.739-0.95,1.584-1.814,2.505-2.582
				c0.461-0.374,0.941-0.739,1.449-1.075h58.598c0,0,5.682-0.912,12.449,4.319C187.684,45.959,188.317,48.665,194.681,48.665z"/>
		</g>
		<g>
			<g>
				<g>
					<circle cx="258.56" cy="80.62" r="1.862"/>
					<circle cx="266.384" cy="80.62" r="1.862"/>
					<circle cx="274.209" cy="80.62" r="1.862"/>
					<circle cx="282.033" cy="80.62" r="1.862"/>
					<circle cx="289.858" cy="80.62" r="1.862"/>
				</g>
				<g>
					<circle cx="258.56" cy="88.558" r="1.862"/>
					<circle cx="266.384" cy="88.558" r="1.862"/>
					<circle cx="274.209" cy="88.558" r="1.862"/>
					<circle cx="282.033" cy="88.558" r="1.862"/>
					<circle cx="289.858" cy="88.558" r="1.862"/>
				</g>
			</g>
			<g>
				<g>
					<circle cx="258.56" cy="57.586" r="1.862"/>
					<circle cx="266.384" cy="57.586" r="1.862"/>
					<circle cx="274.209" cy="57.586" r="1.862"/>
					<circle cx="282.033" cy="57.586" r="1.862"/>
					<circle cx="289.858" cy="57.586" r="1.862"/>
				</g>
				<g>
					<circle cx="258.56" cy="65.524" r="1.862"/>
					<circle cx="266.384" cy="65.524" r="1.862"/>
					<circle cx="274.209" cy="65.524" r="1.862"/>
					<circle cx="282.033" cy="65.524" r="1.862"/>
					<circle cx="289.858" cy="65.524" r="1.862"/>
				</g>
				<g>
					<circle cx="258.56" cy="73.463" r="1.862"/>
					<circle cx="266.384" cy="73.463" r="1.862"/>
					<circle cx="274.209" cy="73.463" r="1.862"/>
					<circle cx="282.033" cy="73.463" r="1.862"/>
					<circle cx="289.858" cy="73.463" r="1.862"/>
				</g>
			</g>
		</g>
		<g>
			<g>
				<path style="fill:#FDFFFF;" d="M242.605,41.786v26.731c0,3.902-3.193,7.095-7.095,7.095h-36.429l-19.04,11.671l3.461-11.671
					h-2.637c-3.902,0-7.095-3.193-7.095-7.095V41.786c0-3.902,3.193-7.095,7.095-7.095h54.645
					C239.412,34.691,242.605,37.884,242.605,41.786z"/>
				<path style="fill:none;stroke:#000000;stroke-miterlimit:10;" d="M241.422,40.604v26.731c0,3.902-3.193,7.095-7.095,7.095
					h-36.429l-19.04,11.671l3.461-11.671h-2.637c-3.902,0-7.095-3.193-7.095-7.095V40.604c0-3.902,3.193-7.095,7.095-7.095h54.645
					C238.23,33.509,241.422,36.702,241.422,40.604z"/>
				<path style="fill:#4CCCD3;" d="M232.029,46.29h-50.017c-1.125,0-2.046-0.921-2.046-2.046v0c0-1.125,0.921-2.046,2.046-2.046
					h50.017c1.125,0,2.046,0.921,2.046,2.046v0C234.075,45.37,233.155,46.29,232.029,46.29z"/>
				<path style="fill:#4CCCD3;" d="M232.029,55.718h-50.017c-1.125,0-2.046-0.921-2.046-2.046v0c0-1.125,0.921-2.046,2.046-2.046
					h50.017c1.125,0,2.046,0.921,2.046,2.046v0C234.075,54.798,233.155,55.718,232.029,55.718z"/>
				<path style="fill:#4CCCD3;" d="M213.225,64.079h-31.143c-1.172,0-2.131-0.959-2.131-2.131v-0.012
					c0-1.172,0.959-2.131,2.131-2.131h31.143c1.172,0,2.131,0.959,2.131,2.131v0.012C215.356,63.12,214.397,64.079,213.225,64.079z"
					/>
			</g>
			<g>
				<rect x="113.331" y="71.132" style="fill:#FFB3B3;" width="59.256" height="59.256"/>
				<g>
					<path style="fill:#FDFFFF;" d="M135.889,79.544v29.373h-6.798V84.999h-5.874v-5.455H135.889z"/>
					<path style="fill:#FDFFFF;" d="M162.701,99.937c0,4.952-3.818,9.483-12.169,9.483c-4.112,0-8.35-1.133-11.204-3.147
						l2.644-5.203c2.224,1.678,5.329,2.643,8.392,2.643c3.399,0,5.497-1.384,5.497-3.777c0-2.224-1.637-3.608-5.497-3.608h-3.105
						v-4.49l6.042-6.84h-12.504v-5.455h20.561v4.406l-6.63,7.553C160.015,92.342,162.701,95.615,162.701,99.937z"/>
				</g>
				<g>
					<path style="fill:#FDFFFF;" d="M130.21,120.801l1.036-1.243c0.437,0.587,0.921,0.886,1.496,0.886
						c0.748,0,1.139-0.449,1.139-1.335v-3.834h-2.832v-1.496h4.685v5.227c0,1.991-1.002,2.97-2.901,2.97
						C131.752,121.976,130.797,121.561,130.21,120.801z"/>
					<path style="fill:#FDFFFF;" d="M137.511,118.292v-4.513h1.865v4.443c0,1.531,0.668,2.164,1.796,2.164
						c1.14,0,1.796-0.633,1.796-2.164v-4.443h1.842v4.513c0,2.371-1.358,3.684-3.649,3.684
						C138.87,121.976,137.511,120.663,137.511,118.292z"/>
					<path style="fill:#FDFFFF;" d="M154.047,113.779v8.058h-1.531l-4.017-4.892v4.892h-1.842v-8.058h1.542l4.006,4.892v-4.892
						H154.047z"/>
				</g>
			</g>
			<rect x="177.103" y="127.239" style="fill:#837AF9;" width="69.867" height="3.149"/>
			<rect x="177.103" y="119.422" style="fill:#837AF9;" width="101.64" height="3.149"/>
			<rect x="177.103" y="111.755" style="fill:#837AF9;" width="101.64" height="3.149"/>
			<rect x="177.103" y="103.937" style="fill:#837AF9;" width="101.64" height="3.149"/>
			<rect x="177.103" y="96.555" style="fill:#837AF9;" width="101.64" height="3.149"/>
		</g>
		<g>
			<g>
				<g>
					<circle cx="86.782" cy="233.89" r="1.862"/>
					<circle cx="94.606" cy="233.89" r="1.862"/>
					<circle cx="102.431" cy="233.89" r="1.862"/>
					<circle cx="110.255" cy="233.89" r="1.862"/>
					<circle cx="118.08" cy="233.89" r="1.862"/>
				</g>
				<g>
					<circle cx="86.782" cy="241.829" r="1.862"/>
					<circle cx="94.606" cy="241.829" r="1.862"/>
					<circle cx="102.431" cy="241.829" r="1.862"/>
					<circle cx="110.255" cy="241.829" r="1.862"/>
					<circle cx="118.08" cy="241.829" r="1.862"/>
				</g>
			</g>
			<g>
				<g>
					<circle cx="86.782" cy="210.856" r="1.862"/>
					<circle cx="94.606" cy="210.856" r="1.862"/>
					<circle cx="102.431" cy="210.856" r="1.862"/>
					<circle cx="110.255" cy="210.856" r="1.862"/>
					<circle cx="118.08" cy="210.856" r="1.862"/>
				</g>
				<g>
					<circle cx="86.782" cy="218.795" r="1.862"/>
					<circle cx="94.606" cy="218.795" r="1.862"/>
					<circle cx="102.431" cy="218.795" r="1.862"/>
					<circle cx="110.255" cy="218.795" r="1.862"/>
					<circle cx="118.08" cy="218.795" r="1.862"/>
				</g>
				<g>
					<circle cx="86.782" cy="226.733" r="1.862"/>
					<circle cx="94.606" cy="226.733" r="1.862"/>
					<circle cx="102.431" cy="226.733" r="1.862"/>
					<circle cx="110.255" cy="226.733" r="1.862"/>
					<circle cx="118.08" cy="226.733" r="1.862"/>
				</g>
			</g>
		</g>
		<line style="fill:none;stroke:#000000;stroke-miterlimit:10;" x1="112.117" y1="274.724" x2="276.07" y2="274.724"/>
		<g>
			<path d="M87.549,309.255c-0.045,0-0.091-0.007-0.137-0.02c-0.45-0.134-0.898-0.271-1.346-0.411
				c-0.253-0.08-0.394-0.349-0.314-0.602c0.079-0.253,0.345-0.396,0.601-0.315c0.443,0.14,0.888,0.275,1.333,0.407
				c0.254,0.076,0.399,0.343,0.323,0.597C87.946,309.12,87.756,309.255,87.549,309.255z M81.67,307.284
				c-0.056,0-0.113-0.009-0.169-0.031c-1.507-0.566-3.011-1.18-4.468-1.824c-0.242-0.107-0.352-0.39-0.245-0.633
				c0.108-0.241,0.391-0.352,0.633-0.245c1.441,0.636,2.927,1.243,4.418,1.803c0.248,0.093,0.374,0.369,0.281,0.618
				C82.047,307.165,81.864,307.284,81.67,307.284z M72.894,303.406c-0.074,0-0.148-0.017-0.218-0.052
				c-1.435-0.735-2.858-1.516-4.231-2.323c-0.228-0.134-0.305-0.428-0.171-0.656c0.134-0.229,0.429-0.306,0.657-0.171
				c1.356,0.797,2.763,1.569,4.182,2.295c0.236,0.121,0.329,0.411,0.209,0.646C73.237,303.311,73.068,303.406,72.894,303.406z
				 M64.626,298.543c-0.092,0-0.185-0.026-0.267-0.082c-1.336-0.897-2.655-1.845-3.921-2.817c-0.21-0.161-0.25-0.463-0.088-0.673
				c0.161-0.209,0.463-0.249,0.673-0.088c1.25,0.96,2.552,1.895,3.871,2.781c0.22,0.148,0.278,0.446,0.131,0.666
				C64.932,298.469,64.78,298.543,64.626,298.543z M57.021,292.702c-0.112,0-0.225-0.039-0.316-0.119
				c-1.218-1.069-2.403-2.18-3.523-3.305c-0.187-0.187-0.186-0.491,0.001-0.679c0.187-0.187,0.491-0.187,0.679,0.002
				c1.105,1.109,2.274,2.207,3.475,3.26c0.199,0.175,0.219,0.478,0.045,0.678C57.286,292.646,57.154,292.702,57.021,292.702z
				 M50.259,285.902c-0.135,0-0.268-0.056-0.363-0.166c-1.053-1.219-2.069-2.488-3.022-3.772c-0.158-0.213-0.113-0.514,0.099-0.671
				c0.211-0.158,0.513-0.115,0.671,0.099c0.939,1.265,1.941,2.515,2.978,3.716c0.173,0.201,0.151,0.504-0.05,0.677
				C50.482,285.864,50.37,285.902,50.259,285.902z M44.549,278.199c-0.159,0-0.315-0.08-0.406-0.224
				c-0.431-0.684-0.849-1.378-1.253-2.081c-0.401-0.695-0.786-1.4-1.158-2.115c-0.122-0.235-0.03-0.525,0.205-0.647
				c0.235-0.125,0.525-0.032,0.647,0.204c0.365,0.701,0.744,1.395,1.137,2.078c0.398,0.693,0.809,1.375,1.233,2.048
				c0.142,0.224,0.074,0.521-0.15,0.662C44.725,278.176,44.636,278.199,44.549,278.199z M40.127,269.689
				c-0.188,0-0.366-0.111-0.443-0.295c-0.617-1.478-1.18-3.005-1.675-4.539c-0.081-0.252,0.057-0.523,0.31-0.604
				c0.254-0.082,0.523,0.057,0.604,0.309c0.486,1.508,1.04,3.01,1.646,4.464c0.102,0.245-0.014,0.526-0.258,0.628
				C40.251,269.677,40.189,269.689,40.127,269.689z M37.183,260.566c-0.218,0-0.415-0.149-0.467-0.37
				c-0.366-1.565-0.671-3.164-0.906-4.752c-0.039-0.262,0.142-0.506,0.404-0.545c0.262-0.04,0.507,0.142,0.545,0.404
				c0.232,1.563,0.531,3.134,0.891,4.674c0.06,0.259-0.1,0.516-0.358,0.577C37.256,260.562,37.219,260.566,37.183,260.566z
				 M35.781,251.082c-0.251,0-0.463-0.196-0.479-0.45c-0.075-1.183-0.112-2.377-0.112-3.551c0-0.429,0.005-0.859,0.015-1.287
				c0.006-0.264,0.233-0.472,0.491-0.469c0.265,0.007,0.475,0.226,0.469,0.491c-0.01,0.421-0.015,0.843-0.015,1.265
				c0,1.152,0.037,2.326,0.111,3.49c0.017,0.264-0.184,0.492-0.449,0.509C35.801,251.082,35.791,251.082,35.781,251.082z
				 M36.009,241.499c-0.018,0-0.036-0.001-0.054-0.003c-0.263-0.03-0.453-0.268-0.423-0.531c0.182-1.612,0.44-3.221,0.766-4.781
				c0.053-0.259,0.307-0.43,0.568-0.372c0.26,0.054,0.426,0.308,0.372,0.568c-0.319,1.531-0.572,3.11-0.751,4.693
				C36.458,241.318,36.25,241.499,36.009,241.499z M37.974,232.118c-0.047,0-0.096-0.007-0.143-0.022
				c-0.253-0.079-0.394-0.348-0.314-0.601c0.484-1.548,1.049-3.077,1.679-4.546c0.104-0.243,0.385-0.358,0.63-0.252
				c0.243,0.105,0.356,0.387,0.252,0.63c-0.617,1.438-1.171,2.937-1.646,4.454C38.367,231.987,38.178,232.118,37.974,232.118z
				 M41.756,223.316c-0.079,0-0.16-0.02-0.234-0.061c-0.231-0.129-0.314-0.422-0.184-0.653c0.222-0.396,0.449-0.788,0.683-1.177
				c0.579-0.964,1.218-1.946,1.899-2.921c0.151-0.217,0.451-0.272,0.668-0.119c0.217,0.152,0.27,0.451,0.119,0.668
				c-0.668,0.957-1.295,1.921-1.863,2.866c-0.229,0.382-0.452,0.766-0.669,1.153C42.087,223.228,41.924,223.316,41.756,223.316z
				 M47.218,215.44c-0.107,0-0.215-0.036-0.304-0.109c-0.205-0.168-0.235-0.471-0.067-0.675c0.962-1.173,1.998-2.363,3.168-3.639
				c0.179-0.195,0.482-0.209,0.678-0.03c0.195,0.179,0.209,0.483,0.03,0.678c-1.158,1.264-2.183,2.441-3.134,3.599
				C47.494,215.38,47.357,215.44,47.218,215.44z M53.677,208.342c-0.121,0-0.242-0.045-0.336-0.137
				c-0.189-0.186-0.192-0.49-0.007-0.679c1.12-1.143,2.253-2.275,3.388-3.408c0.187-0.187,0.491-0.187,0.679,0.001
				c0.187,0.187,0.187,0.491-0.001,0.679c-1.132,1.13-2.263,2.259-3.38,3.4C53.925,208.294,53.801,208.342,53.677,208.342z
				 M60.448,201.538c-0.121,0-0.243-0.046-0.337-0.138c-0.189-0.186-0.192-0.49-0.006-0.679c0.953-0.97,1.897-1.946,2.822-2.936
				l0.484-0.522c0.18-0.195,0.483-0.207,0.678-0.028c0.195,0.18,0.207,0.484,0.028,0.678l-0.488,0.526
				c-0.932,0.996-1.881,1.979-2.84,2.954C60.696,201.491,60.572,201.538,60.448,201.538z M66.921,194.453
				c-0.107,0-0.215-0.036-0.304-0.109c-0.205-0.168-0.234-0.471-0.066-0.675c1.046-1.274,2.02-2.548,2.895-3.785
				c0.153-0.216,0.453-0.268,0.669-0.115c0.217,0.153,0.268,0.452,0.115,0.669c-0.888,1.256-1.876,2.548-2.937,3.84
				C67.197,194.393,67.06,194.453,66.921,194.453z M72.43,186.605c-0.082,0-0.164-0.021-0.239-0.064
				c-0.23-0.133-0.308-0.426-0.176-0.656c0.816-1.414,1.536-2.837,2.139-4.23c0.106-0.242,0.387-0.354,0.631-0.25
				c0.243,0.105,0.355,0.388,0.25,0.631c-0.618,1.427-1.355,2.883-2.189,4.329C72.757,186.519,72.596,186.605,72.43,186.605z
				 M76.198,177.808c-0.042,0-0.085-0.006-0.128-0.017c-0.255-0.07-0.405-0.334-0.335-0.59c0.425-1.545,0.721-3.103,0.881-4.63
				c0.027-0.264,0.259-0.46,0.527-0.427c0.264,0.027,0.455,0.263,0.427,0.527c-0.165,1.58-0.471,3.19-0.91,4.786
				C76.601,177.668,76.408,177.808,76.198,177.808z M77.172,168.309c-0.25,0-0.461-0.194-0.479-0.447
				c-0.104-1.52-0.326-3.048-0.678-4.671c-0.056-0.259,0.108-0.515,0.367-0.571c0.259-0.057,0.515,0.109,0.571,0.367
				c0.357,1.646,0.591,3.264,0.697,4.809c0.018,0.264-0.182,0.493-0.446,0.512C77.194,168.308,77.183,168.309,77.172,168.309z
				 M75.205,158.945c-0.202,0-0.389-0.127-0.456-0.329c-0.459-1.385-1.004-2.847-1.667-4.469c-0.1-0.245,0.017-0.525,0.263-0.626
				c0.243-0.102,0.525,0.017,0.626,0.263c0.671,1.642,1.224,3.123,1.689,4.53c0.083,0.252-0.053,0.523-0.305,0.606
				C75.306,158.937,75.255,158.945,75.205,158.945z M71.624,150.036c-0.184,0-0.359-0.105-0.438-0.284
				c-0.363-0.809-0.73-1.617-1.097-2.425l-0.883-1.949c-0.109-0.241-0.001-0.525,0.241-0.635c0.241-0.11,0.525-0.001,0.635,0.241
				l0.881,1.946c0.367,0.809,0.735,1.619,1.098,2.429c0.109,0.242,0,0.526-0.241,0.634C71.757,150.023,71.69,150.036,71.624,150.036
				z M67.73,141.261c-0.188,0-0.367-0.112-0.443-0.296c-0.68-1.643-1.241-3.119-1.714-4.513c-0.085-0.251,0.049-0.524,0.3-0.609
				c0.253-0.084,0.524,0.05,0.609,0.3c0.466,1.374,1.02,2.831,1.692,4.454c0.101,0.245-0.015,0.526-0.26,0.627
				C67.854,141.25,67.791,141.261,67.73,141.261z M64.707,132.167c-0.219,0-0.417-0.151-0.468-0.374
				c-0.373-1.645-0.624-3.261-0.746-4.802c-0.021-0.264,0.177-0.495,0.441-0.516c0.26-0.018,0.495,0.176,0.516,0.441
				c0.118,1.495,0.362,3.065,0.725,4.664c0.059,0.259-0.104,0.516-0.362,0.575C64.778,132.163,64.742,132.167,64.707,132.167z
				 M64.009,122.641c-0.015,0-0.031-0.001-0.047-0.002c-0.263-0.026-0.456-0.261-0.431-0.524c0.156-1.592,0.461-3.203,0.908-4.789
				c0.073-0.254,0.339-0.401,0.592-0.332c0.255,0.072,0.404,0.337,0.332,0.592c-0.432,1.531-0.727,3.087-0.877,4.623
				C64.461,122.456,64.253,122.641,64.009,122.641z M66.561,113.44c-0.067,0-0.134-0.014-0.199-0.044
				c-0.241-0.11-0.347-0.395-0.237-0.636c0.642-1.406,1.414-2.845,2.296-4.278c0.138-0.225,0.432-0.296,0.66-0.157
				c0.225,0.139,0.296,0.434,0.157,0.66c-0.861,1.399-1.615,2.803-2.241,4.173C66.918,113.335,66.744,113.44,66.561,113.44z
				 M71.541,105.255c-0.1,0-0.202-0.031-0.288-0.097c-0.212-0.159-0.254-0.46-0.095-0.672c0.922-1.225,1.916-2.454,3.041-3.755
				c0.173-0.202,0.478-0.222,0.677-0.05c0.201,0.173,0.223,0.476,0.05,0.677c-1.11,1.286-2.092,2.498-3,3.706
				C71.831,105.189,71.687,105.255,71.541,105.255z M77.787,97.969c-0.119,0-0.237-0.044-0.33-0.131
				c-0.193-0.182-0.201-0.486-0.019-0.679c1.108-1.171,2.234-2.319,3.357-3.448c0.187-0.187,0.492-0.188,0.679-0.002
				c0.188,0.187,0.189,0.491,0.002,0.679c-1.118,1.123-2.238,2.266-3.34,3.431C78.041,97.918,77.914,97.969,77.787,97.969z
				 M84.533,91.14c-0.123,0-0.247-0.047-0.34-0.141c-0.187-0.188-0.186-0.492,0.001-0.679l3.4-3.387
				c0.187-0.187,0.491-0.187,0.679,0.001c0.187,0.188,0.187,0.492-0.001,0.679L84.872,91C84.778,91.094,84.655,91.14,84.533,91.14z
				 M91.334,84.366c-0.123,0-0.246-0.047-0.34-0.141c-0.187-0.188-0.186-0.492,0.001-0.679l3.4-3.387
				c0.188-0.188,0.492-0.187,0.679,0.001c0.187,0.188,0.187,0.492-0.001,0.679l-3.4,3.388
				C91.579,84.319,91.456,84.366,91.334,84.366z"/>
		</g>
		<g>
			<path d="M299.748,351.562c-0.194,0-0.377-0.118-0.449-0.31c-0.454-1.202-0.684-2.481-0.684-3.802
				c0-0.377,0.019-0.755,0.054-1.131c0.026-0.264,0.265-0.449,0.524-0.432c0.263,0.025,0.457,0.26,0.432,0.524
				c-0.034,0.347-0.051,0.693-0.051,1.04c0,1.204,0.209,2.37,0.622,3.463c0.094,0.248-0.032,0.525-0.279,0.619
				C299.862,351.552,299.804,351.562,299.748,351.562z M300.412,342.238c-0.065,0-0.13-0.013-0.193-0.04
				c-0.243-0.108-0.353-0.391-0.247-0.633c0.611-1.385,1.43-2.811,2.437-4.238c0.152-0.217,0.452-0.269,0.668-0.115
				c0.217,0.153,0.268,0.452,0.115,0.668c-0.969,1.375-1.758,2.745-2.341,4.071C300.772,342.131,300.596,342.238,300.412,342.238z
				 M305.835,334.368c-0.116,0-0.233-0.042-0.325-0.128c-0.195-0.18-0.207-0.484-0.027-0.678c1.054-1.142,2.192-2.299,3.384-3.442
				c0.19-0.185,0.495-0.177,0.678,0.014c0.184,0.191,0.177,0.495-0.014,0.678c-1.176,1.129-2.301,2.274-3.343,3.401
				C306.093,334.316,305.965,334.368,305.835,334.368z M312.747,327.716c-0.134,0-0.268-0.056-0.363-0.166
				c-0.173-0.2-0.152-0.503,0.049-0.677c1.154-1.001,2.399-2.038,3.701-3.082c0.205-0.165,0.508-0.133,0.674,0.074
				c0.166,0.206,0.133,0.508-0.074,0.674c-1.292,1.037-2.527,2.066-3.673,3.06C312.971,327.678,312.859,327.716,312.747,327.716z
				 M320.219,321.695c-0.144,0-0.288-0.066-0.382-0.189c-0.16-0.211-0.119-0.512,0.092-0.673c1.274-0.968,2.56-1.925,3.852-2.875
				c0.212-0.158,0.514-0.112,0.67,0.102c0.157,0.213,0.112,0.514-0.102,0.67c-1.287,0.948-2.569,1.901-3.839,2.867
				C320.422,321.663,320.32,321.695,320.219,321.695z M327.936,315.989c-0.147,0-0.293-0.068-0.387-0.197
				c-0.157-0.214-0.11-0.515,0.104-0.67c1.291-0.944,2.581-1.888,3.865-2.84c0.214-0.157,0.515-0.113,0.671,0.099
				c0.158,0.213,0.113,0.514-0.099,0.671c-1.286,0.954-2.578,1.9-3.87,2.844C328.134,315.959,328.034,315.989,327.936,315.989z
				 M335.634,310.254c-0.143,0-0.286-0.065-0.38-0.187c-0.162-0.21-0.124-0.512,0.086-0.673c1.347-1.04,2.573-2.012,3.747-2.976
				c0.203-0.167,0.508-0.139,0.676,0.067s0.138,0.508-0.067,0.676c-1.182,0.969-2.415,1.949-3.769,2.993
				C335.84,310.221,335.737,310.254,335.634,310.254z M343.04,304.151c-0.131,0-0.262-0.053-0.357-0.159
				c-0.177-0.198-0.16-0.501,0.037-0.678l0.268-0.241c1.088-0.979,2.16-2.002,3.187-3.044c0.188-0.19,0.492-0.191,0.679-0.006
				c0.189,0.187,0.191,0.49,0.006,0.679c-1.041,1.056-2.127,2.094-3.228,3.084l-0.27,0.243
				C343.268,304.111,343.154,304.151,343.04,304.151z M349.766,297.314c-0.111,0-0.222-0.038-0.313-0.116
				c-0.201-0.172-0.224-0.475-0.051-0.677c1.051-1.223,2.051-2.476,2.972-3.723c0.159-0.213,0.46-0.257,0.671-0.101
				c0.214,0.157,0.259,0.458,0.101,0.671c-0.935,1.266-1.951,2.537-3.017,3.779C350.035,297.258,349.901,297.314,349.766,297.314z
				 M355.459,289.595c-0.086,0-0.173-0.023-0.252-0.072c-0.226-0.141-0.294-0.436-0.155-0.661c0.852-1.369,1.637-2.764,2.332-4.146
				c0.12-0.238,0.407-0.334,0.644-0.213c0.237,0.119,0.332,0.408,0.213,0.644c-0.708,1.408-1.507,2.828-2.373,4.221
				C355.777,289.515,355.621,289.595,355.459,289.595z M359.75,281.022c-0.056,0-0.114-0.01-0.171-0.031
				c-0.247-0.095-0.372-0.371-0.278-0.62c0.572-1.504,1.05-3.026,1.421-4.521c0.064-0.256,0.322-0.412,0.581-0.351
				c0.258,0.064,0.414,0.324,0.351,0.581c-0.381,1.533-0.871,3.091-1.455,4.631C360.125,280.904,359.943,281.022,359.75,281.022z
				 M362.031,271.726c-0.018,0-0.035-0.001-0.052-0.003c-0.263-0.028-0.454-0.265-0.426-0.529c0.123-1.134,0.185-2.278,0.185-3.398
				c0-0.44-0.009-0.88-0.029-1.32c-0.011-0.265,0.194-0.489,0.458-0.501c0.298-0.014,0.488,0.195,0.501,0.458
				c0.021,0.455,0.03,0.908,0.03,1.363c0,1.155-0.064,2.332-0.19,3.501C362.481,271.543,362.273,271.726,362.031,271.726z
				 M361.598,262.176c-0.222,0-0.422-0.156-0.469-0.382c-0.067-0.321-0.139-0.641-0.215-0.961c-0.284-1.172-0.653-2.375-1.097-3.573
				c-0.092-0.248,0.035-0.525,0.283-0.617c0.249-0.094,0.525,0.035,0.617,0.283c0.457,1.234,0.837,2.473,1.13,3.684
				c0.078,0.329,0.152,0.659,0.22,0.989c0.054,0.26-0.112,0.514-0.372,0.567C361.664,262.173,361.631,262.176,361.598,262.176z
				 M358.33,253.184c-0.174,0-0.343-0.096-0.428-0.262c-0.657-1.295-1.416-2.656-2.323-4.159c-0.136-0.227-0.063-0.522,0.164-0.659
				c0.225-0.133,0.521-0.064,0.659,0.164c0.918,1.523,1.688,2.903,2.356,4.219c0.12,0.236,0.025,0.526-0.211,0.646
				C358.478,253.167,358.404,253.184,358.33,253.184z M353.433,244.937c-0.157,0-0.311-0.077-0.403-0.219l-0.999-1.533
				c-0.542-0.83-1.085-1.66-1.62-2.492c-0.143-0.223-0.079-0.52,0.144-0.663c0.222-0.145,0.519-0.08,0.664,0.144
				c0.533,0.831,1.074,1.659,1.615,2.486l1,1.535c0.144,0.223,0.082,0.52-0.141,0.664
				C353.613,244.912,353.522,244.937,353.433,244.937z M348.291,236.831c-0.164,0-0.325-0.085-0.414-0.238l-0.473-0.819
				c-0.635-1.118-1.248-2.274-1.821-3.434c-0.117-0.238-0.02-0.525,0.217-0.643c0.236-0.117,0.526-0.021,0.643,0.217
				c0.565,1.145,1.17,2.283,1.795,3.385l0.468,0.809c0.134,0.229,0.057,0.523-0.172,0.657
				C348.457,236.81,348.374,236.831,348.291,236.831z M344.044,228.233c-0.189,0-0.368-0.112-0.444-0.299
				c-0.604-1.479-1.165-3.004-1.668-4.535c-0.083-0.252,0.054-0.523,0.306-0.606c0.251-0.084,0.523,0.054,0.606,0.306
				c0.497,1.51,1.05,3.014,1.645,4.472c0.1,0.246-0.018,0.525-0.263,0.626C344.166,228.221,344.105,228.233,344.044,228.233z
				 M341.05,219.121c-0.215,0-0.411-0.145-0.465-0.362c-0.393-1.551-0.737-3.14-1.023-4.722c-0.047-0.261,0.127-0.51,0.387-0.558
				c0.257-0.045,0.51,0.126,0.558,0.387c0.281,1.56,0.621,3.127,1.008,4.657c0.066,0.257-0.09,0.518-0.347,0.583
				C341.128,219.116,341.088,219.121,341.05,219.121z M339.345,209.683c-0.241,0-0.449-0.182-0.476-0.427
				c-0.175-1.602-0.296-3.224-0.358-4.819c-0.01-0.265,0.197-0.488,0.461-0.498c0.312-0.008,0.488,0.197,0.499,0.461
				c0.061,1.573,0.179,3.172,0.352,4.751c0.029,0.264-0.161,0.501-0.425,0.53C339.381,209.682,339.363,209.683,339.345,209.683z
				 M338.974,200.1c-0.005,0-0.01,0-0.015,0c-0.265-0.008-0.473-0.23-0.465-0.495c0.05-1.565,0.156-3.148,0.315-4.704l0.013-0.125
				c0.032-0.264,0.279-0.446,0.533-0.42c0.262,0.031,0.451,0.27,0.419,0.533l-0.01,0.106c-0.157,1.537-0.262,3.097-0.31,4.64
				C339.446,199.895,339.233,200.1,338.974,200.1z M339.952,190.559c-0.027,0-0.053-0.002-0.081-0.007
				c-0.262-0.044-0.438-0.292-0.394-0.553c0.257-1.522,0.56-3.07,0.924-4.733c0.056-0.258,0.31-0.42,0.572-0.366
				c0.259,0.057,0.423,0.313,0.366,0.572c-0.361,1.646-0.661,3.179-0.915,4.686C340.385,190.393,340.182,190.559,339.952,190.559z
				 M341.99,181.183c-0.039,0-0.08-0.005-0.12-0.015c-0.256-0.066-0.411-0.328-0.345-0.584c0.399-1.551,0.82-3.098,1.252-4.643
				c0.071-0.254,0.335-0.404,0.591-0.333c0.255,0.071,0.404,0.336,0.333,0.591c-0.43,1.539-0.849,3.079-1.247,4.623
				C342.398,181.039,342.203,181.183,341.99,181.183z M344.556,171.935c-0.044,0-0.088-0.006-0.133-0.019
				c-0.254-0.073-0.401-0.339-0.328-0.594l0.084-0.294c0.414-1.438,0.829-2.877,1.233-4.318c0.071-0.255,0.338-0.405,0.591-0.332
				c0.256,0.072,0.404,0.337,0.333,0.592c-0.405,1.443-0.819,2.883-1.234,4.324l-0.084,0.294
				C344.956,171.798,344.765,171.935,344.556,171.935z M347.132,162.688c-0.039,0-0.08-0.005-0.121-0.015
				c-0.256-0.067-0.411-0.329-0.344-0.585c0.432-1.665,0.801-3.185,1.127-4.648c0.057-0.259,0.318-0.42,0.573-0.364
				c0.259,0.058,0.422,0.314,0.365,0.573c-0.329,1.474-0.7,3.004-1.134,4.68C347.541,162.545,347.346,162.688,347.132,162.688z
				 M349.195,153.317c-0.027,0-0.053-0.002-0.081-0.007c-0.262-0.044-0.438-0.292-0.394-0.553c0.266-1.577,0.48-3.166,0.636-4.724
				c0.026-0.265,0.282-0.453,0.525-0.43c0.263,0.027,0.456,0.262,0.429,0.525c-0.157,1.579-0.375,3.19-0.644,4.787
				C349.628,153.152,349.425,153.317,349.195,153.317z M350.138,143.773c-0.004,0-0.008,0-0.012,0
				c-0.265-0.007-0.474-0.227-0.468-0.492c0.013-0.506,0.02-1.01,0.02-1.515c0-1.091-0.032-2.182-0.094-3.243
				c-0.016-0.265,0.187-0.492,0.451-0.507c0.261-0.01,0.491,0.187,0.507,0.451c0.064,1.079,0.096,2.19,0.096,3.299
				c0,0.513-0.007,1.026-0.02,1.54C350.611,143.567,350.398,143.773,350.138,143.773z M349.554,134.204
				c-0.232,0-0.436-0.169-0.473-0.405c-0.251-1.598-0.586-3.158-0.995-4.637c-0.071-0.255,0.079-0.52,0.335-0.591
				c0.253-0.071,0.52,0.08,0.59,0.335c0.419,1.514,0.762,3.11,1.019,4.744c0.041,0.262-0.138,0.508-0.399,0.549
				C349.605,134.202,349.579,134.204,349.554,134.204z M346.975,124.983c-0.187,0-0.364-0.11-0.441-0.292
				c-0.624-1.47-1.352-2.882-2.162-4.198c-0.139-0.226-0.068-0.522,0.157-0.66c0.222-0.138,0.52-0.07,0.66,0.157
				c0.835,1.357,1.584,2.812,2.227,4.326c0.104,0.244-0.01,0.525-0.254,0.629C347.102,124.971,347.038,124.983,346.975,124.983z
				 M341.946,116.858c-0.134,0-0.268-0.056-0.363-0.165c-0.171-0.197-0.344-0.391-0.521-0.583c-0.882-0.96-1.841-1.872-2.85-2.71
				c-0.204-0.17-0.232-0.472-0.063-0.676c0.17-0.204,0.475-0.231,0.676-0.063c1.042,0.866,2.032,1.808,2.943,2.799
				c0.183,0.2,0.364,0.401,0.54,0.604c0.173,0.201,0.152,0.504-0.049,0.677C342.169,116.82,342.057,116.858,341.946,116.858z
				 M334.607,110.741c-0.084,0-0.17-0.022-0.247-0.068c-1.31-0.787-2.727-1.511-4.211-2.152c-0.244-0.105-0.355-0.388-0.25-0.631
				c0.104-0.244,0.389-0.355,0.631-0.25c1.523,0.658,2.979,1.401,4.326,2.21c0.227,0.136,0.301,0.432,0.164,0.658
				C334.929,110.658,334.769,110.741,334.607,110.741z M325.835,106.918c-0.046,0-0.093-0.007-0.14-0.021
				c-1.455-0.443-3.005-0.837-4.607-1.169c-0.26-0.054-0.426-0.308-0.372-0.568c0.054-0.26,0.312-0.424,0.567-0.373
				c1.631,0.339,3.209,0.74,4.691,1.191c0.254,0.077,0.396,0.345,0.32,0.599C326.231,106.785,326.041,106.918,325.835,106.918z
				 M316.457,104.938c-0.022,0-0.043-0.001-0.065-0.004c-1.506-0.202-3.103-0.368-4.746-0.494c-0.264-0.02-0.462-0.251-0.441-0.515
				c0.02-0.265,0.275-0.459,0.515-0.442c1.661,0.127,3.276,0.296,4.8,0.5c0.262,0.035,0.447,0.277,0.411,0.539
				C316.9,104.762,316.694,104.938,316.457,104.938z M306.891,104.179c-0.006,0-0.01,0-0.016,0
				c-1.509-0.051-3.075-0.078-4.786-0.082c-0.265,0-0.48-0.216-0.479-0.481c0.001-0.264,0.216-0.479,0.48-0.479h0.001
				c1.722,0.005,3.297,0.032,4.816,0.083c0.265,0.009,0.472,0.231,0.464,0.496C307.361,103.975,307.149,104.179,306.891,104.179z"/>
		</g>
		<g>
			<path style="fill:#4CCCD3;" d="M262.648,316.541H125.54c-7.947,0-14.449-6.502-14.449-14.449v0
				c0-7.947,6.502-14.449,14.449-14.449h137.108c7.947,0,14.449,6.502,14.449,14.449v0
				C277.097,310.039,270.595,316.541,262.648,316.541z"/>
			<path style="fill:#FFB3B3;" d="M262.648,348.235H125.54c-7.947,0-14.449-6.502-14.449-14.449v0
				c0-7.947,6.502-14.449,14.449-14.449h137.108c7.947,0,14.449,6.502,14.449,14.449v0
				C277.097,341.733,270.595,348.235,262.648,348.235z"/>
			<path style="fill:#837AF9;" d="M262.648,381.228H125.54c-7.947,0-14.449-6.502-14.449-14.449v0
				c0-7.947,6.502-14.449,14.449-14.449h137.108c7.947,0,14.449,6.502,14.449,14.449v0
				C277.097,374.725,270.595,381.228,262.648,381.228z"/>
			<g>
				<g>
					<path style="fill:#FDFFFF;" d="M127.738,314.019c-6.577,0-11.928-5.351-11.928-11.928s5.351-11.928,11.928-11.928
						c6.577,0,11.928,5.351,11.928,11.928S134.316,314.019,127.738,314.019z M127.738,292.646c-5.208,0-9.446,4.237-9.446,9.446
						s4.237,9.446,9.446,9.446c5.208,0,9.446-4.237,9.446-9.446S132.947,292.646,127.738,292.646z"/>
				</g>
				<g>
					<polygon style="fill:#FDFFFF;" points="126.497,303.616 126.497,295.174 128.979,295.174 128.979,300.567 133.119,299.71 
						133.622,302.141 					"/>
				</g>
			</g>
			<g>
				<g>
					<path style="fill:#FDFFFF;" d="M127.738,345.503c-6.577,0-11.928-5.351-11.928-11.928c0-6.577,5.351-11.928,11.928-11.928
						c6.577,0,11.928,5.351,11.928,11.928C139.666,340.152,134.316,345.503,127.738,345.503z M127.738,324.129
						c-5.208,0-9.446,4.237-9.446,9.446c0,5.208,4.237,9.446,9.446,9.446c5.208,0,9.446-4.237,9.446-9.446
						C137.184,328.367,132.947,324.129,127.738,324.129z"/>
				</g>
				<g>
					<polygon style="fill:#FDFFFF;" points="125.457,338.143 123.572,336.529 126.497,333.116 126.497,326.295 128.979,326.295 
						128.979,334.034 					"/>
				</g>
			</g>
			<g>
				<g>
					<path style="fill:#FDFFFF;" d="M126.497,378.706c-6.577,0-11.928-5.351-11.928-11.928s5.351-11.928,11.928-11.928
						s11.928,5.351,11.928,11.928S133.074,378.706,126.497,378.706z M126.497,357.333c-5.208,0-9.446,4.237-9.446,9.446
						s4.237,9.446,9.446,9.446s9.446-4.237,9.446-9.446S131.705,357.333,126.497,357.333z"/>
				</g>
				<g>
					<polygon style="fill:#FDFFFF;" points="125.221,371.611 123.054,370.401 124.974,366.961 120.868,362.534 122.689,360.846 
						128.021,366.595 					"/>
				</g>
			</g>
		</g>
		<g>
			<rect x="110.297" y="146.244" style="fill:#837AF9;" width="26.158" height="24.146"/>
			<rect x="141.598" y="146.244" style="fill:#E1FFFE;" width="26.158" height="24.146"/>
			<rect x="173.131" y="146.244" style="fill:#4CCCD3;" width="26.158" height="24.146"/>
			<rect x="204.431" y="146.244" style="fill:#E1FFFE;" width="26.158" height="24.146"/>
			<rect x="109.872" y="177.055" style="fill:#837AF9;" width="26.158" height="24.146"/>
			<rect x="141.173" y="177.055" style="fill:#E1FFFE;" width="26.158" height="24.146"/>
			<rect x="172.705" y="177.055" style="fill:#E1FFFE;" width="26.158" height="24.146"/>
			<rect x="110.769" y="207.867" style="fill:#4CCCD3;" width="26.158" height="24.146"/>
			<rect x="142.07" y="207.867" style="fill:#E1FFFE;" width="26.158" height="24.146"/>
			<rect x="173.603" y="207.867" style="fill:#4CCCD3;" width="26.158" height="24.146"/>
			<rect x="204.903" y="207.867" style="fill:#E1FFFE;" width="26.158" height="24.146"/>
			<rect x="110.769" y="238.678" style="fill:#E1FFFE;" width="26.158" height="24.146"/>
			<rect x="142.07" y="238.678" style="fill:#E1FFFE;" width="26.158" height="24.146"/>
			<rect x="173.603" y="238.678" style="fill:#E1FFFE;" width="26.158" height="24.146"/>
			<rect x="204.903" y="238.678" style="fill:#E1FFFE;" width="26.158" height="24.146"/>
			<g>
				<path style="fill:#837AF9;" d="M160.812,168.163h-17.614c-2.601,0-4.717-2.116-4.717-4.717v-15.602
					c0-2.601,2.116-4.717,4.717-4.717h17.614c2.601,0,4.717,2.116,4.717,4.717v15.602
					C165.529,166.046,163.413,168.163,160.812,168.163z M143.198,144.017c-2.11,0-3.827,1.716-3.827,3.827v15.602
					c0,2.11,1.716,3.827,3.827,3.827h17.614c2.11,0,3.827-1.716,3.827-3.827v-15.602c0-2.11-1.716-3.827-3.827-3.827H143.198z"/>
			</g>
			<g>
				<path style="fill:#837AF9;" d="M191.919,198.974h-17.615c-2.601,0-4.717-2.116-4.717-4.717v-15.602
					c0-2.601,2.116-4.717,4.717-4.717h17.615c2.601,0,4.717,2.116,4.717,4.717v15.602
					C196.637,196.858,194.52,198.974,191.919,198.974z M174.305,174.828c-2.11,0-3.827,1.716-3.827,3.827v15.602
					c0,2.11,1.716,3.827,3.827,3.827h17.615c2.11,0,3.827-1.716,3.827-3.827v-15.602c0-2.11-1.716-3.827-3.827-3.827H174.305z"/>
			</g>
			<g>
				<path style="fill:#837AF9;" d="M161.284,260.597H143.67c-2.601,0-4.717-2.116-4.717-4.717v-15.602
					c0-2.601,2.116-4.717,4.717-4.717h17.614c2.601,0,4.717,2.116,4.717,4.717v15.602
					C166.001,258.481,163.885,260.597,161.284,260.597z M143.67,236.451c-2.11,0-3.827,1.716-3.827,3.827v15.602
					c0,2.11,1.716,3.827,3.827,3.827h17.614c2.11,0,3.827-1.716,3.827-3.827v-15.602c0-2.11-1.716-3.827-3.827-3.827H143.67z"/>
			</g>
			<g>
				<polygon style="fill:#837AF9;" points="153.017,197.243 143.354,187.392 146.534,184.273 152.742,190.602 161.723,179.787 
					165.149,182.633 				"/>
			</g>
			<g>
				<polygon style="fill:#837AF9;" points="187.156,259.479 177.494,249.628 180.674,246.509 186.881,252.838 195.862,242.023 
					199.289,244.869 				"/>
			</g>
			<rect x="233.891" y="146.244" style="fill:#837AF9;" width="26.158" height="24.146"/>
			<rect x="265.192" y="146.244" style="fill:#E1FFFE;" width="26.158" height="24.146"/>
			<rect x="296.725" y="146.244" style="fill:#4CCCD3;" width="26.158" height="24.146"/>
			<rect x="204.903" y="177.055" style="fill:#FFB3B3;" width="54.721" height="54.958"/>
			<rect x="264.767" y="177.055" style="fill:#E1FFFE;" width="26.158" height="24.146"/>
			<rect x="296.299" y="177.055" style="fill:#E1FFFE;" width="26.158" height="24.146"/>
			<rect x="265.664" y="207.867" style="fill:#E1FFFE;" width="26.158" height="24.146"/>
			<rect x="297.197" y="207.867" style="fill:#4CCCD3;" width="26.158" height="24.146"/>
			<rect x="234.363" y="238.678" style="fill:#E1FFFE;" width="26.158" height="24.146"/>
			<rect x="265.664" y="238.678" style="fill:#E1FFFE;" width="26.158" height="24.146"/>
			<rect x="297.197" y="238.678" style="fill:#E1FFFE;" width="26.158" height="24.146"/>
			<g>
				<path style="fill:#837AF9;" d="M284.406,168.163h-17.614c-2.601,0-4.717-2.116-4.717-4.717v-15.602
					c0-2.601,2.116-4.717,4.717-4.717h17.614c2.601,0,4.717,2.116,4.717,4.717v15.602
					C289.123,166.046,287.007,168.163,284.406,168.163z M266.791,144.017c-2.11,0-3.827,1.716-3.827,3.827v15.602
					c0,2.11,1.716,3.827,3.827,3.827h17.614c2.11,0,3.827-1.716,3.827-3.827v-15.602c0-2.11-1.716-3.827-3.827-3.827H266.791z"/>
			</g>
			<g>
				<path style="fill:#837AF9;" d="M315.513,198.974h-17.615c-2.601,0-4.717-2.116-4.717-4.717v-15.602
					c0-2.601,2.116-4.717,4.717-4.717h17.615c2.601,0,4.717,2.116,4.717,4.717v15.602
					C320.23,196.858,318.114,198.974,315.513,198.974z M297.898,174.828c-2.11,0-3.827,1.716-3.827,3.827v15.602
					c0,2.11,1.716,3.827,3.827,3.827h17.615c2.11,0,3.827-1.716,3.827-3.827v-15.602c0-2.11-1.716-3.827-3.827-3.827H297.898z"/>
			</g>
			<g>
				<path style="fill:#837AF9;" d="M284.877,260.597h-17.614c-2.601,0-4.717-2.116-4.717-4.717v-15.602
					c0-2.601,2.116-4.717,4.717-4.717h17.614c2.601,0,4.717,2.116,4.717,4.717v15.602
					C289.595,258.481,287.479,260.597,284.877,260.597z M267.263,236.451c-2.11,0-3.827,1.716-3.827,3.827v15.602
					c0,2.11,1.716,3.827,3.827,3.827h17.614c2.11,0,3.827-1.716,3.827-3.827v-15.602c0-2.11-1.716-3.827-3.827-3.827H267.263z"/>
			</g>
			<g>
				<polygon style="fill:#837AF9;" points="276.611,197.243 266.948,187.392 270.128,184.273 276.336,190.602 285.316,179.787 
					288.743,182.633 				"/>
			</g>
			<g>
				<polygon style="fill:#837AF9;" points="310.75,259.479 301.088,249.628 304.267,246.509 310.475,252.838 319.456,242.023 
					322.883,244.869 				"/>
			</g>
			<g>
				<path style="fill:#E1FFFE;" d="M249.106,215.021c0,0.902-0.374,1.728-0.969,2.332c-0.605,0.595-1.43,0.969-2.342,0.969h-25.801
					c-1.824,0-3.311-1.488-3.311-3.302c0-0.912,0.374-1.737,0.969-2.342c0.605-0.595,1.43-0.969,2.342-0.969h1.133v-10.683
					c0-6.335,5.183-11.518,11.518-11.518h0.451c6.335,0,11.518,5.183,11.518,11.518v10.683h1.181
					C247.618,211.71,249.106,213.198,249.106,215.021z"/>
				<path style="fill:#E1FFFE;" d="M240.291,219.924c-1.534,2.49-4.207,4.153-7.231,4.153h-0.337c-3.024,0-5.698-1.663-7.224-4.153
					H240.291z"/>
				<circle style="fill:#E1FFFE;" cx="232.894" cy="185.574" r="2.677"/>
				<path style="fill:#E1FFFE;" d="M222.626,186.068c-4.488,2.634-7.267,7.705-7.147,12.896c0.014,0.618,0.97,0.532,0.956-0.084
					c-0.113-4.869,2.555-9.57,6.745-12.029C223.713,186.539,223.156,185.756,222.626,186.068z"/>
				<path style="fill:#E1FFFE;" d="M215.523,185.908c-2.184,1.758-3.674,4.284-4.125,7.055c-0.099,0.61,0.845,0.784,0.944,0.174
					c0.411-2.52,1.744-4.842,3.736-6.445C216.556,186.306,216.006,185.52,215.523,185.908z"/>
				<path style="fill:#E1FFFE;" d="M243.353,185.82c-0.531-0.317-0.937,0.554-0.41,0.868c4.218,2.514,5.532,7.609,5.771,12.196
					c0.032,0.617,0.988,0.533,0.956-0.084C249.411,193.829,247.886,188.521,243.353,185.82z"/>
				<path style="fill:#E1FFFE;" d="M249.252,185.952c-0.456-0.419-1.071,0.318-0.617,0.735c1.375,1.264,2.214,3.034,2.345,4.894
					c0.043,0.616,1,0.533,0.956-0.084C251.787,189.383,250.811,187.385,249.252,185.952z"/>
				<path style="fill:#E1FFFE;" d="M219.265,225.406c-1.638-0.473-2.271-2.361-2.764-3.794c-0.2-0.584-1.101-0.25-0.9,0.335
					c0.327,0.953,0.668,1.925,1.257,2.754c0.554,0.779,1.308,1.383,2.233,1.65c0.249,0.072,0.516-0.148,0.559-0.385
					C219.701,225.688,219.515,225.478,219.265,225.406z"/>
				<path style="fill:#E1FFFE;" d="M215.726,226.872c-0.129-0.062-0.254-0.13-0.376-0.204c-0.012-0.007-0.011-0.006-0.015-0.008
					c-0.005-0.003-0.003-0.003-0.013-0.009c-0.027-0.018-0.054-0.036-0.08-0.055c-0.058-0.041-0.116-0.084-0.172-0.128
					c-0.107-0.084-0.21-0.174-0.309-0.268c-0.047-0.045-0.093-0.092-0.138-0.139c-0.006-0.007-0.011-0.012-0.021-0.023
					c-0.026-0.029-0.051-0.059-0.076-0.089c-0.177-0.212-0.331-0.442-0.464-0.685c-0.004-0.007-0.005-0.009-0.009-0.018
					c-0.014-0.029-0.029-0.058-0.042-0.088c-0.033-0.07-0.064-0.142-0.093-0.214c-0.053-0.133-0.098-0.268-0.137-0.405
					c-0.069-0.242-0.392-0.378-0.617-0.282c-0.255,0.108-0.356,0.358-0.282,0.617c0.352,1.245,1.271,2.309,2.435,2.865
					c0.227,0.108,0.539,0.009,0.639-0.229C216.056,227.27,215.968,226.988,215.726,226.872z"/>
				<path style="fill:#E1FFFE;" d="M246.449,221.019c-0.868,1.629-2.076,3.066-3.533,4.2c-0.486,0.378,0.066,1.164,0.555,0.783
					c1.589-1.238,2.899-2.795,3.846-4.573C247.608,220.883,246.738,220.476,246.449,221.019z"/>
				<path style="fill:#E1FFFE;" d="M249.278,223.755c-0.25-0.105-0.512-0.008-0.639,0.229c-0.055,0.102-0.111,0.202-0.17,0.302
					c-0.029,0.05-0.059,0.099-0.089,0.148c-0.013,0.022-0.027,0.043-0.041,0.065c-0.002,0.003-0.001,0.001-0.002,0.003
					c-0.002,0.003-0.001,0.002-0.005,0.007c-0.127,0.193-0.26,0.381-0.402,0.563c-0.283,0.365-0.597,0.704-0.936,1.018
					c-0.084,0.077-0.12,0.243-0.11,0.35c0.01,0.117,0.075,0.253,0.17,0.326c0.227,0.175,0.479,0.124,0.676-0.059
					c0.718-0.665,1.313-1.452,1.777-2.313C249.626,224.173,249.508,223.852,249.278,223.755z"/>
			</g>
		</g>
		<g>
			<g>
				<path style="fill:#B2B0F7;" d="M255.937,425.877c0.509,1.242,1.351,2.334,2.409,3.201h13.947
					c0.692-0.367,1.359-0.767,1.992-1.184c0.217-0.133,0.425-0.275,0.634-0.417c1.025-0.709,2.001-1.467,2.934-2.293
					c3.034-2.651,5.577-5.877,7.445-9.445c0.759-1.434,1.409-2.934,1.926-4.477c0.192-0.55,0.358-1.109,0.517-1.676
					c0.784-2.859,1.125-5.836,0.909-8.803c-0.092-1.301-0.292-2.593-0.6-3.86c-0.2-0.834-0.458-1.651-0.734-2.459
					c-0.208-0.6-0.417-1.2-0.617-1.809c-0.475-1.484-0.875-3.009-0.809-4.593c0.058-1.351,0.467-2.659,1.084-3.86
					c2.593-5.044,7.97-7.695,11.438-12.013c0.083-0.092,0.158-0.175,0.225-0.267c1.2-1.559,2.101-3.318,2.484-5.21
					c-0.008-0.008-0.008-0.017,0-0.017c0.142-0.7,0.208-1.417,0.192-2.151c-0.067-2.376-0.95-4.618-2.067-6.678
					c-2.384-4.36-6.069-8.161-7.42-13.03c-0.65-2.384-0.492-4.81,0.359-7.119c0.859-2.343,2.251-4.46,3.576-6.552
					c1.3-2.076,2.593-4.168,3.376-6.494c0.867-2.559,0.884-5.244,0.025-7.811c-0.967-2.834-2.759-5.319-4.702-7.57
					c-1.634-1.901-3.418-3.668-5.369-5.219v-0.008c-0.042-0.042-0.092-0.075-0.133-0.108c-0.008,0-0.008,0-0.008,0
					c-0.567-0.458-1.15-0.892-1.742-1.309c-3.893-2.709-8.462-4.518-13.18-4.785c-0.408-0.033-0.817-0.042-1.225-0.042
					c-0.842,0-1.684,0.05-2.526,0.15c-3.068,0.384-5.994,1.517-8.428,3.31c-1.942,1.434-3.576,3.285-4.727,5.502
					c-1.276,2.468-1.834,5.252-1.501,8.003c0.409,3.326,1.876,6.419,3.635,9.229c2.726,4.352,6.302,8.428,8.078,13.28
					c0.408,1.117,0.725,2.284,0.909,3.501c0.442,2.843-0.017,5.686-1.551,8.153c-1.701,2.726-4.293,4.743-6.661,6.878
					c-2.009,1.809-3.943,3.843-5.11,6.319c-1.234,2.601-1.284,5.41-0.133,8.053c1.192,2.718,3.176,5.019,4.869,7.436
					c1.626,2.318,3.168,4.76,4.235,7.395c1.017,2.509,1.609,5.235,1.242,7.953c-0.408,3.034-1.951,5.719-3.768,8.136
					c-3.351,4.452-7.995,8.637-8.862,14.447C251.927,419.541,253.578,422.934,255.937,425.877z"/>
				<path style="fill:#837AF9;" d="M255.82,418.207c0.217,3.927,1.709,7.77,4.127,10.871h1.817c0.025-0.117,0.042-0.242,0.05-0.367
					c0.075-0.584,0.092-1.167,0.058-1.759c0.05-0.25,0.108-0.509,0.183-0.75c1.917-6.327,7.878-9.27,13.03-12.922
					c3.276-2.309,6.227-4.919,7.603-8.87c0.342-0.992,0.525-1.992,0.584-3.009c0.083-1.592-0.142-3.201-0.542-4.777
					c-0.709-2.809-1.751-5.527-2.459-8.345c-0.367-1.459-0.675-2.926-0.942-4.41c-0.242-1.376-0.45-2.793-0.208-4.185
					c0.308-1.851,1.476-3.326,2.918-4.468c2.809-2.251,6.394-3.46,8.878-6.136c1.442-1.559,2.243-3.543,2.251-5.669
					c0.008-2.643-0.975-5.194-2.101-7.536c-1.292-2.693-2.743-5.31-4.127-7.953c-1.317-2.526-2.834-5.127-3.151-8.003
					c-0.517-4.743,3.326-7.695,6.469-10.529c1.517-1.367,3.001-2.834,3.993-4.627c1.175-2.134,1.634-4.577,1.509-6.994
					c-0.25-5.277-3.218-9.879-6.669-13.697v-0.008c-0.042-0.042-0.092-0.075-0.133-0.108c-0.008,0-0.008,0-0.008,0
					c-0.358-0.158-0.817,0.3-0.5,0.642c0.867,0.967,1.701,1.959,2.459,3.001c3.068,4.193,5.127,9.62,3.46,14.797
					c-1.367,4.26-5.277,6.578-8.22,9.654c-1.342,1.392-2.509,2.993-2.984,4.902c-0.642,2.559,0.067,5.144,1.109,7.503
					c0.45,1.025,0.95,2.034,1.467,3.035c0.859,1.676,1.776,3.318,2.643,4.977c1.284,2.459,2.684,4.919,3.451,7.611
					c0.7,2.468,0.784,5.152-0.684,7.37c-0.992,1.501-2.476,2.593-3.977,3.535c-2.859,1.801-6.444,3.285-8.128,6.402
					c-1.159,2.151-0.909,4.56-0.492,6.878c0.392,2.184,0.909,4.343,1.526,6.469c0.2,0.709,0.417,1.417,0.642,2.117
					c0.875,2.701,1.876,5.494,1.742,8.378c-0.033,0.642-0.125,1.276-0.267,1.892c-0.442,1.784-1.342,3.435-2.493,4.894
					c-0.85,1.075-1.809,2.026-2.834,2.893c-2.976,2.543-6.519,4.427-9.57,6.869c-2.376,1.901-4.552,4.368-5.677,7.203
					c-0.4-2.242-1.05-4.477-0.609-6.761c0.475-2.451,2.042-4.543,3.768-6.269c3.318-3.326,7.77-5.694,10.129-9.896
					c1.892-3.385,1.576-6.978,0.542-10.446c-0.492-1.676-1.15-3.318-1.809-4.902c-1.884-4.518-4.093-10.371-0.85-14.822
					c2.526-3.451,7.011-4.81,9.445-8.353c3.001-4.377,1.25-9.929-1.025-14.18c-2.443-4.552-6.686-9.954-4.385-15.364
					c0.892-2.117,2.509-3.835,4.002-5.544c1.517-1.742,2.951-3.543,3.801-5.719c1.817-4.643,1.1-10.012-1.134-14.381
					c-2.184-4.252-5.652-7.661-9.47-10.479c-0.192-0.142-0.383-0.283-0.575-0.417c-0.317-0.225-0.659,0.075-0.65,0.375
					c0,0.117,0.05,0.225,0.175,0.308c0.992,0.717,1.967,1.459,2.901,2.251c3.851,3.268,7.194,7.453,8.42,12.446
					c0.617,2.484,0.725,5.119,0.158,7.62c-0.534,2.401-1.742,4.443-3.293,6.319c-1.434,1.734-3.051,3.343-4.243,5.26
					c-1.234,1.976-1.801,4.16-1.501,6.477c0.242,1.876,0.892,3.618,1.717,5.285c1.576,3.201,3.776,6.177,4.969,9.504
					c0.884,2.459,1.284,5.269,0.434,7.786c-0.717,2.134-2.318,3.676-4.077,5.002c-1.659,1.25-3.468,2.343-4.985,3.785
					c-1.609,1.542-2.693,3.451-3.034,5.669c-0.8,5.235,2.042,10.087,3.751,14.822c0.95,2.634,1.659,5.485,1.117,8.287
					c-0.483,2.476-1.984,4.568-3.743,6.311c-3.318,3.285-7.636,5.652-10.062,9.77c-1.217,2.076-1.659,4.318-1.367,6.703
					c0.225,1.834,0.784,3.693,0.892,5.552c-0.125,0.6-0.192,1.225-0.2,1.851c-0.534-0.659-1.042-1.334-1.484-2.068
					c-2.218-3.701-3.293-8.253-2.418-12.521c0.434-2.101,1.384-4.068,2.784-5.702c1.459-1.701,3.31-3.018,5.035-4.435
					c1.659-1.359,3.276-2.851,4.31-4.752c1.1-2.009,1.451-4.293,1.225-6.569c-0.5-5.094-3.468-9.279-6.144-13.463
					c-1.401-2.176-2.634-4.568-2.693-7.211c-0.042-2.334,0.717-4.677,2.142-6.519c2.618-3.385,7.153-4.427,10.004-7.561
					c3.401-3.743,2.359-9.028,0.45-13.222c-0.142-0.308-0.283-0.617-0.434-0.925c-1.034-2.151-2.209-4.243-3.009-6.494
					c-0.934-2.643-1.367-5.477-1.284-8.278c0.075-2.784,0.817-5.385,1.476-8.07c0.6-2.426,0.917-4.877,0.308-7.328
					c-1.142-4.635-4.652-8.27-8.036-11.429c-0.175-0.158-0.392-0.142-0.55-0.042c-0.208,0.117-0.308,0.375-0.092,0.575
					c0.875,0.817,1.734,1.651,2.559,2.509c3.401,3.576,6.211,7.903,5.51,13.038c-0.375,2.684-1.367,5.244-1.767,7.928
					c-0.392,2.651-0.325,5.385,0.183,8.02c0.192,1,0.459,1.967,0.784,2.918c0.534,1.584,1.217,3.11,1.976,4.618
					c1.184,2.376,2.476,4.752,3.043,7.37c0.525,2.434,0.458,5.11-0.95,7.253c-1.167,1.767-3.001,2.934-4.785,4.01
					c-1.767,1.059-3.618,2.084-5.102,3.543c-1.559,1.542-2.601,3.543-3.035,5.686c-0.475,2.334-0.125,4.685,0.825,6.853
					c1.042,2.376,2.659,4.427,4.027,6.628c2.509,4.043,4.919,9.279,3.36,14.105c-1.442,4.468-5.919,6.628-9.062,9.737
					C256.979,410.012,255.595,413.997,255.82,418.207z"/>
			</g>
			<g>
				<path style="fill:#B2B0F7;" d="M267.941,429.078h60.056c3.285-1.217,6.502-2.626,9.629-4.235
					c7.194-3.718,13.88-8.495,19.408-14.364c4.76-5.044,8.803-11.279,9.295-18.174c0.175-2.401-0.2-4.827-1.459-6.711
					c-0.642-0.967-1.517-1.792-2.668-2.401c-3.335-1.759-7.344-1.209-10.921-0.192c-8.245,2.343-15.948,6.386-23.184,10.938
					c-3.143,1.976-6.219,4.06-9.254,6.186c-4.11,2.876-8.17,5.827-12.28,8.703c-7.303,5.11-14.831,9.829-22.884,13.705
					c-1.926,0.925-3.868,1.809-5.827,2.651C274.594,426.594,271.284,427.886,267.941,429.078z"/>
				<path style="fill:#837AF9;" d="M291.009,429.078h3.135c5.244-1.501,10.396-3.293,15.448-5.352
					c6.761-2.759,13.322-6.002,19.624-9.704c6.277-3.685,12.296-7.82,17.982-12.363c5.702-4.56,11.071-9.537,16.048-14.881
					c0.233-0.25,0.092-0.609-0.133-0.725c-0.125-0.067-0.275-0.058-0.408,0.083c-0.617,0.667-1.234,1.326-1.867,1.976
					c-5.01,5.194-10.404,10.012-16.115,14.431c-5.744,4.443-11.821,8.47-18.149,12.038c-6.286,3.551-12.822,6.653-19.549,9.27
					C301.788,425.893,296.436,427.644,291.009,429.078z"/>
			</g>
			<g>
				<path style="fill:#837AF9;" d="M261.472,429.078h9.995c0.942-0.383,1.884-0.775,2.818-1.184
					c5.727-2.434,11.371-5.094,16.857-8.053c8.02-4.343,15.731-9.345,22.717-15.239c1.709-1.442,3.368-2.934,4.985-4.477
					c4.935-4.71,9.42-9.895,13.255-15.548c2.184-3.226,4.16-6.611,5.877-10.121c2.201-4.51,3.968-9.237,5.177-14.114
					c0.675-2.718,1.167-5.535,1.359-8.362c0.333-4.96-0.258-9.962-2.409-14.489c-0.667-1.401-1.509-2.726-2.534-3.835
					c-1.709-1.851-3.918-3.101-6.653-3.135c-4.277-0.05-7.92,2.551-10.871,5.394c-0.425,0.408-0.842,0.825-1.259,1.242
					c-6.219,6.311-11.163,13.797-15.448,21.508c-1.467,2.643-2.868,5.327-4.218,8.028c-0.008,0-0.008,0.008,0,0.017
					c-0.925,1.817-1.817,3.643-2.709,5.477c-1.626,3.376-3.226,6.761-4.86,10.129c-0.35,0.734-0.709,1.467-1.067,2.201
					c-1.651,3.36-3.36,6.678-5.169,9.945c-1.292,2.343-2.643,4.66-4.043,6.936c-0.358,0.575-0.717,1.15-1.075,1.717
					c-1.451,2.293-2.968,4.543-4.568,6.753c-0.25,0.35-0.5,0.692-0.759,1.034c-0.584,0.8-1.175,1.592-1.784,2.376
					c-4.11,5.402-8.57,10.529-13.272,15.431C261.706,428.836,261.589,428.961,261.472,429.078z"/>
				<path style="fill:#B2B0F7;" d="M264.023,429.078h1.459c6.244-4.352,12.213-9.104,17.865-14.205
					c1.309-1.184,2.601-2.384,3.876-3.61c0.175-0.167,0.35-0.333,0.525-0.5c0.258-0.017,0.534-0.067,0.775-0.083l1.451-0.125
					l3.11-0.267c2.001-0.167,4.01-0.342,6.011-0.517c0.534-0.042,0.384-0.867-0.15-0.817c-3.418,0.292-6.836,0.584-10.262,0.875
					c3.66-3.576,7.186-7.294,10.546-11.154c0.067,0.025,0.133,0.033,0.208,0.025c5.652-0.884,11.221-2.234,16.665-4.01
					c0.509-0.167,0.142-0.917-0.359-0.75c-5.127,1.667-10.371,2.926-15.689,3.801c0.083-0.092,0.167-0.183,0.25-0.275
					c3.793-4.427,7.369-9.037,10.737-13.797c0.067,0,0.133-0.008,0.2-0.033c7.461-3.06,14.864-6.261,22.217-9.579
					c0.167-0.075,0.233-0.208,0.233-0.35c0-0.275-0.267-0.55-0.592-0.409c-7.019,3.176-14.097,6.236-21.225,9.17
					c1-1.434,1.992-2.884,2.959-4.352c4.235-6.461,8.061-13.188,11.471-20.116c5.052-1.434,9.954-3.385,14.597-5.844
					c0.158-0.083,0.225-0.225,0.225-0.358c0-0.283-0.267-0.559-0.584-0.392c-4.377,2.318-8.978,4.185-13.73,5.577
					c3.543-7.311,6.603-14.856,9.145-22.575c0.025-0.083,0.025-0.158,0.017-0.225c-0.092-0.358-0.659-0.492-0.8-0.067
					c-0.308,0.942-0.625,1.876-0.95,2.809c-2.359,6.786-5.119,13.43-8.262,19.899c-0.575-5.31-1.15-10.612-1.726-15.914
					c-0.025-0.233-0.192-0.333-0.367-0.333c-0.242,0-0.492,0.183-0.458,0.484c0.609,5.586,1.217,11.179,1.826,16.765
					c0.008,0.083,0.058,0.158,0.125,0.225c-0.192,0.384-0.375,0.767-0.567,1.15c-3.635,7.219-7.753,14.205-12.288,20.9
					c-0.383,0.567-0.792,1.117-1.175,1.676c-0.659-6.344-1.184-12.705-1.559-19.074c-0.033-0.534-0.85-0.383-0.817,0.15
					c0.392,6.669,0.942,13.322,1.642,19.966c-3.443,4.894-7.128,9.629-11.013,14.172c-0.65-4.318-1.292-8.645-1.942-12.972
					c-0.067-0.434-0.634-0.409-0.784-0.092c-0.033,0.067-0.05,0.15-0.033,0.242l2.042,13.664c-0.4,0.459-0.792,0.934-1.192,1.384
					c-3.176,3.585-6.503,7.044-9.937,10.371c-0.092,0.092-0.183,0.175-0.275,0.267c-0.075-0.108-0.067-0.267-0.083-0.417
					c-0.058-0.442-0.117-0.884-0.167-1.326c-0.1-0.884-0.192-1.767-0.275-2.651c-0.158-1.809-0.258-3.618-0.317-5.427
					c-0.017-0.534-0.842-0.609-0.825-0.075c0.058,1.992,0.167,3.977,0.35,5.952c0.092,0.992,0.2,1.984,0.325,2.968
					c0.058,0.459,0.033,1.184,0.358,1.592c-2.084,1.984-4.193,3.952-6.361,5.836C275.236,420.875,269.742,425.143,264.023,429.078z"
					/>
			</g>
		</g>
	</g>
	<g>
		<g id="XMLID_1_">
			<g>
				<path style="fill:#FFB3B3;" d="M350.379,103.713c0.758,4.924-2.044,9.848-5.509,13.495c-2.208,2.323-4.732,4.367-6.738,6.872
					l-10.27,4.396l0.912-4.137c6.94-0.49,15.501-12.008,15.501-12.008c-5.701,3.983-10.424,6.066-14.311,6.623
					c-8.763,1.267-13.351-5.116-15.713-14.628c-2.601-10.53,0.355-21.299,1.872-25.753c0.365,0.365,0.758,0.701,1.161,1.027
					c0.777,0.614,2.016,1.094,2.62,0.326c0.163-0.221,0.24-0.499,0.278-0.777c0.173-1.008,0.077-2.064-0.269-3.023
					c1.881,3.388,5.02,6.066,8.667,7.372c0.691,0.25,1.517,0.432,2.112,0.01c0.49-0.346,0.662-0.998,0.749-1.603
					c0.192-1.238,0.221-2.505,0.077-3.763c1.555,1.699,3.187,3.35,5.164,4.511c1.757,1.027,3.82,1.632,5.817,1.401
					c1.142,2.476,3.705,5.682,9.512,7.468c0,0,2.601-3.801,5.865-1.603C361.053,92.061,357.492,103.953,350.379,103.713z"/>
				<polygon style="fill:#837AF9;" points="282.058,125.29 265.26,124.34 260.375,124.34 260.528,113.273 260.528,94.595 
					281.568,95.66 281.568,109.712 				"/>
				<polygon style="fill:#4CCCD3;" points="266.067,126.154 259.511,128.736 244.432,136.04 239.594,126.049 231.532,109.405 
					254.616,100.392 260.375,113.34 265.26,124.34 				"/>
				<polygon style="fill:#B0E2E0;" points="419.44,421.066 413.518,423.792 403.372,409.979 410.312,409.116 437.331,405.756 
					441.929,405.18 443.532,409.979 436.659,413.147 				"/>
				<polygon style="fill:#B0E2E0;" points="336.932,439.735 328.744,440.397 326.661,429.196 331.365,427.919 357.29,420.912 
					363.481,419.232 363.481,437.604 355.466,438.247 				"/>
				<path style="fill:#FFFFFF;" d="M331.067,103.723c0,0,2.4,5.346-3.206,7.103c-5.605,1.757-7.074-3.83-7.074-3.83L331.067,103.723
					z"/>
				<ellipse cx="331.576" cy="92.857" rx="2.131" ry="2.803"/>
				<path d="M317.898,88.615c1.181,0,2.14,1.257,2.14,2.803c0,1.545-0.96,2.803-2.14,2.803s-2.131-1.257-2.131-2.803
					C315.767,89.872,316.717,88.615,317.898,88.615z"/>
				<circle style="fill:#EF7B7B;" cx="339.024" cy="99.442" r="3.782"/>
				<path style="fill:#EF7B7B;" d="M323.196,92.416l1.065,7.976c0,0-6.738,0.586-7.516-1.133
					C315.969,97.551,322.169,95.151,323.196,92.416z"/>
				<path d="M344.275,112.332c0,0-8.562,11.518-15.501,12.008l1.19-5.385C333.851,118.399,338.573,116.316,344.275,112.332z"/>
				<path d="M377.101,208.422c3.407,3.513,7.535,8.235,11.489,13.927c-22.633,3.475-45.353,6.354-68.139,8.658
					c0-2.956,0-5.797,0.01-8.485C339.341,217.819,358.221,213.125,377.101,208.422z"/>
				<path d="M373.195,186.221c-1.526,5.941-2.755,11.077-3.34,13.543c-16.423,1.92-32.846,3.839-49.278,5.74
					c0.019-1.881,0.038-3.599,0.067-5.145C338.266,196.031,355.793,191.327,373.195,186.221z"/>
				<path d="M380.806,158.51c-0.317,2.112-0.825,4.348-1.593,6.661c-0.931,2.803-1.891,5.989-2.832,9.272
					c-21.126,3.1-42.281,6.009-63.465,8.735l-0.422,0.336c-3.619-4.559-5.903-9.118-5.903-9.118l8.283,6.997l9.531-10.232
					C343.084,166.429,361.897,162.215,380.806,158.51z"/>
				<path d="M381.219,152.396c-3.311,0.019-6.633,0.038-9.944,0.067c1.632-0.835,3.091-1.968,4.233-3.398
					c1.929-2.39,2.86-5.404,3.455-8.447l0.25,0.048C379.213,140.667,381.161,145.341,381.219,152.396z"/>
				<path d="M353.537,151.321c-19.504,0.086-38.998,0.173-58.493,0.259l-0.989,0.691l-0.883-1.113c0,0,2.601-2.755,6.133-6.297
					c12.891-2.217,25.829-4.175,38.806-5.855c0.422,0.403,0.873,0.768,1.353,1.094c2.025,1.401,4.434,2.16,6.882,2.448
					c0.058,1.795,0.864,3.542,2.025,4.924c1.267,1.497,2.918,2.62,4.626,3.561C353.172,151.129,353.355,151.225,353.537,151.321z"/>
				<path d="M324.406,171.161l-9.531,10.232l-8.283-6.997c2.044-1.19,3.34-2.044,3.34-2.044l3.283,4.156l15.53-10.002
					L324.406,171.161z"/>
				<polygon points="436.659,413.147 423.922,428.773 419.44,421.066 				"/>
				<polygon points="355.466,438.247 336.932,447.202 336.932,439.735 				"/>
				<polygon points="383.359,269.631 364.604,289.615 366.553,278.971 				"/>
				<path style="fill:#FFB3B3;" d="M436.659,413.147l6.872,20.406c0,0-9.032,0.49-14.1,4.694l-5.509-9.474L436.659,413.147z"/>
				<path style="fill:#FFB3B3;" d="M355.466,449.736c0,0,0.768,6.613-6.258,6.431c-7.276-0.202-12.276-4.828-12.276-4.828v-4.137
					l18.535-8.955V449.736z"/>
				<path style="fill:#FFB3B3;" d="M281.568,109.712v-5.337c5.25-0.413,13.831,1.603,13.831,1.603l4.982,12.008l12.833,14.186
					c-3.398,2.553-7.852,6.719-11.7,10.501l-5.404-12.324c-11.652-3.34-12.987-12.104-12.987-12.104
					c-0.48-0.317-0.998-0.71-1.536-1.152v-0.01c-3.734-3.119-8.168-8.84-5.759-9.147
					C276.98,107.783,279.284,108.656,281.568,109.712z"/>
				<path style="fill:#FFB3B3;" d="M294.056,152.271l15.876,20.08c0,0-1.296,0.854-3.34,2.044
					c-4.934,2.87-14.215,7.669-20.003,6.911c-8.178-1.065-29.611-31.396-29.611-31.396s-16.193-3.955-19.37-5.692
					c-3.187-1.728-0.96-7.295-0.96-7.295c-2.361-3.196,0.048-6.757,0.048-6.757c-0.49-2.976,2.899-4.118,2.899-4.118l4.838,9.992
					l8.984-4.559c-2.092-7.343-2.62-13.14-0.086-9.224c1.325,2.044,3.791,4.348,6.181,6.479c2.179,1.948,4.3,3.743,5.471,5.078
					c2.438,2.803,1.421,8.859,1.421,8.859l18.851,15.242L294.056,152.271z"/>
				<path d="M443.532,433.553c0,0,5.74,10.05,4.934,16.903c-1.593-9.435-15.741-5.25-18.679,2.313
					c-2.928,7.554-10.136,15.29-10.136,15.29h-12.276c-2.313-15.866,11.566-14.052,11.566-14.052l10.491-15.761
					C434.5,434.043,443.532,433.553,443.532,433.553z"/>
				<path style="fill:#4CCCD3;" d="M448.465,450.456c-0.797,6.844-9.781,17.604-9.781,17.604h-19.034c0,0,7.208-7.736,10.136-15.29
					C432.724,445.206,446.872,441.021,448.465,450.456z"/>
				<path style="fill:#4CCCD3;" d="M364.594,289.634l-12.18,66.45c0,0,8.005,30.475,4.876,64.828l-25.925,7.007
					c-8.744-53.204-10.664-133.581-10.894-185.653h0.317c0,0,42.348,4.761,70.433-15.924h0.01
					c8.696,13.86,15.501,32.471,10.011,53.166l14.407,65.106c0,0,18.544,34.554,21.616,60.566l0.067,0.576l-27.02,3.359
					L364.594,289.634z M364.604,289.615l18.755-19.984l-16.807,9.339L364.604,289.615z"/>
				<path style="fill:#837AF9;" d="M391.23,226.342h-0.01c-28.085,20.685-70.433,15.924-70.433,15.924h-0.317
					c-0.01-3.926-0.019-7.688-0.019-11.259c22.787-2.304,45.506-5.183,68.139-8.658C389.483,223.636,390.366,224.96,391.23,226.342z
					"/>
				<path d="M316.122,78.575c-4.07-3.974-5.893-10.184-4.473-15.713c0.355-1.353,0.893-2.697,1.872-3.695
					c1.219-1.248,2.995-1.833,4.732-1.977c1.747-0.144,3.494,0.115,5.231,0.326c5.145,0.595,10.433,0.71,15.444-0.595
					c3.11-0.797,6.22-2.15,9.406-1.737c2.428,0.307,4.665,1.67,6.249,3.532c1.478,1.757,2.428,3.916,2.899,6.162
					c4.425-1.085,9.454,1.161,11.576,5.193c3.091,5.836,0.077,13.179,1.9,19.523c1.19,4.137,4.3,7.42,7.544,10.251
					c3.235,2.832,6.748,5.452,9.195,8.994c4.175,6.057,4.569,14.34,1.574,21.049c-1.44,3.225-3.638,6.153-6.537,8.159
					c-1.123,0.768-2.352,1.401-3.638,1.843c-0.048,0.24-0.086,0.49-0.134,0.729c-0.595,3.043-1.526,6.057-3.455,8.447
					c-1.142,1.43-2.601,2.563-4.233,3.398c-2.016,1.027-4.281,1.584-6.546,1.67c-3.887,0.154-7.736-0.998-11.192-2.812
					c-0.182-0.096-0.365-0.192-0.538-0.288c-1.709-0.941-3.359-2.064-4.626-3.561c-1.161-1.382-1.968-3.129-2.025-4.924
					c-2.448-0.288-4.857-1.046-6.882-2.448c-0.48-0.326-0.931-0.691-1.353-1.094c-1.709-1.613-2.918-3.763-3.158-6.095
					c-0.326-3.196,1.171-6.325,3.177-8.831s4.53-4.55,6.738-6.872c3.465-3.647,6.268-8.571,5.509-13.495
					c7.112,0.24,10.673-11.652,7.496-13.793c-3.263-2.198-5.865,1.603-5.865,1.603c-5.807-1.785-8.37-4.991-9.512-7.468
					c-1.996,0.23-4.06-0.374-5.817-1.401c-1.977-1.161-3.609-2.812-5.164-4.511c0.144,1.257,0.115,2.524-0.077,3.763
					c-0.086,0.605-0.259,1.257-0.749,1.603c-0.595,0.422-1.421,0.24-2.112-0.01c-3.647-1.305-6.786-3.983-8.667-7.372
					c0.346,0.96,0.442,2.016,0.269,3.023c-0.038,0.278-0.115,0.557-0.278,0.777c-0.605,0.768-1.843,0.288-2.62-0.326
					C316.881,79.275,316.487,78.939,316.122,78.575z"/>
				<path style="fill:#837AF9;" d="M381.219,152.396c0.019,1.881-0.096,3.935-0.413,6.114c-18.909,3.705-37.722,7.919-56.4,12.651
					l4.338-4.655l-15.53,10.002l-3.283-4.156l-15.876-20.08l0.989-0.691c19.494-0.086,38.989-0.173,58.493-0.259
					c3.455,1.814,7.304,2.966,11.192,2.812c2.265-0.086,4.53-0.643,6.546-1.67C374.586,152.435,377.907,152.415,381.219,152.396z"/>
				<path style="fill:#837AF9;" d="M377.101,208.422c-18.88,4.703-37.76,9.397-56.64,14.1c0.029-6.565,0.067-12.305,0.115-17.018
					c16.432-1.9,32.855-3.82,49.278-5.74c-0.23,0.998-0.365,1.555-0.365,1.555S372.686,203.853,377.101,208.422z"/>
				<path style="fill:#837AF9;" d="M376.381,174.444c-1.123,3.935-2.217,8.024-3.187,11.777
					c-17.402,5.106-34.929,9.81-52.551,14.138c0.077-5.97,0.144-9.31,0.144-9.31c-3.139-1.718-5.989-4.626-8.293-7.535l0.422-0.336
					C334.1,180.452,355.255,177.544,376.381,174.444z"/>
				<path d="M355.466,449.736l2.457,22.777h-22.595l-21.52-10.673c1.872-12.632,14.762-12.363,17.767-12.276
					c3.004,0.086,5.356,1.776,5.356,1.776s5.001,4.626,12.276,4.828C356.234,456.349,355.466,449.736,355.466,449.736z"/>
				<path style="fill:#837AF9;" d="M327.861,128.477l10.27-4.396c-2.006,2.505-3.503,5.634-3.177,8.831
					c0.24,2.332,1.449,4.482,3.158,6.095c-12.977,1.68-25.916,3.638-38.806,5.855c0.701-0.71,1.44-1.44,2.208-2.188
					c3.849-3.782,8.303-7.947,11.7-10.501c0.355-0.278,0.701-0.528,1.037-0.758C321.526,126.346,327.861,128.477,327.861,128.477z"
					/>
			</g>
		</g>
		<path d="M320.628,84.504c-0.102-0.766-0.757-1.39-1.56-1.309c-1.352,0.136-2.694,0.413-3.995,0.803
			c-0.333,0.1-0.654,0.428-0.799,0.734c-0.153,0.323-0.19,0.783-0.048,1.118c0.143,0.337,0.387,0.653,0.734,0.799
			c0.37,0.156,0.731,0.164,1.118,0.048c0.387-0.116,0.778-0.215,1.172-0.308c0.684-0.144,1.374-0.256,2.069-0.326
			c0.37-0.037,0.737-0.222,0.977-0.509C320.524,85.285,320.675,84.86,320.628,84.504z"/>
		<path d="M335.742,85.57c-0.137-0.323-0.387-0.68-0.734-0.799c-1.821-0.626-3.675-0.933-5.604-0.892
			c-0.755,0.016-1.407,0.824-1.309,1.56c0.108,0.816,0.751,1.326,1.56,1.309c0.268-0.006,0.535,0.001,0.803,0.01
			c1.128,0.074,2.24,0.279,3.318,0.617c0,0,0.001,0,0.001,0c0.378,0.13,0.728,0.193,1.118,0.048c0.325-0.121,0.663-0.41,0.799-0.734
			C335.841,86.339,335.893,85.928,335.742,85.57z"/>
		<path style="fill:#EF7B7B;" d="M355.33,91.52c-0.805,0.218-1.574,0.924-2.153,1.497c-1.181,1.17-2.004,2.718-2.319,4.35
			c-0.263,1.361-0.257,3.475,1.388,3.96c1.739,0.512,3.267-1.341,3.755-2.792c0.269-0.801,0.447-2.04-0.562-2.406
			c-0.949-0.344-1.88,0.804-2.266,1.523c-0.293,0.546,0.577,0.953,0.868,0.41c0.185-0.345,0.435-0.653,0.76-0.876
			c0.134-0.092,0.256-0.213,0.395-0.09c0.143,0.127,0.062,0.457,0.035,0.613c-0.118,0.685-0.453,1.338-0.906,1.86
			c-0.431,0.497-1.212,1.109-1.912,0.802c-0.523-0.229-0.681-0.878-0.723-1.394c-0.108-1.318,0.369-2.717,1.033-3.836
			c0.337-0.569,0.76-1.095,1.235-1.554c0.255-0.247,0.532-0.471,0.821-0.677c0.143-0.102,0.29-0.201,0.442-0.29
			c0.093-0.059,0.19-0.111,0.292-0.154c0.05,0.005,0.071-0.004,0.097-0.011c-0.164,0.476,0.605,0.801,0.903,0.312
			C356.985,91.994,356.039,91.328,355.33,91.52z"/>
		<path d="M287.615,111.69c-1.764-0.874-3.529-1.748-5.293-2.622c-0.555-0.275-0.964,0.594-0.41,0.868
			c1.764,0.874,3.529,1.748,5.293,2.622C287.759,112.833,288.168,111.964,287.615,111.69z"/>
		<path d="M253.854,131.383c-0.059-0.245-0.398-0.375-0.617-0.283c-0.263,0.111-0.346,0.355-0.282,0.617
			c0.101,0.416,0.192,0.894,0.259,1.358c0.069,0.48,0.115,0.963,0.14,1.448c0.013,0.251,0.269,0.47,0.52,0.436
			c0.266-0.035,0.45-0.251,0.436-0.52C254.255,133.407,254.097,132.388,253.854,131.383z"/>
		<polygon points="285.254,157.915 287.926,160.854 291.13,154.147 		"/>
		<path style="fill:#B0E2E0;" d="M328.456,354.416c-1.363-23.593-1.828-47.229-1.971-70.858c-0.08-13.303-0.058-26.605-0.035-39.908
			c0.001-0.618-0.955-0.53-0.956,0.084c-0.042,23.757-0.08,47.518,0.464,71.271c0.54,23.601,1.656,47.201,3.921,70.704
			c1.274,13.219,2.916,26.402,5.011,39.517c0.097,0.606,1.054,0.528,0.956-0.084C332.104,401.72,329.823,378.089,328.456,354.416z"
			/>
		<path style="fill:#B0E2E0;" d="M413.855,407.453c-2.825-7.837-5.657-15.672-8.496-23.504c-2.852-7.87-5.711-15.737-8.576-23.603
			c-2.852-7.828-5.71-15.653-8.574-23.475c-2.878-7.86-5.763-15.718-8.655-23.574c-2.878-7.818-5.762-15.634-8.653-23.447
			c-0.361-0.977-0.723-1.953-1.084-2.93c-0.214-0.579-1.115-0.246-0.9,0.335c2.892,7.813,5.778,15.627,8.658,23.445
			c2.893,7.855,5.78,15.712,8.66,23.572c2.866,7.822,5.726,15.647,8.579,23.474c2.867,7.865,5.727,15.732,8.581,23.601
			c2.84,7.832,5.674,15.666,8.501,23.502c0.353,0.98,0.707,1.959,1.06,2.939C413.165,408.368,414.065,408.036,413.855,407.453z"/>
	</g>
</g>
</svg>
